<svg width="37" height="28" viewBox="0 0 37 28" fill="none" xmlns="http://www.w3.org/2000/svg">
<g filter="url(#filter0_d_720_2274)">
<path fill-rule="evenodd" clip-rule="evenodd" d="M4 3.66667C4 2.7462 4.72133 2 5.61111 2H31.3889C32.2787 2 33 2.7462 33 3.66667C33 4.58713 32.2787 5.33333 31.3889 5.33333H5.61111C4.72133 5.33333 4 4.58713 4 3.66667ZM8.83333 12C8.83333 11.0795 9.55466 10.3333 10.4444 10.3333H26.5556C27.4454 10.3333 28.1667 11.0795 28.1667 12C28.1667 12.9205 27.4454 13.6667 26.5556 13.6667H10.4444C9.55466 13.6667 8.83333 12.9205 8.83333 12ZM13.6667 20.3333C13.6667 19.4128 14.388 18.6667 15.2778 18.6667H21.7222C22.612 18.6667 23.3333 19.4128 23.3333 20.3333C23.3333 21.2538 22.612 22 21.7222 22H15.2778C14.388 22 13.6667 21.2538 13.6667 20.3333Z" fill="#868686"/>
</g>
<defs>
<filter id="filter0_d_720_2274" x="0.5" y="0.5" width="36" height="27" filterUnits="userSpaceOnUse" color-interpolation-filters="sRGB">
<feFlood flood-opacity="0" result="BackgroundImageFix"/>
<feColorMatrix in="SourceAlpha" type="matrix" values="0 0 0 0 0 0 0 0 0 0 0 0 0 0 0 0 0 0 127 0" result="hardAlpha"/>
<feOffset dy="2"/>
<feGaussianBlur stdDeviation="1.75"/>
<feComposite in2="hardAlpha" operator="out"/>
<feColorMatrix type="matrix" values="0 0 0 0 0 0 0 0 0 0 0 0 0 0 0 0 0 0 0.25 0"/>
<feBlend mode="normal" in2="BackgroundImageFix" result="effect1_dropShadow_720_2274"/>
<feBlend mode="normal" in="SourceGraphic" in2="effect1_dropShadow_720_2274" result="shape"/>
</filter>
</defs>
</svg>
