<svg width="119" height="65" viewBox="0 0 119 65" fill="none" xmlns="http://www.w3.org/2000/svg">
<path d="M114.288 45.8626C114.546 44.3167 114.147 42.8673 113.573 41.463C112.549 38.9766 110.919 36.9088 109.09 34.9828C105.715 31.427 101.824 28.4897 97.7463 25.8035C96.2647 24.8244 94.7381 23.9226 93.2307 22.9821C93.1019 22.9048 92.9344 22.8662 92.8442 22.6021C93.9522 23.1431 95.0022 23.6456 96.0457 24.1545C98.165 25.037 100.11 26.2544 102.081 27.4204C105.231 29.2755 108.31 31.2467 111.151 33.5656C113.129 35.176 114.99 36.8895 116.491 38.9637C117.232 39.9879 117.857 41.0765 118.263 42.2875C118.353 42.5645 118.417 42.8415 118.404 43.1378C118.598 44.4777 118.636 45.8111 118.121 47.1059C117.535 48.5874 116.556 49.7662 115.358 50.784C113.187 52.6263 110.662 53.8438 108.027 54.8551C104.594 56.1756 101.057 57.1483 97.4371 57.7989C97.3083 57.844 97.173 57.9148 97.1923 57.6765C99.157 57.1612 101.122 56.6716 103.009 55.8986C104.033 55.3447 105.161 55.0097 106.191 54.4686C107.583 53.8438 108.897 53.0708 110.14 52.1883C112.311 50.5972 113.799 48.5552 114.301 45.8626H114.288Z" fill="#66538E"/>
<path d="M118.405 43.1385C117.168 39.0609 114.231 36.2846 111.074 33.7144C106.681 30.1393 101.798 27.3243 96.8318 24.6446C96.5612 24.4965 96.31 24.329 96.0459 24.168C97.1216 24.3161 98.0814 24.8057 99.0799 25.1857C102.088 26.3259 105.051 27.5885 107.898 29.0958C110.881 30.674 113.747 32.4261 116.079 34.9254C117.387 36.3233 118.392 37.895 118.701 39.8146C118.881 40.9354 118.868 42.0692 118.398 43.1449L118.405 43.1385Z" fill="#C1B9D1"/>
<path d="M39.3147 1.94404C40.6996 2.02134 42.0717 2.19526 43.4373 2.40783C43.0637 2.40783 42.6965 2.41427 42.3229 2.42071C39.553 2.46581 36.7831 2.44004 34.0197 2.57531C30.129 2.76212 26.2447 3.01334 22.3797 3.50934C19.1267 3.92805 15.8995 4.46914 12.7624 5.41605C10.0634 6.23414 7.43523 7.23258 5.42545 9.35187C4.52363 10.2988 3.90524 11.4003 3.81506 12.7466C3.08716 10.2086 3.55739 7.9476 5.34171 5.97647C5.38036 5.93782 5.45122 5.92494 5.50275 5.89917C7.43523 4.75257 9.58028 4.20503 11.7382 3.72192C15.075 2.98113 18.4568 2.58175 21.8708 2.33697C24.3637 2.16305 26.8631 2.07287 29.356 1.95692C31.7329 1.84097 34.1099 1.90539 36.4868 1.87318C37.4337 1.8603 38.3742 2.05354 39.3211 1.95048L39.3147 1.94404Z" fill="#C1B9D1"/>
<path d="M1.11604 12.3345C2.1789 14.5955 3.49943 16.6954 5.05185 18.6537C6.1276 20.0064 7.28709 21.2883 8.48522 22.538C8.6527 22.7119 8.8846 22.8407 8.92325 23.1177C8.90393 23.414 9.14226 23.5493 9.30975 23.7168C11.5257 26.0293 13.8317 28.2452 16.3246 30.2614C16.4148 30.3323 16.4792 30.4289 16.4728 30.6028C15.7191 30.0231 14.959 29.4433 14.2054 28.8572C11.3711 26.6477 8.68491 24.2579 6.23711 21.6232C4.44634 19.6972 2.83595 17.6359 1.78597 15.1945C1.39303 14.2863 1.05807 13.3522 1.12248 12.3345H1.11604Z" fill="#C2BAD1"/>
<path d="M48.9963 3.05852C49.0801 3.01343 49.1638 2.97478 49.2411 2.92969C50.7807 3.17447 52.3138 3.41925 53.8533 3.67047C52.2236 3.55452 50.5939 3.39348 48.9963 3.05852Z" fill="#A89DBF"/>
<path d="M97.1859 57.6704C97.2697 57.7091 97.3534 57.7541 97.4307 57.7928C96.7737 57.9989 96.1037 58.1149 95.4016 58.0505C95.9942 57.9216 96.5933 57.7992 97.1859 57.6704Z" fill="#A297BB"/>
<path d="M74.7563 53.5289C75.9029 52.1182 77.0753 50.7204 78.2477 49.329C79.2075 48.1889 79.1559 47.0165 78.0866 45.9794C77.8161 45.7153 77.5198 45.4898 77.1719 45.3481C76.8498 45.2128 76.7854 45.0711 77.0044 44.7619C77.3265 44.3046 77.6035 43.8215 77.7839 43.2868C77.8354 43.1322 77.8741 42.9454 77.7195 42.8295C77.5713 42.72 77.4038 42.7586 77.2685 42.8874C76.663 43.4479 76.0318 43.989 75.5293 44.6524C75.4456 44.7619 75.2974 44.923 75.4198 45.0325C75.845 45.3932 75.51 45.6766 75.3361 45.9279C73.8481 48.0407 72.0637 49.8701 69.9509 51.3646C69.6417 51.5836 69.3196 51.8026 68.785 51.8284C69.558 50.933 70.2601 50.1213 70.9493 49.3033C71.8769 48.2082 71.8254 47.068 70.8141 46.0438C70.5242 45.7475 70.1892 45.4898 69.8027 45.3352C69.4678 45.2 69.4871 45.0454 69.6675 44.7877C69.9831 44.3304 70.2665 43.8472 70.4469 43.3126C70.5049 43.1451 70.5628 42.9325 70.3503 42.8166C70.1828 42.7264 70.0346 42.7973 69.9058 42.9196C69.3325 43.4543 68.7334 43.9696 68.2503 44.5945C68.1473 44.7297 67.9347 44.9165 68.1215 45.0711C68.4758 45.361 68.2374 45.6058 68.0893 45.8119C66.305 48.279 64.2759 50.4885 61.5704 51.9765C62.0986 52.2793 62.6139 51.9185 63.2839 51.8219C62.5366 52.6465 61.9053 53.4001 60.8811 53.6449C59.9407 53.8704 59.4704 53.4323 59.6121 52.4919C59.6701 52.1054 59.7796 51.7253 59.9407 51.3646C60.4946 50.1213 61.3256 49.0649 62.1888 48.0343C62.7234 47.3966 63.2452 46.7588 63.6253 46.0181C63.9151 45.4512 63.8249 44.9423 63.3998 44.4785C63.1937 44.2595 63.0326 44.1242 62.9296 44.5687C62.7621 45.303 62.2468 45.8055 61.6992 46.3337C61.6026 44.7941 60.8425 44.2015 59.3094 44.427C58.3625 44.5687 57.5508 44.9938 56.8036 45.58C55.9018 46.2886 55.1739 47.1582 54.4718 48.06C54.3622 48.2017 54.2463 48.3757 54.0981 48.4594C51.4442 49.8637 48.7001 51.0361 45.7305 51.6158C44.5904 51.8413 43.4437 51.7768 42.2907 51.7317C43.5726 52.2342 44.9124 52.2857 46.2652 52.2406C45.6468 52.5047 44.9897 52.582 44.3391 52.6464C41.9686 52.8783 39.669 52.6722 37.5626 51.4354C35.4755 50.218 34.5479 48.2018 34.9408 45.8184C35.1985 44.2337 35.9586 42.9003 36.9764 41.7022C40.9058 37.0707 45.9817 35.3443 51.9209 35.8532C52.6166 35.9112 53.3058 36.0593 53.9757 36.2977C55.9598 37.0256 56.5588 38.6038 55.5282 40.4461C54.9549 41.4767 54.1175 42.2819 53.2221 43.0163C52.5844 43.538 51.9209 44.0276 51.2059 44.5751C51.4893 44.6524 51.6181 44.5236 51.7534 44.4527C53.7439 43.4092 55.5217 42.0758 57.1515 40.5363C57.6668 40.0531 58.0533 39.4605 58.3431 38.8099C58.9873 37.3348 58.7683 36.0336 57.6346 34.8934C57.3898 34.6486 57.4349 34.494 57.5766 34.2621C58.0984 33.3925 58.691 32.5744 59.4318 31.8659C60.9649 30.3908 62.5237 28.9285 64.0246 27.4212C65.3001 26.1457 66.4209 24.735 67.2068 23.0924C67.619 22.2293 67.9089 21.321 67.8638 20.3483C67.8252 19.5109 67.3549 19.0729 66.5175 19.0407C65.5126 19.002 64.6752 19.4272 63.8765 19.9747C63.709 20.0906 63.548 20.2066 63.3869 20.3225C64.6237 18.3192 65.8991 16.3867 67.1617 14.4478C67.5933 13.7908 68.0055 13.1208 68.2696 12.3801C68.5273 11.665 68.3212 10.9114 67.7801 10.4669C67.574 10.2994 67.458 10.2543 67.3421 10.5635C67.0973 11.2206 66.7559 11.839 66.4016 12.4445C63.9087 16.7153 61.171 20.825 58.2143 24.7866C57.3383 25.9654 56.4751 27.1571 55.2641 28.0267C55.0515 28.1813 55.1417 28.265 55.2641 28.4003C55.773 28.9672 56.3012 29.0122 56.8745 28.5098C57.583 27.885 58.1886 27.1506 58.9036 26.3712C58.7168 26.9638 58.5493 27.4341 58.4205 27.9043C58.1628 28.8319 58.1692 28.8512 58.3045 29.4374C59.3158 26.5709 60.9906 24.1682 62.7556 21.8234C63.271 21.1342 63.87 20.5544 64.5722 20.0713C64.8814 19.8587 65.2357 19.717 65.6157 19.7235C66.0988 19.7299 66.4209 19.9425 66.3823 20.4771C66.2792 21.8299 65.6286 22.9314 64.7719 24.1488C64.8427 23.5755 65.0682 23.2148 64.9522 22.7124C64.7268 23.3114 64.4305 23.7559 64.0955 24.1746C62.659 25.9654 61.2161 27.7497 59.7925 29.5469C58.7232 30.8996 57.7827 32.3297 57.2932 34.0045C57.1579 34.4554 57.0097 34.449 56.6297 34.2493C55.6377 33.7339 54.3558 33.4376 53.7245 33.5149C56.4622 34.6744 57.5959 35.9949 57.364 37.8179C57.0419 36.3621 55.992 35.5956 54.7359 35.0738C54.2012 34.8483 53.6859 34.6035 53.1834 34.3072C52.243 33.7468 51.3025 33.1864 50.3556 32.6324C47.7081 31.0736 44.9124 29.9398 41.8076 29.7595C37.7751 29.5211 34.3225 31.0027 31.2563 33.4956C29.6459 34.8032 28.3511 36.3814 27.591 38.3332C26.6441 40.7617 27.3398 43.5123 29.2207 44.9101C29.2207 44.704 29.079 44.5687 28.9824 44.4205C27.5008 42.166 27.5137 40.1433 29.0275 37.9016C29.9228 36.5811 31.0566 35.4989 32.3707 34.6164C36.3129 31.9818 40.6868 31.2024 45.3376 31.7757C47.6243 32.0591 49.6921 32.9609 51.7148 34.3201C50.2396 34.1784 48.9127 34.2815 47.5857 34.449C44.0879 34.8934 40.8091 35.9498 37.9297 38.0305C35.424 39.8341 33.3369 42.0307 32.1838 44.9487C30.7925 48.4723 31.997 51.6351 35.2758 53.2584C37.8009 54.5081 40.4742 54.8752 43.2376 54.3535C46.1621 53.8059 48.8869 52.6722 51.5344 51.3452C51.6246 51.3002 51.7856 51.2873 51.7276 51.0811H50.8838C51.2445 50.8621 51.6181 50.7075 51.9982 50.5658C52.3847 50.4177 52.739 50.1729 53.1834 50.1342C53.0288 50.5916 52.8678 50.9974 52.7647 51.4161C52.6617 51.8348 52.5844 52.26 52.6037 52.7044C52.6488 53.7286 53.2672 54.2504 54.2785 54.1216C55.6119 53.9541 56.6619 53.2455 57.6217 52.3695C57.8085 52.1955 57.9889 52.0216 58.2272 51.7897C58.1499 53.7286 59.2965 54.5789 61.0293 53.9927C61.6219 53.7931 62.1501 53.471 62.659 53.1102C63.6832 52.3888 64.3725 51.3581 65.1841 50.4305C66.466 48.9683 67.7801 47.5383 68.8623 45.9214C68.9911 45.7217 69.0877 45.6895 69.2874 45.8635C69.9187 46.411 70.0926 47.3128 69.6804 48.0472C69.2681 48.7751 68.7334 49.3934 68.1795 50.0118C67.2583 51.0425 66.2727 52.0281 65.6415 53.2842C65.0875 54.3986 65.6093 54.624 66.6013 54.682C66.9427 54.7013 67.2261 54.5274 67.5095 54.2568C67.123 54.1924 66.9878 54.0443 67.2519 53.7415C67.4902 53.4581 67.7157 53.1553 67.9476 52.8719C68.3341 52.4017 68.611 51.7897 69.4485 52.0603C69.7576 52.1633 70.1313 51.9443 70.4469 51.7833C71.0009 51.5063 71.5226 51.1649 72.0058 50.7719C73.5324 49.5352 74.7306 48.0149 75.8643 46.4239C76.0318 46.1855 76.1348 45.7217 76.4247 45.7733C76.779 45.8312 76.9722 46.2435 77.1204 46.5914C77.3265 47.0745 77.3201 47.5511 77.0366 48.0149C76.7017 48.5625 76.341 49.0907 75.9094 49.5674C75.1944 50.3726 74.4793 51.1713 73.7965 52.0023C73.3649 52.5305 72.9913 53.1038 72.7916 53.7673C72.7079 54.0572 72.7272 54.2891 72.9978 54.4694C73.4358 54.7593 74.241 54.7464 74.6404 54.4308C74.7048 54.3792 74.8658 54.2826 74.737 54.2311C74.0735 53.967 74.6275 53.7029 74.7628 53.5354L74.7563 53.5289ZM58.633 50.3017C57.9116 51.5127 56.8938 52.4468 55.7085 53.194C55.5217 53.3099 55.2963 53.3872 55.0773 53.4259C54.5555 53.5096 54.2463 53.252 54.2076 52.7302C54.1754 52.2922 54.2527 51.8606 54.4267 51.4612C54.8905 50.379 55.4895 49.4063 56.2303 48.4659C56.7778 47.7766 57.2867 47.0551 57.9116 46.4239C58.4398 45.8957 59.0195 45.4319 59.7603 45.2129C60.1404 45.1033 60.5591 44.9874 60.8811 45.2837C61.2225 45.5993 61.0486 46.0116 60.9456 46.3917C60.8167 46.849 60.6492 47.2806 60.3078 47.8539C60.2756 47.1711 60.2499 46.6558 59.9535 46.0438C59.8376 47.6671 59.3867 49.0392 58.6266 50.3017H58.633Z" fill="#66538E"/>
<path d="M59.3094 19.0788C57.3769 18.0353 54.7036 18.5506 54.1046 21.1788C53.892 22.1128 53.95 23.0726 53.8469 24.0131C53.7245 25.1919 53.5377 26.3514 52.8485 27.3627C52.1206 28.432 50.7356 28.8765 49.7565 28.374C49.0415 28.0069 49.0028 27.7621 49.589 27.2532C50.1237 26.7894 50.6068 26.2805 50.9611 25.6621C51.1092 25.4045 51.2896 25.1468 51.2574 24.799C50.2911 25.3594 49.7307 26.3063 48.9449 27.0728C48.7903 25.791 49.9819 24.4382 52.0046 23.633C50.4329 23.6459 49.3442 24.3158 48.436 25.3272C47.8305 25.9971 47.5986 26.7894 47.8433 27.6848C47.882 27.8265 47.9335 27.9553 47.8111 28.0906C47.5535 28.374 46.452 28.5995 46.1041 28.3998C45.5888 28.1035 45.6596 27.6204 45.7369 27.1372C45.8464 26.4738 46.1363 25.8811 46.4713 25.3078C47.0059 24.3931 47.6565 23.5686 48.3393 22.7634C48.8482 22.1643 49.3442 21.5524 49.6985 20.8438C50.0721 20.103 49.9046 19.5555 49.1768 19.0595C48.597 20.3414 48.3587 20.6828 47.7725 21.0564C47.7467 19.7101 47.2507 19.2205 45.8787 19.2012C45.1379 19.1883 44.4551 19.4138 43.8109 19.7745C42.7609 20.3543 41.8655 21.1466 41.1956 22.1128C40.487 23.137 39.5208 23.7296 38.4322 24.2063C35.8942 25.3207 33.3433 26.39 30.5219 26.5575C29.852 26.5962 29.182 26.5575 28.4864 26.5575C29.7876 27.0277 31.1274 27.0664 32.4737 27.0342C31.8489 27.2918 31.1983 27.3691 30.5477 27.4336C28.2029 27.659 25.9226 27.4593 23.8226 26.2483C21.6969 25.0244 20.7564 23.0146 21.1558 20.599C21.4135 19.0402 22.1543 17.7196 23.1527 16.5344C27.0821 11.8707 32.1774 10.1314 38.1423 10.6468C38.8638 10.7112 39.5723 10.8593 40.2551 11.1106C42.1683 11.832 42.748 13.3909 41.7689 15.1945C41.4597 15.7614 41.0603 16.2574 40.6159 16.7276C39.9395 17.4298 39.1858 18.0417 38.4 18.615C38.0843 18.8469 37.788 19.0981 37.4337 19.3816C37.7107 19.4395 37.8395 19.3172 37.9813 19.2463C39.8622 18.2994 41.4919 16.9982 43.0701 15.6326C43.7336 15.0593 44.2554 14.3636 44.5903 13.539C45.0863 12.3023 45.0992 11.0848 44.191 10.0413C43.083 8.76583 41.5306 8.46308 39.9524 8.26983C41.93 9.07503 43.6241 10.0992 43.6241 12.5857C43.2634 11.1621 42.2327 10.3891 40.9702 9.86734C40.4162 9.63544 39.8815 9.37134 39.3662 9.06858C38.4451 8.52105 37.5175 7.96707 36.5963 7.42598C33.9488 5.86711 31.1532 4.72695 28.0483 4.54659C24.0159 4.30825 20.5632 5.78337 17.497 8.27627C15.8866 9.58391 14.5918 11.1557 13.8253 13.1139C12.8784 15.5424 13.5483 18.2285 15.5388 19.7809C15.397 19.5297 15.3197 19.3687 15.2231 19.2205C13.7416 16.9595 13.748 14.9433 15.2553 12.7016C16.1571 11.3618 17.3102 10.2667 18.65 9.37778C22.5859 6.76249 26.9404 5.99595 31.559 6.56281C33.8458 6.84624 35.92 7.74806 37.9491 9.10723C36.4546 8.95908 35.1083 9.06858 33.762 9.24251C30.29 9.69342 27.0306 10.7498 24.164 12.8111C21.6583 14.6148 19.5648 16.8049 18.4117 19.7294C17.0461 23.1821 18.1798 26.3256 21.3297 27.9553C23.8742 29.2694 26.5861 29.6688 29.3946 29.1535C32.3449 28.6188 35.0825 27.4658 37.7558 26.1324C37.8524 26.0873 38.0006 26.0679 37.9619 25.8683H37.1052C37.1052 25.8683 37.0923 25.8167 37.0859 25.791C37.7687 25.514 38.4579 25.2434 39.2503 24.9278C38.9539 25.8618 38.6576 26.6541 38.6963 27.5109C38.7414 28.5029 39.3598 29.0246 40.3389 28.9022C41.3309 28.7799 42.2005 28.3676 42.9735 27.7556C43.4244 27.4014 43.8431 27.0149 44.294 26.6284C44.3133 28.0842 44.7707 28.7605 45.8722 28.9216C46.5293 29.0182 47.1348 28.7927 47.7209 28.5157C47.8755 28.4449 48.0366 28.2452 48.2234 28.4127C49.209 29.2952 50.362 29.1663 51.515 28.9538C53.834 28.5222 56.2496 26.5317 55.7536 23.5557C55.6377 22.8407 55.7085 22.1064 55.8373 21.3913C55.9984 20.4702 56.3398 19.6264 57.306 19.2463C57.7441 19.0788 58.2852 18.9951 58.6008 19.3236C58.8713 19.607 58.7425 20.1159 58.575 20.5024C58.4591 20.7665 58.3238 21.0242 58.1499 21.2561C57.8987 21.591 57.6088 21.8938 57.2416 22.3189C58.1756 22.0033 58.9164 21.6683 59.464 21.0113C60.0051 20.3607 59.9342 19.4009 59.29 19.0531L59.3094 19.0788ZM44.6741 25.1854C43.9333 26.3707 42.9348 27.3241 41.7238 28.0326C41.3567 28.2452 40.9444 28.374 40.5579 28.0906C40.1972 27.8265 40.2551 27.4078 40.3324 27.0599C40.6738 25.617 41.2214 24.2707 42.4517 23.3432C42.7094 23.1499 42.3744 23.0275 42.5483 22.8278C43.36 21.8874 44.133 20.9211 45.2281 20.2834C45.6081 20.0644 46.0075 19.9162 46.4584 19.9162C46.9544 19.9162 47.2121 20.1352 47.1541 20.6312C47.0768 21.3012 46.8578 21.9324 46.4197 22.5895C46.3682 21.9775 46.3553 21.4686 46.059 20.8309C45.9431 22.5057 45.4793 23.91 44.6805 25.1854H44.6741Z" fill="#66538E"/>
<path d="M46.0718 2.39532C42.3872 1.89932 38.7026 1.37755 35.0116 0.952408C30.451 0.43064 25.8774 0.076352 21.2781 0.011936C17.1555 -0.0460383 13.0522 0.0827937 9.00045 0.945967C6.84896 1.40332 4.76189 2.0668 2.96468 3.40021C1.16748 4.73362 0.233449 6.49862 0.31719 8.77894C0.362281 10.0222 0.774543 11.1623 1.10951 12.3347C1.29631 13.2881 1.81808 14.0933 2.28832 14.9113C3.46069 16.934 4.86495 18.8021 6.42382 20.5413C7.21613 21.4302 7.95048 22.3836 8.91027 23.1115C9.01978 23.2017 9.14217 23.279 9.23879 23.382C11.8798 26.0617 14.6819 28.5611 17.6064 30.9251C17.7353 31.0282 17.8319 31.215 18.1153 31.1699C16.1377 29.392 14.2504 27.6077 12.4531 25.7268C9.85719 23.002 7.39006 20.1677 5.50911 16.8825C4.76189 15.5748 4.0984 14.2221 3.78921 12.7276C3.68614 12.2188 3.75056 11.7034 3.69258 11.1881C3.46069 9.10102 4.12417 7.33603 5.67659 5.91888C5.7088 5.88667 5.74745 5.8609 5.7861 5.82225C5.68948 5.8609 5.58641 5.89311 5.4769 5.88023C6.514 4.75939 7.84097 4.08946 9.21947 3.52905C11.8025 2.47262 14.5209 1.9895 17.2715 1.66743C22.5471 1.05547 27.8292 1.17142 33.1178 1.44841C35.1791 1.55792 37.2339 1.77049 39.2953 1.93153C39.1085 2.12478 38.8637 2.0346 38.6511 2.0346C38.6253 2.0346 38.5931 2.0346 38.5674 2.0346C38.8186 2.05392 39.0634 2.07325 39.3146 2.09901C40.6802 2.26649 42.0523 2.28582 43.4243 2.39532C45.2924 2.51127 47.1282 2.84624 48.9899 3.04593C49.1122 3.08458 49.254 3.15543 49.2346 2.91709C48.1782 2.73673 47.1218 2.52416 46.0589 2.38244L46.0718 2.39532Z" fill="#66538E"/>
<path d="M110.803 50.3982C109.431 51.6478 107.969 52.7944 106.404 53.7864C105.277 54.5015 104.136 55.1971 103.003 55.8993C104.117 55.5579 105.212 55.1585 106.243 54.5981C106.449 54.1858 106.913 54.1472 107.254 53.9346C108.079 53.4257 108.91 52.9233 109.747 52.4401C109.876 52.3628 109.985 52.0987 110.204 52.3113C111.415 51.4868 112.401 50.4433 113.18 49.2129C113.825 48.1951 114.308 47.1065 114.295 45.8633C113.374 47.5574 112.233 49.097 110.81 50.3982H110.803Z" fill="#C2BAD2"/>
<path d="M86.5252 41.3473C85.4559 42.3844 84.3609 43.3893 83.2851 44.42C81.6554 45.9853 80.103 47.615 78.9886 49.6054C78.4604 50.5523 78.061 51.5444 78.061 52.6523C78.061 53.6508 78.6085 54.1918 79.607 54.1661C80.3928 54.1468 81.0885 53.8376 81.752 53.4446C81.9131 53.348 82.0419 53.1483 82.3382 53.2321C81.9195 53.844 81.5266 54.4237 81.1336 55.0035C81.0306 55.1581 80.8953 55.2032 80.7149 55.1967C79.0852 55.1516 77.5843 55.6734 76.1092 56.2789C74.4666 56.9617 72.9721 57.8829 71.4519 59.0166C72.0768 58.9908 72.5405 58.7332 73.1332 58.7718C72.4826 59.5513 71.8449 60.2019 71.5292 61.0844C70.8915 62.8429 72.051 64.5499 73.9062 64.6208C75.4199 64.6788 76.5537 63.938 77.6036 62.9975C78.7374 61.9862 79.6263 60.7687 80.5281 59.5513C81.7134 57.9409 82.918 56.3433 84.6185 55.0357C83.6909 55.2805 83.021 55.7765 82.2738 56.1372C82.3575 55.9182 82.4606 55.7443 82.5765 55.5768C83.91 53.5863 85.2498 51.5959 86.5768 49.599C87.0921 48.826 87.5881 48.0401 87.9553 47.177C88.2194 46.565 88.2065 45.9595 87.8007 45.412C87.6203 45.1736 87.5817 44.9482 87.6461 44.6647C87.7041 44.4071 87.7041 44.1365 87.7298 43.866C87.6912 43.866 87.6525 43.8595 87.6139 43.8531C87.5237 44.0785 87.4399 44.304 87.3498 44.5295C86.2032 47.5828 84.3673 50.1787 82.1256 52.5042C81.7649 52.8778 81.3655 53.2127 80.8631 53.3802C79.9355 53.683 79.388 53.2643 79.549 52.3367C79.7422 51.2352 80.3284 50.3076 80.9919 49.322C81.0563 49.7472 80.8051 50.0306 80.9533 50.3591C81.1465 50.0306 81.3011 49.6956 81.5201 49.3993C82.8535 47.6085 84.2449 45.8564 85.7136 44.1816C87.0212 42.6872 88.1228 41.0832 88.6574 39.1443C88.7089 38.9639 88.754 38.7836 88.7862 38.6032C88.8185 38.4228 88.8313 38.236 88.8507 38.0557C88.2902 39.3311 87.4786 40.394 86.5124 41.3344L86.5252 41.3473ZM80.5797 55.8602C79.272 57.6639 77.9644 59.474 76.6503 61.2712C75.9095 62.2889 74.9175 62.8944 73.6614 63.0684C72.5212 63.223 71.8255 62.4049 72.1863 61.3162C72.2958 60.9813 72.4632 60.6721 72.6823 60.3951C74.7629 57.754 77.5392 56.266 80.7471 55.4415C80.7858 55.6605 80.657 55.7507 80.5797 55.8602Z" fill="#66538E"/>
<path d="M75.7613 29.0826C75.0463 29.1341 74.4859 29.5206 73.8932 29.9458C73.6613 29.3725 73.2233 29.0246 72.5469 28.7412C72.9721 29.6366 72.6951 30.3065 72.27 30.9507C72.0445 31.2985 71.8062 31.6399 71.5421 31.9556C70.7884 32.8574 69.9703 33.7141 69.3648 34.7383C69.2553 34.9251 69.0749 35.0926 68.8881 35.215C68.4887 35.4791 68.0121 35.769 67.574 35.4534C67.1102 35.1184 67.3293 34.5837 67.4903 34.1457C67.8124 33.2374 68.4114 32.4902 69.0169 31.7559C69.4099 31.2792 69.8221 30.809 70.112 30.255C70.3826 29.7397 70.2859 29.3145 69.7706 28.9473C69.5452 29.5013 69.3261 30.0166 68.7786 30.3323C68.7335 29.4111 68.4436 29.1213 67.5612 29.0762C67.0329 29.0504 66.5176 29.1341 66.0731 29.4176C64.3532 30.5062 63.1422 32.0071 62.5432 33.9653C62.3692 34.5386 62.2146 35.1957 62.7557 35.6466C63.3097 36.104 63.9345 35.827 64.5143 35.5951C65.2164 35.3116 65.7575 34.8027 66.3179 34.2745C66.4145 35.6788 67.0394 36.3101 68.9976 35.5371C68.8817 36.1684 68.7722 36.7932 69.0298 37.534C69.4099 36.4711 69.7513 35.5435 70.4341 34.7963C71.5614 33.5531 72.6178 32.2583 73.5647 30.8734C73.9254 30.3452 74.4021 29.8943 75.0076 29.6366C75.2717 29.5271 75.5809 29.4498 75.8322 29.6752C76.0705 29.8878 75.9996 30.1841 75.9288 30.4354C75.7098 31.1632 75.3812 31.8396 74.9368 32.4258C74.75 32.3678 74.9432 32.1488 74.7693 32.1166C74.1895 33.1537 73.5389 34.1264 72.7337 35.0024C71.716 36.1168 71.0525 37.3987 70.9108 38.9254C71.3488 37.8689 72.0896 37.0444 72.8819 36.2457C74.0285 35.0862 75.246 33.9847 76.1864 32.6319C76.5794 32.0715 76.9465 31.4918 77.1527 30.8347C77.449 29.8685 76.7662 29.0182 75.7677 29.0891L75.7613 29.0826ZM65.3839 34.6288C65.1778 34.8027 64.9716 34.9702 64.7462 35.1184C64.4305 35.3181 64.0634 35.5306 63.7155 35.2665C63.387 35.0153 63.4901 34.6159 63.606 34.2874C64.2437 32.4902 65.3581 31.0344 66.859 29.8749C66.9234 29.8234 67.0007 29.7912 67.0716 29.7525C67.4323 29.5786 67.851 29.4047 68.186 29.6688C68.5467 29.9522 68.2633 30.3581 68.1667 30.6995C68.0958 30.9314 68.0314 31.1697 67.7802 31.3758C67.763 30.9206 67.6835 30.5728 67.5418 30.3323C67.3872 32.0522 66.698 33.5015 65.371 34.6288H65.3839Z" fill="#66538F"/>
<path d="M87.0212 22.6026C85.7715 25.2437 84.0323 27.5755 82.4799 30.0813C82.1771 29.1795 81.7971 28.9283 80.8952 28.9862C80.367 29.0249 79.8775 29.1924 79.4523 29.4951C77.9707 30.5258 76.895 31.885 76.2573 33.5727C76.1349 33.9012 76.0705 34.249 76.064 34.6033C76.0576 35.5696 76.5278 35.9367 77.4941 35.7306C78.5763 35.4987 79.3557 34.8094 80.0965 34.0493C80.2317 34.1975 80.1609 34.3457 80.1738 34.4809C80.2511 35.3183 80.7149 35.7886 81.5587 35.8723C82.7375 35.9883 84.5991 34.4423 84.7473 33.1926C84.3608 33.373 84.1353 33.6822 83.9099 33.9978C83.5105 34.5518 83.0918 35.0993 82.4863 35.4407C81.6682 35.9045 81.1529 35.5889 81.1787 34.6548C81.198 33.8754 81.5587 33.2313 81.9774 32.6064C83.4654 30.4163 84.9534 28.239 86.4286 26.0424C86.8086 25.4756 87.1758 24.8958 87.4785 24.2903C87.8328 23.5818 87.6589 23.0342 87.0212 22.5962V22.6026ZM81.5136 31.2601C80.8179 32.4583 80.0449 33.6049 79.0272 34.5582C78.7373 34.8288 78.4345 35.0736 78.0609 35.2153C77.4425 35.4536 77.1655 35.2475 77.1849 34.584C77.1849 34.1588 77.333 33.7724 77.5327 33.4116C78.2155 32.1491 79.098 31.0411 80.1802 30.0878C80.4894 29.8108 80.8501 29.5982 81.2624 29.508C81.7262 29.4114 81.971 29.6304 81.9388 30.1071C81.913 30.5322 81.7262 30.9058 81.5201 31.2601H81.5136Z" fill="#66538F"/>
</svg>
