<svg width="28" height="28" viewBox="0 0 28 28" fill="none" xmlns="http://www.w3.org/2000/svg">
<path d="M20.3813 27.2683H15.7395L13.6303 26.5728L11.5362 27.2683H6.89456C5.98852 27.2683 5.09132 27.0897 4.25434 26.7427C3.41736 26.3958 2.65698 25.8873 2.01666 25.2462C1.37635 24.6052 0.868642 23.8443 0.522603 23.0069C0.176564 22.1696 -0.000989322 21.2722 4.14611e-06 20.3662V6.90211C-0.000989322 5.99607 0.176564 5.09872 0.522603 4.26136C0.868642 3.424 1.37635 2.66306 2.01666 2.02204C2.65698 1.38102 3.41736 0.872494 4.25434 0.525537C5.09132 0.178581 5.98852 -5.44663e-07 6.89456 0H20.3586C21.265 0 22.1625 0.178526 22.9999 0.52539C23.8373 0.872254 24.5982 1.38066 25.2391 2.02158C25.88 2.6625 26.3884 3.42339 26.7353 4.26079C27.0822 5.0982 27.2607 5.99572 27.2607 6.90211V20.3662C27.2607 22.1928 26.5366 23.9449 25.2471 25.2387C23.9577 26.5324 22.2079 27.2623 20.3813 27.2683Z" fill="#878787"/>
<path d="M11.5438 10.6672V13.6382H8.12683V17.5315H11.5438V27.2685H15.7395V17.5315H18.8769L19.474 13.6382H15.7395V11.1132C15.7134 10.8224 15.7528 10.5294 15.855 10.2559C15.9571 9.98236 16.1194 9.73527 16.3299 9.53283C16.5403 9.33039 16.7934 9.17778 17.0707 9.08626C17.348 8.99473 17.6423 8.96663 17.9319 9.00402H19.6329V5.69282C18.6328 5.53043 17.622 5.44199 16.6089 5.42822C13.5548 5.43578 11.5438 7.2955 11.5438 10.6672Z" fill="white"/>
</svg>
