<svg width="232" height="54" viewBox="0 0 232 54" fill="none" xmlns="http://www.w3.org/2000/svg">
<path d="M43.9074 40.2406L35.2219 53.9935H34.0969L0 0H11.5321L34.6578 36.6257L38.1527 31.0915L43.9074 40.2406Z" fill="url(#paint0_linear_113_634)"/>
<path d="M86.0803 39.466C86.0609 43.0161 84.7414 46.5175 82.3098 49.2084C81.3274 50.2945 80.183 51.2347 78.9218 51.9836C77.4045 52.8849 75.7219 53.5106 73.9809 53.8024C73.5303 53.8802 73.0796 53.9321 72.6225 53.9678C72.5609 53.9743 61.3887 53.9937 58.0104 53.997L64.1055 44.2513H71.8736C72.3501 44.2513 72.8105 44.1832 73.245 44.0503C75.2064 43.457 76.6524 41.5279 76.6653 39.4595C76.6751 37.3748 75.2518 35.4717 73.2579 34.872C73.0245 34.8006 71.183 34.7293 70.0839 34.6936L75.8386 25.4829C76.7529 25.8071 78.2507 26.5528 78.4679 26.6695C79.5249 27.2434 80.5104 27.9469 81.3955 28.7639C83.2468 30.466 84.6441 32.6447 85.4092 35.0373C85.8728 36.4833 86.0933 37.9779 86.0836 39.4627L86.0803 39.466Z" fill="url(#paint1_linear_113_634)"/>
<path d="M80.9352 12.3624C80.9093 11.4027 80.7634 10.4463 80.5202 9.51908C79.1877 4.43227 74.8401 0.519084 69.5523 0.0587091C69.4777 0.0489829 38.6229 0.00683594 38.6229 0.00683594L54.9111 25.7586L60.6463 16.5771L56.3117 9.759C58.4547 9.759 68.8293 9.6747 69.4745 9.91462C71.0404 10.4885 71.5429 12.2165 70.7129 13.5944C70.3952 14.1228 63.6096 24.9773 59.116 32.1617L55.2191 38.3346L37.3034 9.96325H25.7713L53.5818 54.0004H56.8855L60.9965 47.4903L61.4633 46.7478C67.4255 37.3069 77.2003 21.8325 78.1146 20.3833C78.776 19.3328 79.4536 18.2889 79.9756 17.1607C80.6791 15.6563 80.9741 14.0126 80.9287 12.3689L80.9352 12.3624Z" fill="#4775FF"/>
<path d="M64.2742 22.3701L56.3117 9.76172H44.7828L58.539 31.5485L64.2742 22.3701Z" fill="url(#paint2_linear_113_634)"/>
<path d="M118.967 27.4201L114.071 12.6221H110.749L105.744 27.3372L100.936 12.6221H97.2L103.615 31.9797H107.459L112.33 17.6532L117.112 31.9797H120.931L127.345 12.6221H123.915L118.967 27.4201Z" fill="#5A5A5A"/>
<path d="M143.988 21.9123C145.48 21.1092 146.475 19.6428 146.475 17.6532C146.475 14.5858 143.988 12.6221 139.34 12.6221H130.267V31.9797H139.894C144.874 31.9797 147.47 30.0418 147.47 26.7258C147.47 24.2076 146.06 22.5755 143.983 21.9123H143.988ZM133.863 15.4407H138.951C141.439 15.4407 142.853 16.3267 142.853 18.1247C142.853 19.9226 141.444 20.7776 138.951 20.7776H133.863V15.4407ZM139.672 29.1558H133.863V23.5703H139.672C142.382 23.5703 143.848 24.4304 143.848 26.3631C143.848 28.2957 142.382 29.1558 139.672 29.1558Z" fill="#5A5A5A"/>
<path d="M156.459 15.6635H162.874V31.9797H166.47V15.6635H172.884V12.6221H156.459V15.6635Z" fill="#5A5A5A"/>
<path d="M179.19 23.6273H188.537V20.6687H179.19V15.6376H189.729V12.6221H175.594V31.9797H190.112V28.9641H179.19V23.6273Z" fill="#5A5A5A"/>
<path d="M203.273 15.4987C205.294 15.4987 207.035 16.2448 208.444 17.7682L210.765 15.5816C208.967 13.478 206.257 12.3433 203.102 12.3433C197.154 12.3433 192.729 16.5194 192.729 22.2967C192.729 28.0739 197.154 32.2553 203.071 32.2553C206.252 32.2553 208.962 31.1205 210.76 29.0169L208.439 26.8045C207.029 28.3537 205.289 29.0998 203.268 29.0998C199.257 29.0998 196.356 26.2811 196.356 22.2967C196.356 18.3122 199.257 15.4935 203.268 15.4935L203.273 15.4987Z" fill="#5A5A5A"/>
<path d="M227.833 12.6221V20.6169H217.822V12.6221H214.226V31.9797H217.822V23.6843H227.833V31.9797H231.429V12.6221H227.833Z" fill="#5A5A5A"/>
<path d="M97.6566 37.2754C97.6566 36.7647 98.0592 36.3501 98.9605 36.3501C99.3751 36.3501 99.8438 36.4763 100.228 36.7407L100.355 36.4703C100 36.2119 99.4713 36.0557 98.9605 36.0557C97.8249 36.0557 97.3202 36.6325 97.3202 37.2874C97.3202 38.9939 100.21 38.1587 100.21 39.5467C100.21 40.0515 99.8018 40.454 98.8764 40.454C98.2575 40.454 97.6687 40.2017 97.3502 39.8712L97.2 40.1236C97.5365 40.4961 98.1974 40.7485 98.8884 40.7485C100.03 40.7485 100.553 40.1776 100.553 39.5227C100.553 37.8463 97.6627 38.6634 97.6627 37.2754H97.6566Z" fill="#5A5A5A"/>
<path d="M107.619 36.0557C106.237 36.0557 105.216 37.0591 105.216 38.4051C105.216 39.751 106.243 40.7545 107.619 40.7545C108.995 40.7545 110.023 39.757 110.023 38.4051C110.023 37.0531 108.989 36.0557 107.619 36.0557ZM107.619 40.436C106.435 40.436 105.552 39.5708 105.552 38.3991C105.552 37.2274 106.435 36.3621 107.619 36.3621C108.803 36.3621 109.68 37.2274 109.68 38.3991C109.68 39.5708 108.797 40.436 107.619 40.436Z" fill="#5A5A5A"/>
<path d="M115.16 40.7117H115.496V38.6687H117.96V38.3683H115.496V36.3914H118.248V36.085H115.16V40.7117Z" fill="#5A5A5A"/>
<path d="M122.545 36.3914H124.215V40.7117H124.552V36.3914H126.216V36.085H122.545V36.3914Z" fill="#5A5A5A"/>
<path d="M135.427 40.255L133.991 36.085H133.667L132.219 40.249L130.807 36.085H130.452L132.026 40.7117H132.381L133.823 36.5597L135.259 40.7117H135.614L137.182 36.085H136.851L135.427 40.255Z" fill="#5A5A5A"/>
<path d="M143.335 36.085L141.208 40.7117H141.568L142.157 39.4078H144.843L145.438 40.7117H145.798L143.671 36.085H143.335ZM142.289 39.1254L143.497 36.4575L144.711 39.1254H142.283H142.289Z" fill="#5A5A5A"/>
<path d="M154.126 37.6472C154.126 36.6678 153.423 36.085 152.264 36.085H150.605V40.7117H150.942V39.1975H152.264C152.42 39.1975 152.57 39.1855 152.714 39.1674L153.82 40.7117H154.205L153.045 39.0893C153.73 38.885 154.126 38.3743 154.126 37.6412V37.6472ZM152.264 38.903H150.942V36.3914H152.264C153.255 36.3914 153.784 36.8481 153.784 37.6472C153.784 38.4464 153.255 38.903 152.264 38.903Z" fill="#5A5A5A"/>
<path d="M159.667 38.5125H162.13V38.212H159.667V36.3914H162.425V36.085H159.33V40.7117H162.521V40.4112H159.667V38.5125Z" fill="#5A5A5A"/>
<path d="M175.349 36.3618C175.89 36.3618 176.377 36.518 176.773 36.9086L176.984 36.6923C176.581 36.2596 175.992 36.0493 175.337 36.0493C173.961 36.0493 172.94 37.0468 172.94 38.3987C172.94 39.7507 173.967 40.7481 175.337 40.7481C175.992 40.7481 176.581 40.5318 176.984 40.0992L176.773 39.8829C176.377 40.2734 175.896 40.4357 175.349 40.4357C174.166 40.4357 173.27 39.5644 173.27 38.3987C173.27 37.233 174.166 36.3618 175.349 36.3618Z" fill="#5A5A5A"/>
<path d="M183.942 36.0557C182.56 36.0557 181.538 37.0591 181.538 38.4051C181.538 39.751 182.566 40.7545 183.942 40.7545C185.318 40.7545 186.345 39.757 186.345 38.4051C186.345 37.0531 185.312 36.0557 183.942 36.0557ZM183.942 40.436C182.758 40.436 181.875 39.5708 181.875 38.3991C181.875 37.2274 182.758 36.3621 183.942 36.3621C185.125 36.3621 186.003 37.2274 186.003 38.3991C186.003 39.5708 185.119 40.436 183.942 40.436Z" fill="#5A5A5A"/>
<path d="M195.905 36.085L193.838 39.6602L191.771 36.085H191.483V40.7117H191.813V36.7639L193.754 40.0988H193.916L195.857 36.7519L195.863 40.7117H196.193L196.187 36.085H195.905Z" fill="#5A5A5A"/>
<path d="M203.428 36.085H201.77V40.7117H202.106V39.1975H203.428C204.594 39.1975 205.291 38.6146 205.291 37.6472C205.291 36.6798 204.588 36.085 203.428 36.085ZM203.428 38.8971H202.106V36.3914H203.428C204.419 36.3914 204.948 36.8481 204.948 37.6472C204.948 38.4464 204.419 38.8971 203.428 38.8971Z" fill="#5A5A5A"/>
<path d="M211.522 36.085L209.395 40.7117H209.761L210.35 39.4078H213.036L213.631 40.7117H213.997L211.87 36.085H211.534H211.522ZM210.476 39.1254L211.684 36.4575L212.898 39.1254H210.47H210.476Z" fill="#5A5A5A"/>
<path d="M222.217 40.1048L219.075 36.085H218.786V40.7117H219.129V36.6918L222.277 40.7117H222.56V36.085H222.217V40.1048Z" fill="#5A5A5A"/>
<path d="M231.074 36.085L229.404 38.8069L227.733 36.085H227.361L229.223 39.1194V40.7117H229.566V39.1194L231.429 36.085H231.074Z" fill="#5A5A5A"/>
<defs>
<linearGradient id="paint0_linear_113_634" x1="12.3977" y1="29.2111" x2="35.1279" y2="19.5627" gradientUnits="userSpaceOnUse">
<stop offset="0.65" stop-color="#4775FF"/>
<stop offset="1" stop-color="#314A95"/>
</linearGradient>
<linearGradient id="paint1_linear_113_634" x1="67.0266" y1="39.5632" x2="82.54" y2="49.2603" gradientUnits="userSpaceOnUse">
<stop stop-color="#314A95"/>
<stop offset="0.48" stop-color="#4775FF"/>
</linearGradient>
<linearGradient id="paint2_linear_113_634" x1="43.4374" y1="11.9145" x2="63.1233" y2="24.2149" gradientUnits="userSpaceOnUse">
<stop offset="0.78" stop-color="#4775FF"/>
<stop offset="1" stop-color="#314A95"/>
</linearGradient>
</defs>
</svg>
