<svg width="28" height="28" viewBox="0 0 28 28" fill="none" xmlns="http://www.w3.org/2000/svg">
<path d="M20.3743 0H6.91023C3.0983 0 0.00811768 3.09018 0.00811768 6.90212V20.3662C0.00811768 24.1781 3.0983 27.2683 6.91023 27.2683H20.3743C24.1862 27.2683 27.2764 24.1781 27.2764 20.3662V6.90212C27.2764 3.09018 24.1862 0 20.3743 0Z" fill="#878787"/>
<path d="M17.8189 8.58789C17.5743 8.58789 17.3397 8.68506 17.1668 8.85803C16.9938 9.03099 16.8967 9.26558 16.8967 9.51019C16.8967 9.7555 16.9936 9.99087 17.1663 10.165C17.3391 10.3392 17.5736 10.4381 17.8189 10.44C18.0656 10.44 18.3021 10.3421 18.4765 10.1677C18.6508 9.99332 18.7489 9.7568 18.7489 9.51019C18.7469 9.26489 18.648 9.03031 18.4738 8.85756C18.2996 8.68481 18.0643 8.58788 17.8189 8.58789Z" fill="white"/>
<path d="M13.7063 9.7749C12.6751 9.7749 11.6859 10.184 10.956 10.9125C10.2261 11.6411 9.81499 12.6294 9.81299 13.6607C9.81499 14.6926 10.2258 15.6817 10.9555 16.4114C11.6852 17.1411 12.6744 17.552 13.7063 17.554C14.7376 17.552 15.7259 17.1409 16.4544 16.411C17.1829 15.681 17.5921 14.6919 17.5921 13.6607C17.5901 12.6307 17.18 11.6435 16.4517 10.9152C15.7234 10.1869 14.7363 9.7769 13.7063 9.7749ZM13.7063 16.1554C13.0447 16.1554 12.4101 15.8926 11.9422 15.4247C11.4744 14.9568 11.2115 14.3223 11.2115 13.6607C11.2135 13.0003 11.4773 12.3677 11.9449 11.9015C12.4125 11.4353 13.046 11.1735 13.7063 11.1735C14.366 11.1735 14.9986 11.4355 15.465 11.9019C15.9315 12.3684 16.1935 13.001 16.1935 13.6607C16.1945 13.9879 16.1309 14.3121 16.0064 14.6148C15.8818 14.9174 15.6988 15.1925 15.4677 15.4242C15.2367 15.656 14.9621 15.8399 14.6599 15.9653C14.3576 16.0908 14.0336 16.1554 13.7063 16.1554Z" fill="white"/>
<path d="M16.7908 21.5605H10.4859C9.22811 21.5585 8.02246 21.0575 7.13375 20.1673C6.24505 19.2772 5.74591 18.0708 5.74591 16.813V10.5081C5.74791 9.25156 6.24794 8.04708 7.13643 7.15859C8.02492 6.2701 9.22942 5.77007 10.4859 5.76807H16.7908C18.048 5.77006 19.2533 6.26985 20.143 7.15813C21.0327 8.0464 21.5344 9.25087 21.5384 10.5081V16.813C21.5364 18.0715 21.0356 19.2779 20.1457 20.1678C19.2557 21.0577 18.0493 21.5585 16.7908 21.5605ZM10.4859 7.25735C9.62309 7.25735 8.7955 7.59959 8.18467 8.20901C7.57384 8.81842 7.22961 9.64524 7.22761 10.5081V16.813C7.2296 17.6765 7.5736 18.5041 8.18421 19.1147C8.79483 19.7253 9.6224 20.0693 10.4859 20.0712H16.7908C17.6549 20.0712 18.4837 19.728 19.0947 19.1169C19.7058 18.5059 20.0491 17.6771 20.0491 16.813V10.5081C20.0471 9.64524 19.703 8.81842 19.0922 8.20901C18.4813 7.59959 17.6536 7.25735 16.7908 7.25735H10.4859Z" fill="white"/>
</svg>
