<svg width="190" height="65" viewBox="0 0 190 65" fill="none" xmlns="http://www.w3.org/2000/svg">
<path d="M89.6869 58.1351H93.9963V59.0434H90.6273V60.8277H93.1846V61.736H90.6273V64.6411H89.6804V58.1287L89.6869 58.1351ZM103.704 62.058C103.704 62.5991 103.556 63.0436 103.253 63.3721C102.95 63.7006 102.564 63.8681 102.061 63.8681C101.739 63.8681 101.449 63.7908 101.204 63.6491C100.96 63.501 100.766 63.2948 100.631 63.0243C100.489 62.7473 100.419 62.4252 100.419 62.0645V58.1415H99.4716V62.0645C99.4716 62.5605 99.5747 63.0178 99.7873 63.4236C99.9999 63.8295 100.303 64.1516 100.689 64.3834C101.076 64.6153 101.533 64.7313 102.042 64.7313C102.551 64.7313 102.995 64.6218 103.388 64.3963C103.781 64.1709 104.097 63.8552 104.316 63.4559C104.535 63.0565 104.651 62.5862 104.651 62.0645V58.1415H103.704V62.0645V62.058ZM115.092 63.8037C115.041 63.8617 114.97 63.8874 114.899 63.8359C114.867 63.8166 114.828 63.7715 114.777 63.7135C114.712 63.6362 114.448 63.2755 113.972 62.6313L113.63 62.1675C113.527 62.0387 113.437 61.955 113.347 61.8906C113.476 61.8777 113.579 61.8648 113.656 61.839C113.978 61.7488 114.255 61.5363 114.474 61.2013C114.693 60.8728 114.803 60.4992 114.803 60.0933C114.803 59.7519 114.719 59.4299 114.558 59.1336C114.397 58.8372 114.165 58.5925 113.881 58.4121C113.592 58.2317 113.27 58.1415 112.922 58.1415H110.712V64.654H111.659V59.0369H112.889C113.173 59.0369 113.405 59.14 113.585 59.3526C113.766 59.5651 113.862 59.8486 113.862 60.19C113.862 60.5314 113.772 60.7955 113.579 60.9952C113.392 61.1884 113.128 61.285 112.793 61.285H111.814V62.1804H111.904C112.11 62.1869 112.284 62.2191 112.426 62.2835C112.561 62.3415 112.67 62.4123 112.754 62.4961C112.838 62.5862 112.941 62.7086 113.051 62.8568L114.12 64.319C114.332 64.6025 114.622 64.7442 114.97 64.7442C115.241 64.7442 115.447 64.6733 115.576 64.5316L115.621 64.4801L115.196 63.7328L115.105 63.823L115.092 63.8037ZM125.521 62.947L121.599 58.0449H121.135V64.6476H122.082V60.3768L122.062 60.0998L122.23 60.3188L125.373 64.0936L125.934 64.6476H126.455V58.1287H125.521V62.947ZM132.646 64.6476H133.593V58.1351H132.646V64.6476ZM139.197 59.0305H141.284V64.6476H142.231V59.0305H144.318V58.1415H139.197V59.0305ZM154.013 62.0645C154.013 62.6056 153.864 63.05 153.562 63.3786C153.259 63.7071 152.872 63.8746 152.37 63.8746C152.048 63.8746 151.758 63.7973 151.513 63.6555C151.268 63.5074 151.075 63.3013 150.94 63.0307C150.798 62.7537 150.727 62.4316 150.727 62.0709V58.148H149.78V62.0709C149.78 62.5669 149.884 63.0243 150.096 63.4301C150.309 63.8359 150.605 64.158 150.998 64.3899C151.384 64.6218 151.842 64.7377 152.351 64.7377C152.86 64.7377 153.304 64.6282 153.697 64.4028C154.09 64.1773 154.406 63.8617 154.625 63.4623C154.844 63.0565 154.959 62.5927 154.959 62.0709V58.148H154.013V62.0709V62.0645ZM165.395 63.8101C165.343 63.8617 165.279 63.8939 165.202 63.8424C165.169 63.823 165.131 63.7779 165.079 63.72C165.015 63.6427 164.751 63.2819 164.274 62.6378L163.933 62.174C163.836 62.0516 163.739 61.955 163.649 61.897C163.778 61.8841 163.881 61.8712 163.958 61.8455C164.28 61.7553 164.557 61.5427 164.776 61.2077C164.995 60.8792 165.105 60.5056 165.105 60.0998C165.105 59.7584 165.021 59.4363 164.86 59.14C164.699 58.8437 164.467 58.5989 164.184 58.4185C163.894 58.2382 163.572 58.148 163.224 58.148H161.015V64.6604H161.962V59.0434H163.192C163.475 59.0434 163.707 59.1464 163.888 59.359C164.068 59.5716 164.165 59.855 164.165 60.1964C164.165 60.5378 164.074 60.8019 163.881 61.0016C163.694 61.1949 163.424 61.2915 163.095 61.2915H162.116V62.1869H162.213C162.419 62.1933 162.593 62.2255 162.735 62.2899C162.87 62.3479 162.979 62.4188 163.063 62.5025C163.147 62.5927 163.25 62.7086 163.366 62.8632L164.435 64.3255C164.648 64.6089 164.938 64.7506 165.285 64.7506C165.556 64.7506 165.762 64.6798 165.891 64.538L165.936 64.4865L165.504 63.7393L165.414 63.8295L165.395 63.8101ZM172.365 61.6522H174.858V60.7633H172.365V59.0305H175.747V58.1415H171.437V64.654H175.92V63.7651H172.365V61.6587V61.6522Z" fill="#42392B"/>
<path d="M84.7785 15.9622L84.9138 16.0008V17.2118L84.6754 17.1474C84.0184 16.9735 83.5288 17.1281 83.1938 17.6241C82.8331 18.1523 82.6463 18.9189 82.6463 19.9044V45.8962C82.6463 46.1088 82.6592 46.2892 82.6914 46.4373C82.7236 46.6177 82.7429 46.7787 82.7429 46.9333C82.7429 47.0364 82.7687 47.1266 82.8267 47.2103C82.9233 47.3456 82.9813 47.468 83.0006 47.5711C83.0006 47.5775 83.0135 47.6226 83.1165 47.6934C83.2389 47.7836 83.3227 47.848 83.3549 47.8802C83.3549 47.8802 83.4 47.9189 83.6126 48.0155C83.78 48.0928 83.8831 48.1379 83.9282 48.1508C83.9797 48.1701 84.1085 48.2152 84.3211 48.299C84.5015 48.3698 84.6303 48.4213 84.7076 48.4536H84.9073V49.7161L84.669 49.6517C83.7349 49.4005 82.3114 49.4133 80.4433 49.6839C79.5028 49.8192 78.6847 49.8836 77.9762 49.8836C77.2161 49.8836 76.5783 49.8063 76.063 49.6517L75.9277 49.613V48.402L76.1661 48.4664C76.8231 48.6404 77.2998 48.4922 77.6283 48.0155C77.9762 47.5002 78.1501 46.7272 78.1501 45.7094V19.7176C78.1501 19.4986 78.1436 19.3118 78.1243 19.1572L78.0792 18.6998C78.0663 18.5839 78.0341 18.4744 77.9826 18.3842C77.9117 18.2618 77.8602 18.1587 77.828 18.0686C77.8151 18.0428 77.7829 17.9913 77.6798 17.914C77.551 17.8238 77.4737 17.7594 77.4351 17.7207C77.4351 17.7207 77.39 17.6885 77.1967 17.5919C77.0486 17.5146 76.9519 17.4695 76.9069 17.4566C76.8618 17.4437 76.72 17.3922 76.4946 17.3085C76.2498 17.2247 76.1081 17.1667 76.0372 17.1281L75.9342 17.0766V15.8913L76.1725 15.9557C77.1065 16.2069 78.5301 16.1941 80.3982 15.93C82.3178 15.653 83.7929 15.6659 84.7785 15.9622ZM100.915 46.3794C100.998 46.1668 101.056 46.0122 101.089 45.9156L101.127 45.7932L100.122 44.9236L100.006 45.1361C99.227 46.5726 98.2221 47.5775 97.0304 48.1186C95.8516 48.6532 94.8145 48.7112 93.9577 48.2925C93.101 47.8738 92.6888 47.1266 92.6888 45.9993V45.1619L92.6437 44.6981L92.5986 28.6135L100.522 27.7954V26.4169H92.5986V20.6194H91.394L91.3231 20.6323C91.1685 20.6967 90.9044 20.948 90.0219 22.378C89.3842 23.4151 88.6241 24.4264 87.7738 25.3927C86.9493 26.3267 86.1505 26.8034 85.4033 26.8034H85.2101V28.1368L85.384 28.1561C85.7447 28.1883 86.099 28.1947 86.4275 28.1819C86.7303 28.169 87.033 28.1754 87.3165 28.2012C87.5806 28.2334 87.8189 28.2978 88.025 28.4009C88.2054 28.4911 88.3536 28.6714 88.4631 28.9291C88.579 29.2125 88.6434 29.5861 88.6434 30.037V46.4438C88.6434 47.7707 89.2361 48.7821 90.4084 49.4584C91.5422 50.1155 93.1783 50.4504 95.2654 50.4504C96.0964 50.4504 96.8693 50.283 97.5715 49.948C98.2607 49.6195 98.8147 49.2459 99.2205 48.8465C99.6135 48.4536 99.9806 47.9962 100.309 47.4873C100.644 46.972 100.844 46.6113 100.934 46.3858L100.915 46.3794ZM121.496 48.4471C120.723 49.5744 119.821 50.1477 118.822 50.1477H118.726C117.624 50.1477 116.716 49.8707 116.027 49.3361C115.382 48.8336 115.028 48.1186 114.97 47.2168C113.74 48.3634 112.168 49.1879 110.3 49.6839C109.128 49.9931 108.084 50.1477 107.182 50.1477C106.519 50.1477 105.939 50.0639 105.43 49.8965C104.464 49.5615 103.691 49.0269 103.143 48.3118C102.577 47.5775 102.409 46.6241 102.647 45.4775C102.847 44.3825 103.427 43.3454 104.367 42.3856C105.295 41.4451 106.351 40.6592 107.504 40.0537C108.651 39.4546 109.811 38.9329 110.957 38.5013C112.104 38.0633 113.076 37.7541 113.856 37.5737C114.455 37.4384 114.777 37.374 114.964 37.3547V34.9842C114.964 34.0502 114.803 33.1677 114.494 32.3753C114.184 31.5895 113.766 30.9517 113.244 30.4944C112.735 30.0435 112.194 29.818 111.633 29.818C110.629 29.818 109.546 30.3527 108.432 31.4091C107.318 32.4591 106.751 33.6637 106.751 34.9906C106.751 35.8023 106.545 36.4851 106.132 37.0133C105.714 37.5544 104.921 37.8765 103.775 37.9795H102.796V36.9682C102.796 34.8618 103.749 32.9358 105.636 31.2481C107.517 29.5668 109.534 28.7101 111.633 28.7101C112.844 28.7101 113.933 28.884 114.886 29.2318C115.846 29.5797 116.619 30.0564 117.18 30.6554C117.74 31.2481 118.178 31.918 118.474 32.6459C118.771 33.3738 118.925 34.1661 118.925 34.9906V45.3745C118.925 46.3665 119.46 46.8238 120.619 46.8238C120.967 46.8238 121.309 46.5984 121.624 46.1539C121.959 45.6837 122.178 45.149 122.269 44.5693L122.649 44.6015V45.0846C122.649 46.2119 122.262 47.3456 121.502 48.4536L121.496 48.4471ZM114.964 38.6301C114.861 38.643 114.661 38.6817 114.294 38.7912C113.759 38.9458 113.089 39.2034 112.316 39.5577C111.537 39.9056 110.745 40.3243 109.972 40.8009C109.205 41.2712 108.484 41.8767 107.839 42.5981C107.202 43.3132 106.789 44.0475 106.603 44.7883C106.242 46.1088 106.738 46.9977 108.123 47.5066C109.643 48.0993 111.286 47.9704 112.999 47.1266C113.785 46.7336 114.448 46.2183 114.97 45.587V38.6301H114.964ZM131.3 48.0928C130.913 47.906 130.649 47.7514 130.52 47.6355C130.436 47.5582 130.288 47.3778 130.082 46.9655C129.921 46.6435 129.837 46.2119 129.837 45.6966L129.741 14.7318V14.5386H128.536L128.478 14.5515C127.995 14.7125 127.171 15.0346 126.03 15.5113C125.94 15.5177 125.882 15.5563 125.844 15.595C124.162 16.2456 122.829 16.5741 121.869 16.5741H121.676V17.7658L121.85 17.7787C122.211 17.8109 122.591 17.8173 122.964 17.8045C123.325 17.7916 123.679 17.798 124.027 17.8302C124.362 17.8624 124.678 17.9204 124.948 18.017C125.199 18.1008 125.399 18.2489 125.554 18.4744C125.708 18.6998 125.786 19.0026 125.786 19.3826V45.7094C125.786 46.7272 125.605 47.5002 125.238 48.0155C124.897 48.4922 124.414 48.6468 123.75 48.4729L123.512 48.4085V49.6195L123.647 49.6646C124.143 49.8192 124.761 49.8965 125.502 49.8965C126.191 49.8965 126.977 49.8321 127.866 49.6968C129.651 49.4262 131.016 49.4198 131.918 49.6646L132.163 49.729V48.5566L132.079 48.4986C132.015 48.4536 131.86 48.3634 131.306 48.0993L131.3 48.0928ZM137.761 24.9546C138.488 24.9546 139.12 24.6905 139.635 24.1752C140.15 23.6599 140.414 23.0157 140.414 22.2749C140.414 21.5341 140.15 20.8964 139.635 20.3747C139.113 19.8529 138.488 19.5952 137.761 19.5952C137.033 19.5952 136.401 19.8593 135.886 20.3747C135.371 20.89 135.107 21.5277 135.107 22.2749C135.107 23.0221 135.371 23.6534 135.886 24.1752C136.401 24.697 137.033 24.9546 137.761 24.9546ZM142.347 49.6581L142.592 49.729V48.5502L142.508 48.4922C142.405 48.4213 142.147 48.2925 141.735 48.0928C141.342 47.906 141.072 47.7514 140.93 47.629C140.833 47.5517 140.679 47.3778 140.472 46.972C140.311 46.6499 140.228 46.2183 140.228 45.703L140.183 26.2365V26.0433H138.92C138.688 26.1206 138.405 26.2172 138.083 26.346C137.761 26.4748 137.213 26.681 136.421 26.9837L135.442 27.4153C135.074 27.5764 134.791 27.6987 134.598 27.776C134.417 27.8533 134.179 27.9242 133.883 27.9822C133.593 28.0401 133.29 28.0724 132.981 28.0724H132.788V29.2576L132.962 29.2769C133.322 29.3091 133.67 29.3156 134.005 29.3027C134.314 29.2898 134.611 29.2963 134.894 29.322C135.165 29.3542 135.409 29.4058 135.622 29.4831C135.802 29.5475 135.938 29.6828 136.047 29.8953C136.163 30.1272 136.221 30.4557 136.221 30.8744V45.7996C136.221 46.753 136.047 47.5002 135.699 48.0091C135.377 48.4858 134.9 48.6339 134.237 48.46L133.999 48.3956V49.6066L134.134 49.6452C134.701 49.8127 135.351 49.9029 136.066 49.9029C136.182 49.9029 136.305 49.9029 136.421 49.8965C136.839 49.8643 137.458 49.7934 138.269 49.6775C139.068 49.5679 139.68 49.4906 140.092 49.4584C140.936 49.394 141.696 49.4584 142.347 49.6452V49.6581ZM160.416 50.1477H160.319C159.218 50.1477 158.309 49.8707 157.614 49.3361C156.969 48.8336 156.615 48.1186 156.557 47.2168C155.327 48.3634 153.755 49.1879 151.887 49.6839C150.715 49.9931 149.671 50.1477 148.769 50.1477C148.106 50.1477 147.526 50.0639 147.017 49.8965C146.051 49.5615 145.278 49.0269 144.73 48.3118C144.164 47.5775 143.996 46.6241 144.234 45.4775C144.434 44.3825 145.014 43.3454 145.954 42.3856C146.882 41.4451 147.938 40.6592 149.091 40.0537C150.238 39.4546 151.397 38.9329 152.544 38.5013C153.691 38.0633 154.67 37.7541 155.443 37.5737C156.042 37.4384 156.364 37.374 156.551 37.3547V34.9842C156.551 34.0502 156.39 33.1677 156.08 32.3753C155.771 31.5895 155.353 30.9517 154.831 30.4944C154.322 30.0435 153.781 29.818 153.22 29.818C152.215 29.818 151.133 30.3527 150.019 31.4091C148.905 32.4591 148.338 33.6637 148.338 34.9906C148.338 35.8023 148.132 36.4851 147.719 37.0133C147.301 37.5544 146.508 37.8765 145.362 37.9795H144.383V36.9682C144.383 34.8618 145.336 32.9358 147.223 31.2481C149.104 29.5668 151.12 28.7101 153.22 28.7101C154.425 28.7101 155.52 28.884 156.473 29.2318C157.433 29.5797 158.206 30.0564 158.767 30.6554C159.327 31.2481 159.765 31.918 160.061 32.6459C160.358 33.3738 160.512 34.1661 160.512 34.9906V45.3745C160.512 46.3665 161.047 46.8238 162.206 46.8238C162.561 46.8238 162.889 46.6048 163.211 46.1539C163.546 45.6772 163.765 45.149 163.855 44.5693L164.235 44.6015V45.0846C164.235 46.2119 163.849 47.3456 163.089 48.4536C162.316 49.5808 161.414 50.1541 160.422 50.1541L160.416 50.1477ZM156.551 38.6301C156.448 38.643 156.248 38.6817 155.881 38.7912C155.346 38.9458 154.683 39.2034 153.903 39.5577C153.124 39.9056 152.331 40.3243 151.558 40.8009C150.792 41.2712 150.07 41.8767 149.426 42.5981C148.789 43.3132 148.376 44.0475 148.189 44.7883C147.829 46.1088 148.331 46.9977 149.716 47.5066C151.236 48.0993 152.873 47.9704 154.586 47.1266C155.372 46.7336 156.035 46.2183 156.557 45.587V38.6301H156.551ZM189.641 48.4536C189.499 48.3505 189.293 48.2345 189.003 48.0928C188.739 47.9704 188.527 47.8545 188.366 47.7643C188.224 47.6806 188.069 47.5453 187.902 47.3649C187.741 47.191 187.618 46.9655 187.535 46.6886C187.445 46.4051 187.399 46.0573 187.399 45.6579L187.354 34.5462C187.354 31.7827 186.498 29.8438 184.804 28.7809C184.43 28.5426 184.018 28.3751 183.592 28.272C182.079 27.8469 180.224 28.0595 178.085 28.9033C176.056 29.7085 173.879 31.0935 171.611 33.0131V28.0208H170.407L170.342 28.0337C169.885 28.1947 169.054 28.5233 167.856 29.0064L167.772 29.0515C167.611 29.1159 167.431 29.1868 167.237 29.2705C167.044 29.3542 166.87 29.4251 166.728 29.4895C166.587 29.5539 166.439 29.6183 166.277 29.6828C166.116 29.7472 165.975 29.7987 165.846 29.8502C165.724 29.8953 165.582 29.934 165.44 29.9597C165.279 29.992 165.112 30.0242 164.938 30.0564C164.777 30.0886 164.603 30.1015 164.416 30.1015H164.223V31.2287L164.377 31.2545C164.751 31.3254 165.112 31.3382 165.447 31.306C165.756 31.2738 166.046 31.2867 166.316 31.3254C166.593 31.3705 166.838 31.4349 167.057 31.5122C167.237 31.5766 167.373 31.7119 167.482 31.9244C167.598 32.1563 167.656 32.4848 167.656 32.9035V45.7545C167.656 46.7401 167.482 47.5002 167.134 48.0155C166.812 48.4922 166.335 48.6404 165.678 48.4664L165.44 48.402V49.613L165.575 49.6517C166.142 49.8192 166.793 49.9094 167.508 49.9094C167.624 49.9094 167.746 49.9094 167.862 49.9029C168.281 49.8707 168.899 49.7998 169.711 49.6839C170.51 49.5744 171.102 49.4971 171.469 49.4649H171.534C172.378 49.4005 173.131 49.4649 173.788 49.6517L174.033 49.7225V48.5437L173.949 48.4858C173.885 48.4407 173.73 48.3505 173.176 48.0864C172.783 47.8996 172.513 47.745 172.365 47.6226C172.23 47.5131 172.075 47.2941 171.907 46.9655C171.746 46.6435 171.663 46.2119 171.663 45.6966L171.618 35.0615C172.932 33.9406 174.226 33.0517 175.476 32.414C176.739 31.7634 177.853 31.3769 178.794 31.2481C179.728 31.1192 180.552 31.1708 181.248 31.3833C181.937 31.5959 182.446 31.9695 182.813 32.5171C183.174 33.0581 183.361 33.7216 183.361 34.4882V45.7867C183.328 46.7401 183.135 47.4809 182.794 47.9769C182.472 48.4407 182.008 48.5824 181.383 48.4085L181.138 48.344V49.5615L181.274 49.6002C181.937 49.7998 182.71 49.8643 183.554 49.7998C183.979 49.7998 184.617 49.7354 185.441 49.6066C186.259 49.4778 186.878 49.4005 187.277 49.3683C188.089 49.336 188.836 49.4133 189.487 49.6002L189.731 49.671V48.4986L189.654 48.4407L189.641 48.4536Z" fill="#42392B"/>
<path d="M53.4983 13.785L36.5892 0.88894C35.0367 -0.296313 32.9432 -0.296313 31.3908 0.88894L14.4752 13.785C12.9228 14.9703 12.2786 17.0638 12.8712 18.9769L19.3321 39.8412C19.9248 41.7608 21.6189 43.0556 23.5449 43.0556H44.4415C46.361 43.0556 48.0552 41.7608 48.6543 39.8412L55.1152 18.9769C55.7078 17.0638 55.0572 14.9638 53.5112 13.785H53.4983ZM24.0281 21.5729C23.7253 20.5938 24.0603 19.5309 24.8461 18.9254L32.6598 12.9669C32.7629 12.8832 32.8788 12.8123 32.9947 12.7544V23.9498H24.7624L24.0281 21.5729ZM27.0105 31.216L25.3937 25.9918H32.9947V32.8521H29.1556C28.1829 32.8521 27.3133 32.1951 27.0105 31.216ZM40.9566 31.216C40.6538 32.1951 39.7842 32.8521 38.8115 32.8521H34.9272V25.9918H42.5734L40.9566 31.216ZM43.939 21.5729L43.2047 23.9498H34.9272V12.735C35.0625 12.7994 35.1849 12.8767 35.3073 12.9669L43.1209 18.9254C43.9132 19.5245 44.2418 20.5938 43.939 21.5729ZM67.702 35.8539C67.702 37.3677 67.2383 38.7655 66.4395 39.925C65.1769 41.5096 63.077 42.128 61.2282 41.1682C60.0108 40.4983 59.3151 39.3517 59.1605 38.0891C59.5985 38.7462 60.3522 39.1778 61.196 39.1778C62.5552 39.1778 63.6567 38.0762 63.6567 36.7171C63.6567 35.3579 62.5552 34.2564 61.196 34.2564C60.8417 34.2564 60.5068 34.3337 60.204 34.469C59.4375 34.7009 58.7353 35.2291 58.2265 35.9248C56.455 38.2759 57.5179 41.9476 60.1203 43.2424C60.4295 43.4163 60.7516 43.5516 61.0736 43.6482C60.8997 43.8737 60.7644 44.1378 60.6871 44.4148L55.682 58.5347C55.0894 60.3577 53.3888 61.5945 51.4692 61.5945H47.3144C47.3917 61.8006 47.4368 62.0132 47.4368 62.2258C47.4368 63.6043 45.7813 64.7251 43.7393 64.7251C41.6973 64.7251 40.0419 63.6043 40.0419 62.2258C40.0419 62.0068 40.0869 61.8006 40.1642 61.5945H26.2504C26.3277 61.8006 26.3728 62.0132 26.3728 62.2258C26.3728 63.6043 24.7173 64.7251 22.6753 64.7251C20.6333 64.7251 18.9778 63.6043 18.9778 62.2258C18.9778 62.0068 19.0229 61.8006 19.1002 61.5945H16.865C14.9519 61.5945 13.2513 60.3642 12.6522 58.5347L7.51826 44.4663C7.42163 44.1378 7.25415 43.835 7.02869 43.5838C7.28636 43.5001 7.54402 43.3777 7.79524 43.2424C10.3976 41.9412 11.4541 38.2695 9.68263 35.9248C9.17375 35.2226 8.47161 34.7009 7.70506 34.469C7.40231 34.3337 7.06734 34.2564 6.71306 34.2564C5.35388 34.2564 4.25237 35.3579 4.25237 36.7171C4.25237 38.0762 5.35388 39.1778 6.71306 39.1778C7.56335 39.1778 8.31057 38.7462 8.75504 38.0891C8.60044 39.3517 7.90475 40.4983 6.68729 41.1682C4.91585 42.0894 2.91252 41.5547 1.63064 40.1118C1.63064 40.1118 1.63064 40.1118 1.6242 40.1053C0.754585 38.9137 0.239258 37.445 0.239258 35.8539C0.239258 33.4576 1.40519 31.3319 3.20239 30.0243C4.39408 29.1546 5.85633 28.6393 7.44096 28.6393C10.1915 28.6393 12.5749 30.1789 13.7924 32.4399C14.1917 33.1806 17.1935 42.8946 17.1935 42.8946C17.7862 44.7175 19.4803 45.9543 21.4063 45.9543H46.5221C48.4417 45.9543 50.1358 44.724 50.7349 42.8946C50.7349 42.8946 53.7367 33.1742 54.1361 32.4399C55.3471 30.1789 57.7369 28.6393 60.4875 28.6393C62.1172 28.6393 63.6181 29.1804 64.8291 30.0951C66.5748 31.4092 67.6956 33.4963 67.6956 35.8475L67.702 35.8539Z" fill="#E3CAAE"/>
</svg>
