<svg width="197" height="65" viewBox="0 0 197 65" fill="none" xmlns="http://www.w3.org/2000/svg">
<path d="M0.0185547 64.6027C0.0443211 63.3466 0.0700874 62.0905 0.0829705 60.8344C0.0829705 60.6154 0.153828 60.5767 0.353517 60.5767C1.50012 60.5832 2.64672 60.5767 3.79333 60.5896C4.07032 60.5896 4.12829 60.5059 4.12185 60.2482C4.08964 57.9808 4.07676 55.7133 4.04455 53.4523C4.04455 53.1689 4.11541 53.098 4.39884 53.098C7.18805 53.1109 9.9837 53.098 12.7729 53.1109C13.0306 53.1109 13.1143 53.0529 13.1143 52.7824C13.095 50.2766 13.095 47.7708 13.0821 45.2651C13.0628 41.5161 13.037 37.7606 13.0177 34.0116C13.0177 33.8956 13.0177 33.7861 13.0048 33.6702C12.9275 32.923 13.0692 32.2595 13.4944 31.5896C15.0339 29.1611 16.509 26.694 18.0357 24.2011C18.3771 24.7615 18.7056 25.2961 19.0277 25.8308C20.2838 27.905 21.5335 29.9792 22.796 32.0469C22.912 32.2402 22.9635 32.427 22.9635 32.6524C22.9635 39.1391 22.9635 45.6193 22.9506 52.106C22.9506 52.4474 23.0279 52.5376 23.3693 52.5312C24.3807 52.5054 25.392 52.5183 26.3969 52.5312C26.6223 52.5312 26.7125 52.4732 26.6803 52.2477C26.6674 52.1704 26.6803 52.0867 26.6803 52.0094C26.6803 38.8621 26.6803 25.7084 26.6803 12.5611C26.6803 12.0587 26.6288 12.1231 27.1119 12.1231C31.5566 12.1231 36.0077 12.1231 40.4524 12.1166C40.7681 12.1166 40.8389 12.2068 40.8389 12.5096C40.8325 25.8952 40.8325 39.2873 40.8389 52.6729C40.8389 52.9692 40.9914 53.1174 41.2963 53.1174C43.306 53.1174 45.3158 53.1174 47.3192 53.1174C47.8345 53.1174 47.7572 53.1882 47.7572 52.66C47.7572 35.2613 47.7572 17.8561 47.7572 0.457353C47.7572 0.152451 47.9032 0 48.1952 0C52.8332 0 57.4776 0 62.1155 0C62.1606 0.12239 62.1413 0.24478 62.1413 0.36717C62.1413 2.29965 62.1413 4.23857 62.1413 6.17104C62.1413 6.29343 62.1091 6.42227 62.1735 6.53821C62.1735 8.79277 62.1735 11.0473 62.1735 13.3019C62.1735 15.5114 62.1799 17.7208 62.1863 19.9303C62.225 20.0527 62.2057 20.1751 62.2057 20.3039C62.2057 24.2719 62.2057 28.2399 62.2057 32.208C62.2057 32.3303 62.167 32.4592 62.2443 32.5687H62.2508C62.3667 32.6524 62.4955 32.6138 62.6115 32.6138C64.7694 32.6138 66.9274 32.6138 69.0853 32.6138C69.2077 32.6138 69.3365 32.588 69.4525 32.6395C69.4525 36.0793 69.4525 39.5192 69.4525 42.959C69.4525 43.062 69.4718 43.1587 69.4782 43.2617C69.5942 43.3326 69.723 43.2939 69.8454 43.2939C71.9969 43.2939 74.1484 43.2939 76.2999 43.2939C76.564 43.2939 76.6413 43.3583 76.6413 43.6289C76.6284 46.65 76.6348 49.6711 76.6413 52.6922C76.6413 52.8146 76.6091 52.9434 76.6735 53.0594C76.8152 53.1302 76.9634 53.0916 77.1051 53.0916C100.855 53.0916 124.612 53.0916 148.362 53.0916C148.701 53.0916 148.871 53.2677 148.871 53.6198C148.871 55.8293 148.871 58.0387 148.871 60.2482C148.871 60.3706 148.839 60.4994 148.903 60.6154C148.903 61.9488 148.903 63.2822 148.903 64.622H0.0185547V64.6027Z" fill="#094F7E"/>
<path d="M189.15 29.4311C189.157 29.3538 189.169 29.2765 189.169 29.1992C189.169 25.2891 189.169 21.3791 189.169 17.4755C189.169 17.4304 189.169 17.3853 189.163 17.3402C189.24 17.2693 189.337 17.2951 189.421 17.2951C191.637 17.2951 193.859 17.2951 196.075 17.2951C196.152 17.2951 196.236 17.2758 196.307 17.3273V49.0264C194.052 49.0264 191.791 49.0264 189.537 49.0328C189.247 49.0328 189.163 48.9749 189.163 48.6657C189.176 44.4851 189.163 40.3045 189.176 36.1239C189.176 35.8276 189.105 35.7567 188.809 35.7567C185.137 35.7696 181.459 35.7632 177.787 35.7632C177.678 35.7632 177.562 35.7825 177.452 35.7889C177.381 35.9049 177.42 36.0337 177.42 36.1561C177.42 40.3238 177.42 44.4915 177.42 48.6592C177.42 48.7816 177.446 48.9104 177.394 49.0264C175.14 49.0264 172.879 49.0199 170.624 49.0328C170.283 49.0328 170.231 48.9362 170.231 48.6206C170.238 38.1852 170.238 27.7498 170.231 17.3144C170.328 17.2693 170.431 17.2887 170.534 17.2887C172.711 17.2887 174.888 17.2887 177.066 17.2822C177.349 17.2822 177.42 17.366 177.42 17.643C177.414 21.4371 177.42 25.2376 177.42 29.0317C177.42 29.167 177.388 29.3022 177.452 29.4311C177.542 29.4955 177.652 29.4633 177.749 29.4633C181.452 29.4633 185.15 29.4633 188.854 29.4633C188.95 29.4633 189.06 29.489 189.15 29.4311Z" fill="#09507E"/>
<path d="M165.348 40.9231C165.123 42.3789 164.653 43.7445 163.783 44.9491C162.83 46.2696 161.593 47.2552 160.137 47.9766C158.739 48.6723 157.251 49.0717 155.712 49.2907C155.512 49.3165 155.319 49.3487 155.119 49.3745C155.01 49.4196 154.881 49.3551 154.771 49.426C154.636 49.426 154.501 49.4389 154.372 49.4453C154.191 49.4969 153.998 49.4196 153.824 49.4969C153.077 49.4969 152.336 49.4969 151.589 49.4969C151.415 49.4196 151.222 49.4969 151.042 49.4518C150.906 49.4453 150.771 49.4389 150.636 49.4324C150.507 49.3551 150.359 49.4324 150.223 49.3809C148.916 49.2778 147.627 49.0202 146.378 48.653C145.528 48.4018 144.664 48.1441 143.878 47.6997C143.705 47.603 143.679 47.5 143.724 47.326C144.175 45.5031 144.619 43.6737 145.064 41.8507C145.135 41.5673 145.289 41.709 145.412 41.7669C146.255 42.1728 147.125 42.5271 148.02 42.7976C149.244 43.1648 150.481 43.4868 151.769 43.5255C151.924 43.5964 152.098 43.5191 152.259 43.577C152.781 43.6092 153.309 43.6157 153.831 43.577C153.947 43.5384 154.076 43.5899 154.191 43.5319C155.538 43.4096 156.749 43.0037 157.567 41.8571C158.372 40.7234 158.23 39.1388 157.258 38.1339C156.465 37.3158 155.46 36.8327 154.443 36.4011C152.774 35.6796 151.009 35.1708 149.412 34.2754C148.561 33.7987 147.769 33.2512 147.022 32.6199C146.114 31.8598 145.418 30.9515 144.89 29.9209C144.445 29.0577 144.181 28.1172 144.143 27.1317C144.091 26.8869 144.175 26.6292 144.097 26.3844C144.097 26.3458 144.097 26.3136 144.097 26.2749C144.168 26.0237 144.091 25.7596 144.143 25.5084C144.213 24.4326 144.49 23.4084 144.961 22.4422C145.296 21.7465 145.74 21.1088 146.255 20.5161C147.189 19.4404 148.317 18.6545 149.599 18.0683C150.938 17.4564 152.343 17.0957 153.805 16.9346C153.998 16.9153 154.185 16.8831 154.372 16.8573C154.533 16.7993 154.707 16.8831 154.861 16.8058C155.151 16.8058 155.441 16.7929 155.737 16.7865C155.963 16.7542 156.188 16.7607 156.414 16.7865C156.755 16.7929 157.09 16.7993 157.432 16.8058C157.612 16.8831 157.805 16.7993 157.986 16.8573C158.095 16.8573 158.211 16.8638 158.321 16.8702C158.424 16.9411 158.552 16.8702 158.662 16.9153C160.259 17.1279 161.825 17.4821 163.345 18.0426C164.163 18.3453 164.169 18.326 163.931 19.1763C163.493 20.7674 163.049 22.352 162.623 23.9495C162.566 24.175 162.495 24.2265 162.289 24.1234C161.039 23.4986 159.725 23.1057 158.34 22.906C158.024 22.8609 157.709 22.8093 157.393 22.7771C157.258 22.7127 157.103 22.7771 156.961 22.7256C156.697 22.7256 156.433 22.7127 156.163 22.7063C156.014 22.6676 155.873 22.6483 155.725 22.7063C154.526 22.7063 153.386 22.9317 152.388 23.6532C151.209 24.5099 150.996 26.2685 151.918 27.3893C152.491 28.085 153.264 28.5037 154.05 28.8838C155.357 29.5215 156.736 29.9853 158.076 30.5393C159.95 31.3187 161.728 32.2656 163.152 33.76C164.285 34.9582 165.007 36.356 165.265 37.9922C165.284 38.1146 165.316 38.2305 165.348 38.3529C165.393 38.4624 165.323 38.5912 165.4 38.6943C165.4 38.8489 165.406 39.0099 165.413 39.1645C165.445 39.4802 165.445 39.7958 165.413 40.1115C165.413 40.2725 165.4 40.4271 165.393 40.5881C165.323 40.6912 165.393 40.82 165.342 40.9295L165.348 40.9231Z" fill="#09507E"/>
<path d="M161.67 54.193C163.306 54.193 164.949 54.2058 166.585 54.193C166.869 54.193 166.985 54.2445 166.965 54.5601C166.939 55.0239 166.965 55.4877 166.965 55.9451C166.869 56.0288 166.746 55.9902 166.643 55.9902C165.754 55.9902 164.865 55.9902 163.97 55.9902C163.86 55.9902 163.744 55.9515 163.641 56.0288H163.635C163.57 56.6601 163.57 57.2914 163.635 57.9162H163.641C163.789 58.0064 163.951 57.9613 164.105 57.9613C164.885 57.9613 165.658 57.9613 166.437 57.9613C166.546 57.9613 166.662 57.9226 166.759 58.0064C166.759 58.5668 166.759 59.1272 166.759 59.6812C166.662 59.7649 166.54 59.7263 166.437 59.7263C165.612 59.7263 164.794 59.7263 163.97 59.7263C163.86 59.7263 163.744 59.6876 163.641 59.7649H163.635C163.57 60.4864 163.57 61.2079 163.635 61.9229H163.641C163.744 62.0066 163.86 61.968 163.97 61.968C164.93 61.968 165.896 61.9744 166.856 61.968C167.088 61.968 167.152 62.0388 167.139 62.2578C167.107 62.7603 167.178 63.2692 167.1 63.7781C165.284 63.7781 163.467 63.7781 161.651 63.7781C161.606 63.6685 161.625 63.5526 161.625 63.4431C161.625 60.4671 161.625 57.4911 161.625 54.515C161.625 54.4055 161.586 54.2896 161.67 54.1865V54.193Z" fill="#58585A"/>
<path d="M192.983 63.7848C192.448 63.7848 191.913 63.7719 191.385 63.7848C191.14 63.7912 191.057 63.7397 191.063 63.4756C191.083 62.4321 191.05 61.3885 191.083 60.3514C191.095 59.9263 190.896 59.5978 190.735 59.2564C190.271 58.2579 189.781 57.2788 189.298 56.2868C188.995 55.6684 188.706 55.0436 188.403 54.4252C188.319 54.2577 188.358 54.1997 188.538 54.1997C189.163 54.1997 189.788 54.2061 190.406 54.1997C190.593 54.1997 190.612 54.3157 190.664 54.4445C191.108 55.6362 191.566 56.8279 192.017 58.0196C192.042 58.084 192.049 58.1548 192.145 58.1999C192.319 57.7104 192.493 57.2273 192.674 56.7441C192.976 55.9454 193.24 55.1273 193.588 54.3479C193.633 54.2512 193.659 54.1997 193.775 54.1997C194.451 54.1997 195.128 54.1997 195.849 54.1997C195.489 54.8954 195.154 55.546 194.819 56.203C194.245 57.3239 193.678 58.4447 193.112 59.5656C193.073 59.6429 193.021 59.7202 193.041 59.8168C192.976 60.1389 193.021 60.4674 193.015 60.7959C192.996 61.7879 193.047 62.7864 192.989 63.7848H192.983Z" fill="#58585A"/>
<path d="M187.946 56.0288C187.289 56.0288 186.631 56.0417 185.974 56.0224C185.697 56.0159 185.62 56.0804 185.62 56.3702C185.633 58.715 185.62 61.0661 185.633 63.4109C185.633 63.733 185.543 63.8103 185.24 63.7909C184.821 63.7652 184.403 63.7716 183.984 63.7909C183.726 63.8038 183.643 63.7394 183.643 63.4624C183.655 61.1048 183.643 58.7472 183.655 56.3895C183.655 56.0803 183.572 56.0095 183.282 56.0224C182.741 56.0481 182.193 56.0224 181.646 56.0353C181.42 56.0353 181.324 55.9902 181.336 55.7389C181.356 55.3331 181.356 54.9209 181.336 54.515C181.324 54.2574 181.407 54.193 181.659 54.193C183.623 54.2058 185.581 54.193 187.546 54.193C187.669 54.193 187.797 54.193 187.92 54.1865C188.004 54.7985 187.971 55.4104 187.939 56.0224L187.946 56.0288Z" fill="#58585A"/>
<path d="M182.161 63.7844C180.383 63.7844 178.611 63.7844 176.834 63.7844C176.788 63.6749 176.808 63.5589 176.808 63.4494C176.808 60.4734 176.808 57.4974 176.808 54.5214C176.808 54.4119 176.769 54.2959 176.853 54.1929C177.478 54.1929 178.103 54.1929 178.734 54.1929C178.83 54.3024 178.779 54.4312 178.779 54.5472C178.779 56.8855 178.779 59.2238 178.779 61.562C178.779 61.6844 178.747 61.8133 178.811 61.9292C179.925 61.9292 181.04 61.9421 182.154 61.9485C182.199 62.5605 182.193 63.1724 182.154 63.7844H182.161Z" fill="#58585A"/>
<path d="M18.4028 46.4759C17.8681 46.4759 17.3399 46.4759 16.8053 46.4759C16.6185 46.4759 16.5476 46.4309 16.5476 46.2312C16.554 45.1297 16.554 44.0346 16.5476 42.9331C16.5476 42.7591 16.5991 42.7012 16.7795 42.7012C17.881 42.7076 18.9761 42.7076 20.0776 42.7012C20.2515 42.7012 20.3159 42.7463 20.3095 42.9266C20.3031 44.0346 20.3031 45.149 20.3095 46.2569C20.3095 46.4566 20.2258 46.4759 20.0647 46.4759C19.5107 46.4759 18.9568 46.4759 18.3963 46.4759H18.4028Z" fill="#FEFEFE"/>
<path d="M61.2392 3.00136C61.2392 3.54246 61.2328 4.08999 61.2392 4.63108C61.2392 4.82433 61.1812 4.87587 60.988 4.87587C59.9122 4.86942 58.8365 4.86942 57.7543 4.87587C57.5675 4.87587 57.4966 4.83077 57.5031 4.63108C57.5095 3.55534 57.5095 2.47959 57.5031 1.40385C57.5031 1.19772 57.5611 1.1333 57.7736 1.1333C58.8365 1.14618 59.9058 1.14618 60.9687 1.1333C61.1812 1.1333 61.2392 1.19128 61.2328 1.40385C61.2199 1.9385 61.2328 2.46671 61.2328 3.00136H61.2392Z" fill="#FEFEFE"/>
<path d="M37.7728 13.2949C38.3075 13.2949 38.8421 13.3014 39.3703 13.2949C39.5829 13.2949 39.6666 13.3336 39.6602 13.5719C39.6473 14.6283 39.6473 15.6783 39.6602 16.7347C39.6602 16.986 39.5765 17.031 39.351 17.031C38.3075 17.0182 37.2639 17.0182 36.2204 17.031C35.9692 17.031 35.9241 16.9409 35.9241 16.7154C35.937 15.6719 35.9305 14.6283 35.9241 13.5912C35.9241 13.3787 35.9692 13.2885 36.2011 13.3014C36.7228 13.3207 37.2446 13.3014 37.7664 13.3014L37.7728 13.2949Z" fill="#FEFEFE"/>
<path d="M73.9166 47.8995C73.3819 47.8995 72.8473 47.8995 72.3191 47.8995C72.1258 47.8995 72.0356 47.8737 72.0356 47.6483C72.0485 46.5725 72.0485 45.4968 72.0356 44.421C72.0356 44.2278 72.0936 44.1763 72.2869 44.1763C73.3626 44.1827 74.4448 44.1827 75.5205 44.1763C75.7138 44.1763 75.7718 44.2342 75.7718 44.4275C75.7653 45.5032 75.7653 46.579 75.7718 47.6547C75.7718 47.848 75.7074 47.906 75.5205 47.906C74.9859 47.8931 74.4577 47.906 73.923 47.906L73.9166 47.8995Z" fill="#FEFEFE"/>
<path d="M61.2394 35.6215C61.2394 36.1626 61.233 36.7101 61.2394 37.2512C61.2394 37.4445 61.1815 37.5024 60.9882 37.5024C59.9125 37.496 58.8367 37.496 57.761 37.5024C57.5677 37.5024 57.5098 37.4445 57.5098 37.2512C57.5162 36.1755 57.5162 35.0997 57.5098 34.024C57.5098 33.8179 57.5806 33.7856 57.7674 33.7856C58.8432 33.7921 59.9189 33.7921 60.9947 33.7856C61.1815 33.7856 61.2459 33.8372 61.2459 34.0304C61.233 34.5651 61.2459 35.0933 61.2459 35.6279L61.2394 35.6215Z" fill="#FEFEFE"/>
<path d="M51.358 23.0733C50.8233 23.0733 50.2887 23.0669 49.7605 23.0733C49.5672 23.0733 49.4771 23.0347 49.4771 22.8157C49.4899 21.7399 49.4835 20.6642 49.4771 19.5884C49.4771 19.3823 49.5544 19.3501 49.7347 19.3501C50.8105 19.3565 51.8926 19.3565 52.9684 19.3501C53.1745 19.3501 53.2067 19.421 53.2067 19.6078C53.2003 20.6835 53.2003 21.7593 53.2067 22.835C53.2067 23.0347 53.1359 23.0862 52.9491 23.0798C52.4144 23.0669 51.8862 23.0798 51.3516 23.0798L51.358 23.0733Z" fill="#FEFEFE"/>
<path d="M29.6691 33.7856C30.2102 33.7856 30.7577 33.7921 31.2988 33.7856C31.4921 33.7856 31.5436 33.8372 31.5436 34.0304C31.5371 35.1062 31.5371 36.1819 31.5436 37.2577C31.5436 37.4509 31.4921 37.5089 31.2988 37.5089C30.2231 37.5024 29.1473 37.5024 28.0716 37.5089C27.8654 37.5089 27.801 37.4509 27.801 37.2383C27.8139 36.1755 27.8139 35.1126 27.801 34.0497C27.801 33.8307 27.8719 33.7856 28.0716 33.7921C28.6062 33.805 29.1344 33.7921 29.6691 33.7921V33.7856Z" fill="#FEFEFE"/>
<path d="M100.83 60.2863C100.765 59.1204 100.797 57.9609 100.797 56.7949C100.797 56.4664 100.965 56.3505 101.281 56.4471C101.409 56.4857 101.384 56.5759 101.384 56.6597C101.384 58.0961 101.384 59.5391 101.384 60.9755C101.384 61.0593 101.403 61.1881 101.268 61.1752C101.049 61.1559 100.804 61.2847 100.63 61.0013C100.166 60.2605 99.683 59.5391 99.2063 58.8112C98.8649 58.2958 98.5557 57.7612 98.2079 57.1363C98.298 58.4569 98.2465 59.6743 98.2658 60.8982C98.2658 61.1108 98.2207 61.1945 97.9889 61.1881C97.7634 61.1881 97.6732 61.143 97.6732 60.8918C97.6861 59.5326 97.6732 58.1734 97.6861 56.8143C97.6861 56.6919 97.583 56.4664 97.802 56.4535C98.0146 56.4406 98.2852 56.3183 98.4526 56.5824C98.6266 56.8465 98.8005 57.1106 98.9744 57.3747C99.5992 58.328 100.269 59.2556 100.823 60.2734L100.83 60.2863Z" fill="#FDFDFD"/>
<path d="M144.175 60.2995C144.13 59.1142 144.175 57.9483 144.162 56.7824C144.162 56.5505 144.188 56.4474 144.465 56.4409C144.761 56.4409 144.761 56.5762 144.761 56.7888C144.761 58.1351 144.761 59.4878 144.755 60.8341C144.755 60.9501 144.845 61.1562 144.658 61.1755C144.445 61.1948 144.188 61.2979 144.02 61.0274C143.28 59.8357 142.442 58.7019 141.772 57.4716C141.727 57.3943 141.682 57.3234 141.592 57.1817C141.676 58.4572 141.631 59.6617 141.643 60.8599C141.643 61.0789 141.643 61.2013 141.347 61.2013C141.051 61.2013 141.057 61.0596 141.057 60.847C141.057 59.5071 141.057 58.1737 141.064 56.8339C141.064 56.7051 140.967 56.4796 141.167 56.4603C141.392 56.4409 141.663 56.3186 141.843 56.602C142.597 57.8001 143.46 58.9274 144.111 60.1835C144.13 60.2222 144.156 60.2544 144.175 60.2866V60.2995Z" fill="#FDFDFD"/>
<path d="M56.0795 57.2461C56.1439 58.4701 56.0988 59.6875 56.1117 60.8985C56.1117 61.1111 56.0666 61.1948 55.8347 61.1948C55.5835 61.1948 55.5062 61.1369 55.5126 60.8728C55.5255 59.5265 55.5126 58.1737 55.5255 56.8274C55.5255 56.6986 55.4225 56.4732 55.6286 56.4603C55.854 56.4409 56.131 56.3186 56.3114 56.602C57.0715 57.8195 57.954 58.9596 58.611 60.2479C58.6239 60.2737 58.6497 60.2995 58.7012 60.3768C58.6819 59.9581 58.6561 59.5973 58.6497 59.2302C58.6433 58.3799 58.6497 57.5296 58.6368 56.6793C58.6368 56.4345 58.7528 56.4409 58.9267 56.4409C59.0942 56.4409 59.2294 56.4281 59.2294 56.6793C59.2166 58.0964 59.2294 59.5136 59.223 60.9307C59.223 61.0209 59.2681 61.182 59.1264 61.1755C58.9267 61.1755 58.6883 61.2979 58.5273 61.0725C58.4049 60.8985 58.289 60.7182 58.173 60.5314C57.4773 59.4363 56.7172 58.3863 56.0859 57.2397L56.0795 57.2461Z" fill="#FDFDFD"/>
<path d="M76.506 60.2928C76.4996 59.3781 76.5125 58.4763 76.506 57.5745C76.506 57.3168 76.506 57.0527 76.506 56.795C76.506 56.4729 76.6993 56.3506 76.9956 56.4536C77.1051 56.4923 77.0858 56.5696 77.0858 56.6469C77.0858 58.0962 77.0858 59.5456 77.0858 61.0014C77.0858 61.0851 77.1115 61.2075 76.9634 61.1946C76.7444 61.1753 76.4996 61.2913 76.3257 61.0143C75.8425 60.2477 75.3337 59.5005 74.8441 58.7339C74.5413 58.2637 74.2579 57.7806 73.9487 57.2653C73.9487 57.6775 73.9487 58.0576 73.9487 58.4312C73.9487 59.2557 73.9487 60.0867 73.9616 60.9112C73.9616 61.1302 73.9101 61.2075 73.6782 61.2011C73.4656 61.2011 73.3561 61.1753 73.3561 60.9112C73.369 59.552 73.3561 58.1929 73.369 56.8337C73.369 56.7048 73.2659 56.4794 73.4785 56.4729C73.7039 56.4601 73.9745 56.3312 74.1548 56.6147C74.9085 57.8128 75.7717 58.9401 76.4223 60.1962C76.4416 60.2284 76.4609 60.2606 76.4867 60.2992L76.506 60.2928Z" fill="#FDFEFE"/>
<path d="M87.4309 60.2285C87.4309 59.9065 87.4309 59.5844 87.4309 59.2687C87.4309 58.4185 87.4374 57.5682 87.4245 56.7179C87.4245 56.4795 87.5147 56.4473 87.7208 56.4409C87.9463 56.4409 88.0042 56.5117 88.0042 56.7308C87.9978 58.1028 88.0042 59.4749 87.9978 60.8405C87.9978 60.9564 88.088 61.1626 87.8883 61.1755C87.6822 61.1883 87.4438 61.2914 87.2763 61.0337C86.8448 60.3574 86.4003 59.6875 85.9558 59.0175C85.5822 58.4507 85.2215 57.8774 84.8672 57.1946C84.8672 57.5811 84.8672 57.8774 84.8672 58.1672C84.8736 59.0755 84.8801 59.9773 84.893 60.8856C84.893 61.111 84.8543 61.2012 84.5966 61.2012C84.3519 61.2012 84.3003 61.1304 84.3003 60.892C84.3132 59.5457 84.3003 58.193 84.3132 56.8467C84.3132 56.7114 84.2037 56.4795 84.4292 56.4602C84.6482 56.4473 84.9123 56.3249 85.0991 56.6213C85.8399 57.8001 86.6773 58.9145 87.3408 60.1448C87.3601 60.177 87.3601 60.2414 87.4309 60.2285Z" fill="#FEFEFE"/>
<path d="M96.8356 58.8115C96.8098 60.4992 95.5666 61.5363 93.9948 61.1949C92.9771 60.9759 92.3071 60.0483 92.3071 58.8566C92.3071 57.7551 92.874 56.8468 93.7887 56.5119C95.3798 55.9257 96.8678 57.0465 96.842 58.8051L96.8356 58.8115Z" fill="#FEFEFE"/>
<path d="M140.207 58.7923C140.175 60.5057 138.931 61.5428 137.36 61.195C136.915 61.0984 136.541 60.8665 136.245 60.5251C135.485 59.6426 135.498 57.9871 136.284 57.1303C136.96 56.396 137.804 56.2028 138.732 56.5055C139.691 56.8147 140.084 57.5748 140.194 58.5217C140.207 58.6248 140.207 58.7279 140.207 58.7987V58.7923Z" fill="#FEFEFE"/>
<path d="M8.12207 58.8371C8.12207 58.1478 8.12207 57.4521 8.12207 56.7629C8.12207 56.5889 8.14784 56.5116 8.35397 56.4859C8.95304 56.415 9.55854 56.3764 10.1512 56.4601C11.6843 56.6856 12.4379 57.8 12.1223 59.3202C11.8968 60.4024 11.1239 61.0465 9.90639 61.1882C9.38462 61.2462 8.86285 61.2076 8.34753 61.1882C8.16072 61.1882 8.12851 61.1045 8.12851 60.937C8.13495 60.2349 8.12851 59.5328 8.12851 58.8306L8.12207 58.8371Z" fill="#FEFEFE"/>
<path d="M103.986 58.8755C103.986 57.0332 105.596 55.8737 107.213 56.5694C108.128 56.9623 108.45 57.7418 108.514 58.6694C108.591 59.7258 108.044 60.7049 107.187 61.0721C105.57 61.7549 103.998 60.6791 103.992 58.8819L103.986 58.8755Z" fill="#FEFEFE"/>
<path d="M123.259 58.8241C123.246 60.602 121.803 61.6971 120.199 61.1302C119.284 60.8081 118.872 60.0802 118.769 59.1591C118.724 58.7855 118.756 58.4119 118.859 58.0511C119.175 56.9432 120.148 56.2732 121.275 56.3828C122.409 56.4923 123.182 57.3297 123.259 58.5214C123.259 58.6244 123.259 58.7275 123.259 58.8241Z" fill="#FEFEFE"/>
<path d="M114.254 58.805C114.254 58.1222 114.267 57.4458 114.254 56.763C114.247 56.5053 114.318 56.4409 114.576 56.4409C114.853 56.4409 114.891 56.5504 114.878 56.7823C114.866 57.2461 114.878 57.7099 114.872 58.1737C114.872 58.3734 114.911 58.4571 115.13 58.4507C115.767 58.4378 116.399 58.4378 117.036 58.4507C117.23 58.4507 117.288 58.3927 117.288 58.1995C117.275 57.7035 117.301 57.201 117.275 56.705C117.262 56.4345 117.41 56.4474 117.59 56.4538C117.758 56.4538 117.925 56.4087 117.925 56.6921C117.912 58.1222 117.912 59.5522 117.925 60.9758C117.925 61.2721 117.732 61.1819 117.577 61.1948C117.41 61.2077 117.268 61.2141 117.275 60.9629C117.294 60.3832 117.275 59.8034 117.281 59.2301C117.281 59.0369 117.249 58.9531 117.024 58.9596C116.386 58.9789 115.755 58.9789 115.117 58.9596C114.885 58.9596 114.859 59.0433 114.866 59.2366C114.878 59.7905 114.859 60.351 114.872 60.9049C114.878 61.1433 114.808 61.2077 114.569 61.2141C114.318 61.2141 114.241 61.1497 114.247 60.8921C114.267 60.2028 114.247 59.5071 114.247 58.8179L114.254 58.805Z" fill="#FDFDFD"/>
<path d="M44.6909 58.2512C44.6909 57.6457 44.7038 57.1561 44.6909 56.673C44.6845 56.4475 44.8004 56.4282 44.9614 56.454C45.1032 56.4797 45.3351 56.338 45.3286 56.6472C45.3093 57.6779 45.393 58.7085 45.29 59.7392C45.1998 60.5959 44.6651 61.1177 43.7955 61.253C42.971 61.3818 42.2366 61.0533 41.921 60.4027C41.7729 60.0935 41.702 59.7585 41.702 59.4171C41.6956 58.5217 41.7084 57.6263 41.6956 56.731C41.6956 56.4604 41.8115 56.4475 42.0176 56.4475C42.2302 56.4475 42.3462 56.4604 42.3462 56.731C42.3268 57.5941 42.3462 58.4509 42.3462 59.314C42.3462 59.5266 42.359 59.7456 42.4235 59.9518C42.5974 60.5122 42.9581 60.7892 43.5185 60.7892C44.0983 60.7892 44.4783 60.4993 44.6329 59.9324C44.794 59.3398 44.6587 58.7343 44.7038 58.2576L44.6909 58.2512Z" fill="#FDFDFD"/>
<path d="M124.103 58.1478C124.103 57.6583 124.116 57.1751 124.103 56.6856C124.09 56.3699 124.309 56.4666 124.47 56.4537C124.637 56.4408 124.766 56.4408 124.76 56.6856C124.747 57.6003 124.747 58.5214 124.76 59.4426C124.76 60.1125 125.069 60.5892 125.559 60.7309C126.435 60.995 127.111 60.4281 127.13 59.3975C127.143 58.515 127.143 57.6261 127.13 56.7436C127.124 56.4601 127.246 56.4472 127.472 56.4408C127.717 56.4344 127.775 56.5117 127.768 56.7436C127.755 57.6132 127.768 58.4892 127.762 59.3588C127.749 60.7695 126.596 61.6005 125.249 61.1625C124.618 60.9628 124.219 60.3959 124.154 59.6294C124.141 59.4683 124.122 59.3137 124.122 59.1527C124.122 58.8113 124.122 58.4699 124.122 58.1349L124.103 58.1478Z" fill="#FEFEFE"/>
<path d="M83.508 61.1625C82.9025 61.2334 82.9089 61.2269 82.7157 60.6923C82.5997 60.3638 82.5546 59.9322 82.3227 59.7454C82.0844 59.5521 81.6464 59.6938 81.2985 59.6874C80.5835 59.6809 80.5835 59.6874 80.3581 60.3509C80.2872 60.5634 80.2099 60.776 80.1391 60.995C80.094 61.1303 80.0231 61.1883 79.8685 61.1883C79.4176 61.2012 79.4112 61.2012 79.5657 60.7825C80.0553 59.4104 80.5513 58.0383 81.0344 56.6598C81.0924 56.4859 81.1762 56.4086 81.3501 56.4473C81.5498 56.4924 81.8139 56.2927 81.9298 56.6212C82.4516 58.1028 82.9798 59.5779 83.508 61.0594C83.5209 61.0917 83.508 61.1239 83.5144 61.1561L83.508 61.1625Z" fill="#FEFEFE"/>
<path d="M68.5186 61.1688C68.7633 60.4859 69.0017 59.8096 69.2465 59.1268C69.5299 58.3151 69.8326 57.5164 70.0967 56.6983C70.1998 56.3762 70.4188 56.46 70.6314 56.4471C70.844 56.4277 70.9664 56.4793 71.0501 56.7112C71.5268 58.0961 72.0357 59.4746 72.5188 60.8596C72.551 60.9497 72.6991 61.0786 72.5381 61.1752C72.3835 61.2718 71.9712 61.1559 71.9197 61.0142C71.7844 60.6534 71.6492 60.2927 71.5332 59.932C71.4752 59.7516 71.3979 59.6743 71.2047 59.6872C70.7731 59.7001 70.3415 59.7001 69.9164 59.6872C69.7167 59.6807 69.633 59.758 69.5879 59.9384C69.517 60.1896 69.4204 60.428 69.3366 60.6728C69.2121 61.0335 68.9416 61.1988 68.525 61.1688H68.5186Z" fill="#FEFEFE"/>
<path d="M41.1223 61.1756C41.0708 61.182 41.0514 61.1884 41.0257 61.1884C40.6735 61.197 40.4395 61.0381 40.3235 60.7118C40.2076 60.3832 40.1754 59.9388 39.937 59.7584C39.6858 59.5587 39.2414 59.7069 38.8806 59.7004C38.1849 59.694 38.1849 59.7004 37.9595 60.351C37.9208 60.467 37.8822 60.5829 37.8371 60.7053C37.7168 61.0575 37.4506 61.2142 37.0383 61.1756C37.2445 60.5829 37.4506 60.0032 37.6567 59.4234C37.9788 58.5087 38.3138 57.594 38.623 56.6729C38.7067 56.4217 38.8677 56.4474 39.0417 56.4603C39.222 56.4796 39.4346 56.3572 39.5377 56.66C40.0466 58.1351 40.5812 59.5974 41.103 61.066C41.1159 61.0983 41.1094 61.1305 41.1159 61.182L41.1223 61.1756Z" fill="#FEFEFE"/>
<path d="M14.6281 56.4538C14.9115 56.3829 15.021 56.5246 15.1112 56.7758C15.575 58.1221 16.071 59.4556 16.5348 60.8018C16.5735 60.9114 16.7538 61.066 16.567 61.1819C16.3673 61.3043 16.013 61.1561 15.9357 60.95C15.8133 60.6086 15.6781 60.2736 15.575 59.9258C15.517 59.739 15.4268 59.681 15.2336 59.6875C14.802 59.7003 14.3704 59.7003 13.9388 59.6875C13.7585 59.6875 13.6812 59.739 13.6296 59.9129C13.5201 60.2801 13.3849 60.6408 13.256 61.0015C13.2045 61.1497 12.7278 61.2721 12.6183 61.169C12.5539 61.111 12.6054 61.0402 12.6248 60.9822C13.1401 59.52 13.6619 58.0642 14.1772 56.6019C14.2674 56.3378 14.4799 56.4795 14.6345 56.4409L14.6281 56.4538Z" fill="#FEFEFE"/>
<path d="M28.0975 61.1693C27.6939 61.2036 27.4255 61.0362 27.2923 60.6668C27.1764 60.3512 27.1377 59.9325 26.9123 59.7457C26.6804 59.5525 26.2617 59.6942 25.9203 59.6877C25.173 59.6813 25.173 59.6877 24.9218 60.4092C24.8703 60.5573 24.8188 60.7055 24.7672 60.8537C24.6577 61.1757 24.4967 61.2659 24.1617 61.1757C23.9427 61.1178 24.0909 60.9825 24.1231 60.8923C24.5804 59.5847 25.0442 58.2706 25.508 56.9629C25.5209 56.9178 25.5402 56.8792 25.5531 56.8341C25.6819 56.4734 26.0298 56.3059 26.3841 56.4412C26.4614 56.4669 26.4807 56.5249 26.5065 56.5893C27.0411 58.0902 27.5693 59.5911 28.104 61.092C28.1104 61.1113 28.104 61.1371 28.104 61.1564L28.0975 61.1693Z" fill="#FEFEFE"/>
<path d="M129.9 61.2594C129.533 61.2594 129.185 61.1821 128.837 61.0597C128.554 60.9566 128.702 60.7891 128.741 60.6281C128.799 60.3962 128.921 60.5379 129.018 60.5765C129.424 60.744 129.849 60.802 130.28 60.7247C130.654 60.6603 130.899 60.4284 130.957 60.1063C131.027 59.7327 130.905 59.4493 130.564 59.2431C130.37 59.1272 130.158 59.0435 129.952 58.9597C129.7 58.8566 129.449 58.7536 129.23 58.5861C128.528 58.0514 128.58 57.0788 129.34 56.6343C129.952 56.28 130.596 56.3251 131.246 56.5248C131.453 56.5892 131.388 56.718 131.337 56.8404C131.292 56.9564 131.285 57.1045 131.066 57.0079C130.705 56.8598 130.325 56.8018 129.939 56.9113C129.649 56.995 129.43 57.1625 129.385 57.4781C129.34 57.7938 129.456 58.0257 129.72 58.1996C130.119 58.4637 130.602 58.5474 131.002 58.8051C131.427 59.0821 131.659 59.4557 131.62 59.971C131.581 60.4864 131.304 60.8535 130.828 61.0661C130.564 61.1821 130.287 61.2272 130.003 61.2465C129.971 61.2465 129.932 61.2465 129.9 61.2465V61.2594Z" fill="#FEFEFE"/>
<path d="M47.4736 61.2593C47.1193 61.2593 46.7844 61.1756 46.4429 61.0725C46.1595 60.9823 46.2755 60.8148 46.3206 60.6473C46.3785 60.3961 46.5138 60.5443 46.6233 60.5894C47.0227 60.7504 47.4285 60.8019 47.8537 60.7375C48.2401 60.6731 48.5043 60.4348 48.5622 60.0998C48.6266 59.752 48.4849 59.4492 48.15 59.2431C47.9374 59.1078 47.6991 59.0369 47.4672 58.9403C47.2481 58.8501 47.0291 58.7471 46.8423 58.6118C46.1144 58.0836 46.1595 57.0916 46.9389 56.6407C47.5509 56.2864 48.1951 56.3315 48.8457 56.5376C49.084 56.6149 48.9423 56.7631 48.9101 56.8919C48.8714 57.0465 48.807 57.0787 48.646 57.0143C48.2917 56.879 47.9245 56.8146 47.5509 56.9177C47.2353 57.0014 47.0227 57.1818 46.9712 57.5103C46.9196 57.8195 47.0678 58.0514 47.3254 58.2253C47.6218 58.425 47.9632 58.5087 48.2788 58.6569C49.0518 59.0176 49.3674 59.5845 49.1677 60.2737C49.0003 60.8406 48.4205 61.2271 47.654 61.2722C47.596 61.2722 47.538 61.2722 47.4865 61.2722L47.4736 61.2593Z" fill="#FEFEFE"/>
<path d="M66.6183 56.3701C67.037 56.3701 67.3269 56.4345 67.6103 56.5247C67.8164 56.5891 67.7585 56.7051 67.7005 56.8404C67.6489 56.9627 67.649 57.098 67.4299 57.0143C67.0821 56.8726 66.7149 56.8146 66.3349 56.9112C66.0192 56.9885 65.8002 57.1689 65.7422 57.491C65.6843 57.8195 65.8324 58.0771 66.1159 58.2253C66.4637 58.4057 66.8373 58.5474 67.1916 58.7213C67.6039 58.9274 67.9195 59.2237 67.971 59.7133C68.0419 60.3253 67.7585 60.8277 67.1787 61.0725C66.5152 61.3559 65.8517 61.2851 65.1883 61.0467C64.9242 60.9501 65.0659 60.7826 65.0981 60.6345C65.1496 60.4154 65.272 60.5249 65.3751 60.57C65.7165 60.7118 66.0708 60.7697 66.4379 60.7504C66.9211 60.7246 67.2496 60.4863 67.3269 60.1062C67.4106 59.7133 67.2238 59.3848 66.7793 59.1593C66.4186 58.9725 66.0128 58.8888 65.6714 58.6504C65.3493 58.425 65.1238 58.148 65.0981 57.7357C65.0723 57.2011 65.3235 56.8275 65.7809 56.5827C66.0772 56.4217 66.3993 56.3766 66.6119 56.3701H66.6183Z" fill="#FEFEFE"/>
<path d="M30.2683 56.3701C30.6355 56.3766 30.8996 56.4152 31.1637 56.4989C31.3247 56.5505 31.4535 56.5827 31.3569 56.8146C31.2732 57.0207 31.2088 57.0658 30.9962 56.9821C30.6548 56.8468 30.2941 56.8081 29.9333 56.9112C29.6499 56.995 29.4438 57.1624 29.3858 57.4587C29.3278 57.7679 29.4438 58.0127 29.7014 58.1931C29.9204 58.3412 30.1652 58.4314 30.4036 58.528C30.6355 58.6182 30.8674 58.7149 31.067 58.863C31.8722 59.4363 31.7885 60.6022 30.8996 61.0403C30.2168 61.3752 29.5146 61.3044 28.8189 61.0532C28.5548 60.9565 28.703 60.7826 28.7416 60.6345C28.7996 60.4154 28.9284 60.5443 29.0251 60.5829C29.4244 60.744 29.8303 60.8019 30.2554 60.7311C30.6419 60.6667 30.8996 60.4348 30.9704 60.0998C31.0348 59.7584 30.8996 59.4428 30.5582 59.2431C30.3649 59.1271 30.1523 59.0498 29.9398 58.9661C29.6628 58.8566 29.3987 58.7406 29.1668 58.5474C28.5613 58.0514 28.5935 57.1689 29.2247 56.7051C29.5146 56.4925 29.9333 56.3701 30.2554 56.3701H30.2683Z" fill="#FEFEFE"/>
<path d="M51.6867 59.0687C51.6867 59.6549 51.6802 60.2475 51.6867 60.8337C51.6867 61.0656 51.6738 61.2009 51.3711 61.1944C51.0941 61.1944 51.0361 61.0978 51.0361 60.8466C51.049 59.6678 51.0361 58.489 51.049 57.3101C51.049 57.0203 50.9717 56.9365 50.6882 56.9623C50.3726 56.9881 50.0505 56.9623 49.7349 56.9687C49.503 56.9816 49.5223 56.8399 49.5159 56.6853C49.5159 56.5243 49.5352 56.4341 49.7349 56.4341C50.8235 56.4405 51.9121 56.4405 53.0008 56.4341C53.2262 56.4341 53.1811 56.5758 53.1876 56.7046C53.1876 56.8463 53.2069 56.9752 52.9879 56.9623C52.6272 56.9494 52.26 56.9623 51.8993 56.9559C51.7125 56.9494 51.6674 57.0138 51.6738 57.1878C51.6802 57.8126 51.6738 58.4374 51.6738 59.0558L51.6867 59.0687Z" fill="#FCFCFD"/>
<path d="M90.0849 59.0883C90.0849 58.4635 90.0849 57.8386 90.0849 57.2203C90.0849 57.0334 90.0398 56.9561 89.8401 56.969C89.4923 56.9819 89.138 56.9626 88.7837 56.9755C88.5711 56.9819 88.5776 56.8595 88.584 56.7178C88.584 56.5825 88.5518 56.4473 88.7708 56.4473C89.8594 56.4537 90.9481 56.4537 92.0367 56.4473C92.2493 56.4473 92.2364 56.5697 92.2364 56.7114C92.2364 56.8531 92.2493 56.9819 92.0367 56.9755C91.7082 56.9626 91.3796 56.9884 91.0511 56.969C90.7935 56.9497 90.7033 57.0206 90.7097 57.2976C90.729 58.4892 90.7097 59.6745 90.7226 60.8662C90.7226 61.1045 90.684 61.2012 90.4134 61.2012C90.1493 61.2012 90.0656 61.1303 90.0785 60.8598C90.0978 60.2736 90.0785 59.6809 90.0785 59.0948L90.0849 59.0883Z" fill="#FDFEFE"/>
<path d="M133.469 59.069C133.469 58.4442 133.469 57.8258 133.469 57.2009C133.469 57.027 133.43 56.9626 133.244 56.969C132.896 56.9819 132.542 56.9626 132.194 56.9755C131.981 56.9884 131.949 56.8917 131.955 56.7178C131.955 56.5568 131.955 56.4473 132.181 56.4473C133.244 56.4601 134.313 56.4601 135.376 56.4473C135.582 56.4473 135.621 56.531 135.621 56.7049C135.621 56.8724 135.608 56.9884 135.389 56.9755C135.047 56.9562 134.706 56.9884 134.371 56.969C134.139 56.9561 134.087 57.0399 134.094 57.2589C134.1 58.457 134.094 59.6552 134.107 60.8598C134.107 61.1174 134.055 61.2076 133.778 61.2076C133.501 61.2076 133.469 61.1045 133.476 60.8726C133.488 60.2736 133.476 59.6745 133.476 59.0754L133.469 59.069Z" fill="#FDFEFE"/>
<path d="M20.9085 58.8175C20.9085 58.1153 20.9214 57.4132 20.9021 56.7111C20.8956 56.4276 21.0438 56.4405 21.237 56.4405C21.4303 56.4405 21.5462 56.4405 21.5398 56.6982C21.5269 57.9221 21.5398 59.146 21.5269 60.3634C21.5269 60.6082 21.5784 60.6984 21.8425 60.6855C22.3643 60.6598 22.8861 60.6855 23.4078 60.6726C23.6075 60.6726 23.6591 60.7371 23.6526 60.9239C23.6526 61.0978 23.6269 61.188 23.4143 61.1815C22.6671 61.1686 21.9198 61.1686 21.1726 61.1815C20.96 61.1815 20.9021 61.1171 20.9085 60.911C20.9214 60.2089 20.9085 59.5067 20.9085 58.8046V58.8175Z" fill="#FDFDFE"/>
<path d="M17.4367 58.8175C17.4367 58.1282 17.4495 57.439 17.4302 56.7433C17.4238 56.4663 17.5268 56.4341 17.7652 56.4341C17.9971 56.4341 18.0744 56.4856 18.0679 56.7304C18.055 57.9414 18.0679 59.1524 18.055 60.3635C18.055 60.6082 18.1066 60.6984 18.3707 60.6855C18.8925 60.6598 19.4142 60.6855 19.936 60.6727C20.1292 60.6727 20.1872 60.7306 20.1808 60.9239C20.1808 61.0978 20.155 61.188 19.9424 61.1815C19.1952 61.1687 18.448 61.1687 17.7008 61.1815C17.4882 61.1815 17.4302 61.1171 17.4367 60.911C17.4495 60.2089 17.4367 59.5067 17.4367 58.8046V58.8175Z" fill="#FDFDFE"/>
<path d="M34.6163 58.8758C34.6163 59.9515 34.6163 61.0273 34.6163 62.103C34.6163 62.2641 34.6163 62.38 34.3908 62.3736C34.1718 62.3736 34.1267 62.2963 34.1331 62.0966C34.1396 59.9322 34.1396 57.7678 34.1331 55.6099C34.1331 55.4038 34.1847 55.3458 34.3973 55.3394C34.6291 55.3394 34.6163 55.4553 34.6163 55.6099C34.6163 56.6985 34.6163 57.7872 34.6163 58.8693V58.8758Z" fill="#FCFCFD"/>
<path d="M62.4631 58.8496C62.4631 59.9254 62.4631 61.0011 62.4631 62.0769C62.4631 62.2443 62.4824 62.3796 62.2312 62.3732C61.9993 62.3732 61.98 62.2701 61.98 62.0833C61.98 59.9318 61.98 57.7803 61.98 55.6288C61.98 55.4549 61.9736 55.3325 62.2183 55.3325C62.4567 55.3325 62.4631 55.4356 62.4631 55.616C62.4631 56.6917 62.4631 57.7674 62.4631 58.8432V58.8496Z" fill="#FCFCFD"/>
<path d="M111.477 58.8564C111.477 59.9321 111.477 61.0079 111.477 62.09C111.477 62.2575 111.49 62.3864 111.239 62.3799C111.001 62.3799 110.994 62.2769 110.994 62.0965C110.994 59.945 110.994 57.7871 110.994 55.6356C110.994 55.4616 110.981 55.3457 111.233 55.3457C111.471 55.3457 111.477 55.4488 111.477 55.6291C111.477 56.7049 111.477 57.7806 111.477 58.8628V58.8564Z" fill="#FEFEFE"/>
<path d="M103.161 58.8307C103.161 59.5328 103.148 60.2349 103.168 60.9371C103.174 61.2012 103.039 61.1947 102.858 61.1947C102.665 61.1947 102.517 61.214 102.517 60.9306C102.53 59.5263 102.53 58.1221 102.517 56.7243C102.517 56.4473 102.646 56.4537 102.846 56.4473C103.058 56.4473 103.174 56.4666 103.168 56.7307C103.148 57.4328 103.168 58.135 103.168 58.8371L103.161 58.8307Z" fill="#FAFBFC"/>
<path d="M53.7479 58.7983C53.7479 58.0962 53.7607 57.394 53.7414 56.6919C53.735 56.4214 53.8831 56.4342 54.0571 56.4407C54.2181 56.4407 54.392 56.3891 54.392 56.6726C54.3791 58.0962 54.3791 59.5262 54.392 60.9498C54.392 61.2332 54.2181 61.1752 54.0571 61.1817C53.8767 61.1817 53.735 61.201 53.7414 60.9305C53.7607 60.2154 53.7479 59.5069 53.7479 58.7919V58.7983Z" fill="#FAFBFC"/>
<path d="M110.247 31.8278C110.17 31.5766 110.247 31.3189 110.202 31.0677L110.183 30.5974C110.105 30.4686 110.183 30.314 110.131 30.1852C110.015 29.6377 109.964 29.0772 109.854 28.5297C109.274 25.6761 108.012 23.2089 105.835 21.2378C104.411 19.9495 102.788 19.009 100.99 18.3455C99.3865 17.7529 97.7053 17.4759 96.0176 17.244C95.9016 17.1989 95.7728 17.2569 95.6633 17.1925C95.528 17.1861 95.3992 17.1796 95.2639 17.1667C95.1222 17.1281 94.9741 17.1861 94.8388 17.1216L94.317 17.1023C94.0465 17.0379 93.763 17.1345 93.4989 17.0508C92.2815 17.0508 91.064 17.0508 89.8465 17.0508C89.5051 17.1216 89.1509 17.0508 88.8094 17.0959C88.5453 17.1023 88.2748 17.1152 88.0107 17.1216C87.8046 17.1925 87.5855 17.1152 87.3794 17.1667C87.199 17.1667 87.0251 17.1796 86.8448 17.1861C86.6902 17.2569 86.5162 17.1861 86.3552 17.2311L85.9494 17.2505C85.8205 17.3278 85.6724 17.2505 85.5371 17.2956C85.4018 17.302 85.273 17.3084 85.1377 17.3213C85.0282 17.3857 84.8994 17.3213 84.7835 17.3729C84.0813 17.4695 83.3792 17.6048 82.6706 17.6434C82.2648 17.6627 82.2583 17.8431 82.2583 18.1459C82.2583 28.2012 82.2583 38.2565 82.2583 48.3054C82.2583 48.5051 82.2133 48.7434 82.3034 48.898C82.3485 48.9818 82.632 48.9431 82.8059 48.9624C82.9154 49.014 83.0442 48.9431 83.1537 49.014C83.2439 49.014 83.3276 49.0268 83.4178 49.0268C83.5338 49.0784 83.6626 49.014 83.7786 49.0784L84.1715 49.1041C84.2874 49.1428 84.4098 49.0848 84.5258 49.1492C84.6611 49.1492 84.7899 49.1621 84.9252 49.1686C85.0862 49.2265 85.2601 49.1492 85.4212 49.2201L85.9494 49.2394C86.1555 49.2974 86.3745 49.2136 86.5807 49.2845C86.8448 49.2909 87.1153 49.3038 87.3794 49.3103C87.7401 49.3618 88.1138 49.2716 88.4745 49.3554C89.576 49.3554 90.6775 49.3554 91.779 49.3554C92.0302 49.2845 92.2943 49.3554 92.5456 49.3103C92.7453 49.3038 92.9385 49.2909 93.1382 49.2845C93.2735 49.2201 93.4281 49.2845 93.5633 49.2394C93.6986 49.233 93.8339 49.2265 93.9692 49.2201C94.0787 49.1492 94.2075 49.2201 94.317 49.1686C95.1029 49.0848 95.8888 48.956 96.6682 48.8143C98.4976 48.4922 100.263 47.9769 101.937 47.1717C103.574 46.3858 105.029 45.368 106.253 44.0024C107.735 42.3534 108.74 40.4466 109.403 38.3467C109.712 37.3611 109.88 36.3498 110.06 35.332C110.112 35.2225 110.041 35.0937 110.112 34.9906C110.112 34.9004 110.118 34.8102 110.125 34.7201C110.183 34.5848 110.105 34.4366 110.176 34.3078C110.176 34.1532 110.189 33.9922 110.196 33.8376C110.254 33.5606 110.17 33.2771 110.241 33.0002C110.241 32.6072 110.241 32.2078 110.241 31.8149L110.247 31.8278ZM101.583 38.2565C100.359 41.1488 98.0853 42.7914 95.0513 43.442C93.325 43.8156 91.5858 43.7769 89.8401 43.6674C89.5438 43.6481 89.4665 43.5515 89.4729 43.2616C89.4858 39.9184 89.4794 36.5752 89.4794 33.2321C89.4794 29.8889 89.4794 26.5199 89.4794 23.1703C89.4794 22.9706 89.4922 22.8353 89.737 22.8031C92.2364 22.436 94.7164 22.4166 97.1127 23.3378C100.011 24.4457 101.706 26.6165 102.317 29.599C102.923 32.5428 102.768 35.4673 101.59 38.2629L101.583 38.2565Z" fill="#09507E"/>
<path d="M140.619 48.73C139.685 45.7411 138.757 42.7458 137.83 39.7504C136.851 36.5747 135.872 33.399 134.892 30.2233C133.778 26.6225 132.67 23.0216 131.556 19.4208C131.343 18.7315 131.143 18.0358 130.937 17.3401C130.854 17.2564 130.744 17.295 130.647 17.295C127.691 17.295 124.734 17.295 121.777 17.295C121.681 17.295 121.571 17.2628 121.481 17.3337C121.462 17.3723 121.436 17.411 121.423 17.4496C121.075 18.6349 120.727 19.8201 120.373 21.0054C119.974 22.3452 119.561 23.6787 119.149 25.0185C118.763 26.2875 118.376 27.5629 117.99 28.8319C117.59 30.1331 117.197 31.4408 116.798 32.742C116.36 34.172 115.909 35.6085 115.471 37.0385C115.252 37.76 115.039 38.4879 114.814 39.2093C114.64 39.7826 114.44 40.3495 114.279 40.9292C114.08 41.6636 113.854 42.3915 113.616 43.1129C113.416 43.7249 113.242 44.3497 113.055 44.9681C112.862 45.6123 112.669 46.2564 112.476 46.9006C112.263 47.6027 112.051 48.3049 111.832 49.0263C114.266 49.0263 116.663 49.0263 119.053 49.0263C119.246 49.0263 119.297 48.949 119.336 48.788C119.864 46.8555 120.392 44.9166 120.94 42.9841C121.133 42.2949 121.275 41.5863 121.545 40.9164C121.629 40.8584 121.719 40.8841 121.81 40.8841C124.625 40.8841 127.433 40.8841 130.248 40.8841C130.338 40.8841 130.428 40.8584 130.512 40.9164C130.796 41.5476 130.931 42.2304 131.143 42.881C131.472 43.8924 131.736 44.923 132.039 45.9408C132.322 46.8877 132.638 47.8217 132.896 48.7686C132.96 48.9941 133.037 49.007 133.218 49.007C135.614 49.007 138.004 49.007 140.4 49.007C140.664 49.007 140.69 48.949 140.613 48.7107L140.619 48.73ZM129.147 35.4925C127.079 35.4925 125.017 35.4925 122.95 35.4925C122.557 35.4925 122.563 35.4925 122.666 35.1254C123.439 32.2782 124.309 29.4568 124.985 26.5838C125.275 25.3535 125.552 24.1167 125.836 22.8799C125.855 22.8026 125.848 22.7189 125.977 22.6609C126.944 26.9832 128.283 31.196 129.507 35.4474C129.391 35.5376 129.262 35.4925 129.147 35.4925Z" fill="#09507E"/>
<path d="M159.867 61.0977C159.686 60.3827 159.454 59.6677 158.713 59.2748C158.894 59.1653 159.055 59.088 159.197 58.9784C159.338 58.8689 159.461 58.7337 159.59 58.6048C160.601 57.5677 160.388 55.3583 159.132 54.6561C158.656 54.392 158.153 54.2825 157.638 54.173C157.522 54.1344 157.399 54.1923 157.29 54.1279C156.8 54.1279 156.311 54.1279 155.821 54.1279C155.641 54.2052 155.448 54.1279 155.267 54.173C154.881 54.2246 154.488 54.2761 154.101 54.3276C154.063 54.4114 154.076 54.508 154.076 54.5982C154.076 57.5742 154.076 60.5438 154.076 63.5198C154.076 63.6099 154.063 63.7001 154.101 63.7903C154.623 63.7903 155.145 63.771 155.667 63.7903C155.944 63.8032 156.027 63.7323 156.021 63.4425C156.002 62.3989 156.014 61.3554 156.021 60.3119C156.021 60.1959 155.956 60.0477 156.188 60.022C157.122 59.9254 157.676 60.3119 157.883 61.2201C158.056 61.9996 158.217 62.7854 158.456 63.5455C158.507 63.7001 158.559 63.7774 158.726 63.7774C159.338 63.7774 159.944 63.7774 160.575 63.7774C160.298 62.8756 160.111 61.9738 159.886 61.0913L159.867 61.0977ZM157.206 58.3987C156.871 58.4631 156.53 58.4438 156.188 58.4502C156.034 58.4502 156.002 58.3794 156.002 58.2441C156.002 57.8576 156.002 57.4711 156.002 57.0911C156.002 56.7497 156.014 56.4083 156.002 56.0733C155.989 55.8607 156.079 55.7834 156.266 55.7834C156.562 55.777 156.858 55.7448 157.148 55.7834C157.87 55.8672 158.275 56.3116 158.295 57.0202C158.314 57.7481 157.908 58.2699 157.213 58.4051L157.206 58.3987Z" fill="#58585A"/>
<path d="M175.571 63.4563C175.313 62.5222 175.056 61.5818 174.792 60.6477C174.212 58.5735 173.632 56.4994 173.059 54.4187C173.007 54.2384 172.924 54.1997 172.75 54.1997C172.035 54.2061 171.32 54.1997 170.605 54.1997C170.469 54.1997 170.405 54.219 170.36 54.3801C170.012 55.6491 169.638 56.9116 169.291 58.1806C168.801 59.9585 168.337 61.7493 167.841 63.5207C167.777 63.7526 167.835 63.7784 168.022 63.7784C168.556 63.7784 169.084 63.7784 169.619 63.7784C169.787 63.7784 169.851 63.7139 169.89 63.5529C170.044 62.8894 170.212 62.2259 170.366 61.556C170.405 61.395 170.463 61.3048 170.656 61.3048C171.326 61.3177 171.996 61.3241 172.666 61.3048C172.872 61.3048 172.904 61.4143 172.943 61.5496C173.117 62.1873 173.284 62.8186 173.452 63.4563C173.497 63.6109 173.503 63.7784 173.748 63.7719C174.373 63.759 174.991 63.7719 175.648 63.7719C175.616 63.6366 175.597 63.54 175.571 63.4434V63.4563ZM172.344 59.7008C171.906 59.6815 171.461 59.6815 171.023 59.7008C170.759 59.7137 170.759 59.6042 170.811 59.3981C171.107 58.2515 171.403 57.1049 171.661 55.9325C171.758 56.3576 171.848 56.7828 171.957 57.2079C172.144 57.9487 172.344 58.6895 172.55 59.4303C172.608 59.63 172.589 59.7137 172.35 59.7008H172.344Z" fill="#58585A"/>
<path d="M96.1656 58.8306C96.1656 59.1849 96.1076 59.5263 95.953 59.8484C95.676 60.4281 95.2315 60.7695 94.5745 60.7695C93.911 60.7695 93.4537 60.4346 93.196 59.8484C92.8868 59.1398 92.8997 58.4183 93.2282 57.7162C93.4923 57.1493 93.9497 56.853 94.5745 56.853C95.1864 56.853 95.6309 57.1493 95.9143 57.684C96.1012 58.0383 96.1784 58.4248 96.172 58.8306H96.1656Z" fill="#09507F"/>
<path d="M139.537 58.8436C139.517 59.3976 139.402 59.9193 138.996 60.338C138.377 60.9822 137.34 60.9242 136.786 60.2221C136.194 59.4749 136.2 58.1415 136.793 57.4007C137.475 56.5504 138.809 56.7179 139.298 57.7292C139.472 58.077 139.543 58.4571 139.53 58.85L139.537 58.8436Z" fill="#09507F"/>
<path d="M9.49418 56.8916C9.69387 56.9109 9.90644 56.9045 10.0997 56.9431C11.0852 57.1428 11.5619 57.7934 11.5168 58.8627C11.4782 59.9063 10.8727 60.5891 9.89355 60.7244C8.74051 60.8789 8.74051 60.8725 8.74051 59.7388C8.74051 58.9336 8.75984 58.1284 8.73407 57.3296C8.72119 56.9947 8.84358 56.8852 9.15277 56.9109C9.26228 56.9238 9.37823 56.9109 9.49418 56.9109V56.898V56.8916Z" fill="#09507F"/>
<path d="M107.857 58.8113C107.831 59.1913 107.78 59.5714 107.599 59.9192C107.322 60.4603 106.891 60.7631 106.279 60.776C105.667 60.7888 105.203 60.5119 104.926 59.9708C104.527 59.1913 104.546 58.399 104.945 57.626C105.209 57.1107 105.667 56.853 106.247 56.853C106.826 56.853 107.264 57.1236 107.548 57.626C107.754 57.9867 107.825 58.3861 107.844 58.8048L107.857 58.8113Z" fill="#09507F"/>
<path d="M119.433 58.837C119.42 58.4054 119.497 58.0253 119.69 57.671C119.98 57.1364 120.431 56.8594 121.043 56.8658C121.642 56.8723 122.087 57.1621 122.344 57.6904C122.718 58.4505 122.711 59.2235 122.331 59.9771C122.074 60.4924 121.636 60.7694 121.056 60.7888C120.457 60.8081 120.012 60.5311 119.716 60.0222C119.497 59.6486 119.413 59.2492 119.433 58.8434V58.837Z" fill="#09507F"/>
<path d="M80.7188 59.2236C80.97 58.4764 81.2148 57.7549 81.4789 56.9819C81.6657 57.7034 81.9104 58.3411 82.1488 58.9853C82.2261 59.1978 82.1746 59.2365 81.9749 59.2301C81.569 59.2172 81.1632 59.2301 80.7188 59.2301V59.2236Z" fill="#0A507F"/>
<path d="M70.5283 56.9692C70.7989 57.7616 71.0437 58.483 71.3013 59.2174H69.8069C70.0323 58.483 70.3415 57.7873 70.5283 56.9692Z" fill="#0A507F"/>
<path d="M39.8275 59.2237C39.383 59.2237 38.9643 59.2173 38.5456 59.2237C38.3266 59.2301 38.3395 59.1464 38.3975 58.9854C38.6294 58.3348 38.8741 57.697 39.0609 56.9756C39.325 57.7486 39.5698 58.47 39.8275 59.2237Z" fill="#0A507F"/>
<path d="M15.3431 59.2173H13.8486C14.0741 58.4894 14.3768 57.8001 14.5701 56.9756C14.8471 57.7808 15.0919 58.4894 15.3366 59.2173H15.3431Z" fill="#0A507F"/>
<path d="M25.3083 59.217C25.5531 58.4569 25.843 57.7612 26.0491 57.0269C26.2617 57.7676 26.5709 58.4698 26.8028 59.217H25.3083Z" fill="#0A507F"/>
</svg>
