<svg width="28" height="28" viewBox="0 0 28 28" fill="none" xmlns="http://www.w3.org/2000/svg">
<path d="M20.3677 0H6.90371C3.09177 0 0.00158691 3.09018 0.00158691 6.90212V20.3662C0.00158691 24.1781 3.09177 27.2683 6.90371 27.2683H20.3677C24.1797 27.2683 27.2699 24.1781 27.2699 20.3662V6.90212C27.2699 3.09018 24.1797 0 20.3677 0Z" fill="#878787"/>
<path d="M10.8953 15.8831C10.8953 13.8798 10.8953 11.8688 10.8953 9.83525C10.8953 9.58578 10.9559 9.49506 11.2205 9.50262C12.2335 9.50262 13.254 9.50262 14.2444 9.50262C14.509 9.50262 14.5694 9.58578 14.5543 9.8277C14.5391 10.0696 14.5543 10.5232 14.5543 10.8709C14.5512 10.9036 14.5512 10.9365 14.5543 10.9692C14.5556 10.944 14.5556 10.9188 14.5543 10.8936C14.7044 10.5256 14.9561 10.2079 15.2801 9.97768C15.604 9.74742 15.9869 9.61412 16.3838 9.59334C17.2479 9.43189 18.1362 9.45249 18.9919 9.65382C19.5881 9.79199 20.1308 10.102 20.5528 10.5454C20.9747 10.9888 21.2573 11.5462 21.3657 12.1486C21.5713 12.9677 21.6879 13.8067 21.7135 14.6509C21.7588 17.07 21.7135 19.4891 21.7135 21.9083C21.7135 22.1578 21.6454 22.2258 21.3959 22.2258C20.3829 22.2258 19.3624 22.2258 18.372 22.2258C18.1225 22.2258 18.0469 22.1653 18.0545 21.9158C18.0545 19.8218 18.0545 17.7353 18.0545 15.6412C18.0545 15.2783 18.0545 14.8852 18.0016 14.545C17.9689 14.2138 17.8234 13.9038 17.5895 13.6671C17.3555 13.4304 17.0472 13.2813 16.7164 13.2447C16.4173 13.2145 16.1159 13.2145 15.8168 13.2447C15.4951 13.2808 15.1953 13.4256 14.9671 13.6552C14.7389 13.8847 14.596 14.1853 14.5618 14.5072C14.5226 14.8156 14.5024 15.1262 14.5014 15.4371C14.5014 17.574 14.5014 19.7185 14.5014 21.8705C14.5014 22.1653 14.4107 22.2258 14.131 22.2258C13.123 22.2258 12.115 22.2258 11.107 22.2258C10.8727 22.2258 10.8046 22.1578 10.8046 21.9234C10.8953 19.9276 10.8953 17.9091 10.8953 15.8831Z" fill="white"/>
<path d="M9.14132 15.9208C9.14132 17.9368 9.14132 19.9527 9.14132 21.9687C9.14132 22.2106 9.08082 22.2862 8.83134 22.2862C7.81077 22.2862 6.79775 22.2862 5.80741 22.2862C5.57306 22.2862 5.48987 22.2408 5.48987 21.9762C5.48987 17.9443 5.48987 13.9124 5.48987 9.88052C5.48987 9.65372 5.55036 9.57812 5.78471 9.57812C6.81285 9.57812 7.84104 9.57812 8.86161 9.57812C9.12621 9.57812 9.1715 9.66128 9.1715 9.9032C9.14126 11.8763 9.14132 13.9023 9.14132 15.9208Z" fill="white"/>
<path d="M7.32703 5.02009C7.56879 5.01801 7.80851 5.06447 8.03198 5.15672C8.25545 5.24897 8.45814 5.38514 8.62804 5.55714C8.79793 5.72915 8.9315 5.93351 9.02098 6.1581C9.11046 6.3827 9.15395 6.62297 9.14888 6.86468C9.14094 7.35666 8.93993 7.8258 8.58918 8.17089C8.23844 8.51597 7.7661 8.70934 7.27406 8.70928C6.78976 8.68458 6.33279 8.47756 5.99483 8.12979C5.65688 7.78202 5.46304 7.31925 5.45221 6.83444C5.4641 6.34649 5.66734 5.88277 6.01809 5.54334C6.36884 5.20391 6.83895 5.01597 7.32703 5.02009Z" fill="white"/>
</svg>
