<svg width="15" height="15" viewBox="0 0 15 15" fill="none" xmlns="http://www.w3.org/2000/svg">
<path fill-rule="evenodd" clip-rule="evenodd" d="M7.82161 0C7.92394 0.022135 8.02721 0.041486 8.13047 0.060837C8.34847 0.101689 8.56646 0.142541 8.77573 0.209587C10.5193 0.770482 11.695 2.4861 11.5692 4.28057C11.5303 4.84146 11.3277 5.36343 11.1181 5.87842C10.4784 7.45132 9.63603 8.91743 8.77274 10.3746L8.71462 10.4729L8.71459 10.473C8.62248 10.6292 8.53019 10.7857 8.43041 10.9375C7.98529 11.6121 6.99424 11.6231 6.57107 10.9355C5.57104 9.31166 4.61193 7.6639 3.88636 5.89239C3.66679 5.35545 3.45821 4.80952 3.42427 4.22268C3.31549 2.35037 4.68778 0.533948 6.51618 0.120762C6.66521 0.0874178 6.81563 0.0619613 6.96618 0.0364835L6.96618 0.0364827C7.03643 0.0245943 7.10671 0.0127012 7.17688 0H7.82161ZM7.50623 2.16573C6.60002 2.16274 5.86247 2.8923 5.85848 3.79353C5.85548 4.70273 6.59303 5.44627 7.49925 5.44627C8.39947 5.44627 9.13702 4.70872 9.13901 3.8075C9.14101 2.90328 8.40945 2.16873 7.50523 2.16573H7.50623ZM0 11.9804C0.160683 11.2638 0.676667 10.8556 1.27349 10.5203C1.49106 10.3985 1.75055 10.4734 1.87131 10.682C1.98908 10.8865 1.92421 11.1321 1.72261 11.2728C1.67149 11.3084 1.61962 11.3432 1.56771 11.378C1.4129 11.482 1.25783 11.5861 1.12179 11.7109C0.797429 12.0083 0.800423 12.2928 1.11081 12.6052C1.47709 12.9744 1.94317 13.178 2.42023 13.3557C3.36737 13.709 4.35342 13.8906 5.35345 14.0024C6.42734 14.1222 7.50521 14.1511 8.58409 14.0892C10.0262 14.0054 11.4504 13.8188 12.7978 13.2639C13.1321 13.1261 13.4575 12.9415 13.7469 12.7259C14.2459 12.3537 14.2379 11.9894 13.7569 11.5971C13.6273 11.4923 13.4841 11.403 13.3419 11.3143L13.3218 11.3017C13.0802 11.151 12.9994 10.8985 13.1291 10.678C13.2579 10.4584 13.5293 10.3895 13.7649 10.5462L13.8153 10.5797C14.0617 10.7434 14.312 10.9096 14.5204 11.1161C15.1691 11.7578 15.1541 12.5792 14.5094 13.2269C14.1491 13.5892 13.711 13.8317 13.2469 14.0324C12.3457 14.4236 11.3965 14.6392 10.4305 14.7859C9.27972 14.9605 8.12 15.0224 6.95729 14.9895C5.51913 14.9485 4.09693 14.7889 2.71266 14.3787C2.14577 14.211 1.59486 14.0024 1.08885 13.691C0.562891 13.3677 0.132738 12.9684 0.000997961 12.3307V11.9794L0 11.9804ZM5.43875 10.7756C5.43892 10.7756 5.4391 10.7756 5.43927 10.7755V10.7765C5.4391 10.7762 5.43892 10.7759 5.43875 10.7756ZM5.43875 10.7756C5.40155 10.7124 5.36457 10.6502 5.32795 10.5885C5.22719 10.419 5.12918 10.254 5.03707 10.0859C4.98916 9.99807 4.93527 9.96912 4.83946 9.99507C4.71829 10.0283 4.59649 10.0592 4.47474 10.0902C4.25651 10.1456 4.03842 10.201 3.82446 10.2695C3.45618 10.3873 3.10587 10.551 2.82642 10.8314C2.44018 11.2187 2.4322 11.7386 2.82542 12.1169C2.98411 12.2696 3.17573 12.4003 3.37434 12.4981C4.11588 12.8624 4.9203 12.9962 5.7307 13.094C6.72275 13.2137 7.71778 13.2217 8.71282 13.1489C9.52722 13.089 10.3326 12.9722 11.1101 12.7127C11.5053 12.581 11.8876 12.4183 12.186 12.1129C12.5513 11.7386 12.5582 11.2296 12.192 10.8574C12.0702 10.7336 11.9265 10.6248 11.7758 10.538C11.2618 10.2406 10.6929 10.1029 10.1171 9.99208C10.0801 9.98509 10.0153 10.007 9.99729 10.036C9.88706 10.2136 9.78176 10.3939 9.67367 10.5789C9.63595 10.6435 9.59789 10.7087 9.55916 10.7745C9.65866 10.7958 9.75837 10.8157 9.85789 10.8355C10.4651 10.9567 11.0657 11.0765 11.5742 11.4881C11.4175 11.6009 11.2638 11.7037 11.0971 11.7746C10.5133 12.0241 9.8935 12.1349 9.26773 12.2097C7.95731 12.3664 6.64789 12.3574 5.34246 12.1538C4.80153 12.07 4.26758 11.9562 3.77056 11.7157C3.68962 11.6765 3.61422 11.6262 3.53098 11.5707C3.48695 11.5414 3.44072 11.5106 3.39031 11.4791C3.94158 11.0723 4.55654 10.9508 5.17732 10.8281C5.2644 10.8109 5.3516 10.7937 5.43875 10.7756Z" fill="black"/>
</svg>
