<svg width="15" height="12" viewBox="0 0 15 12" fill="none" xmlns="http://www.w3.org/2000/svg">
<path fill-rule="evenodd" clip-rule="evenodd" d="M0.0219629 1.12069C0.0149876 1.14613 0.00800823 1.17159 0.000753964 1.19698V1.5768C0.101689 2.07774 0.432159 2.38652 0.844124 2.65793C2.2495 3.58432 3.64933 4.51904 5.04909 5.45371C5.5721 5.80294 6.09509 6.15216 6.61837 6.50094C7.24566 6.91889 7.75333 6.91964 8.38137 6.50094L8.38345 6.49956C9.47436 5.77254 10.5653 5.04552 11.6562 4.31775C11.9228 4.14002 12.1897 3.96279 12.4566 3.78557C13.1081 3.35297 13.7595 2.92042 14.4061 2.48073C15.0977 2.01045 15.1986 1.08184 14.6386 0.460529C14.3418 0.130807 13.9627 0.000712628 13.5261 0.000712628C9.77288 0.00146028 6.01892 0.00146028 2.26572 0.00146028H2.26544C2.1752 0.00146028 2.08504 0.0010948 1.99493 0.000729529C1.79683 -7.34226e-05 1.59899 -0.00087539 1.40114 0.00220796C0.778329 0.0119277 0.264681 0.378285 0.0732778 0.946513C0.0540018 1.00382 0.037993 1.06222 0.0219629 1.12069ZM0.00074765 3.15936V10.0417H0C0.0725239 10.3452 0.187665 10.6248 0.42019 10.8446C0.712528 11.1213 1.06169 11.2379 1.45945 11.2379C2.81704 11.2374 4.18968 11.2376 5.54696 11.2378C6.21988 11.2378 6.88903 11.2379 7.55071 11.2379C8.21613 11.2379 8.88156 11.238 9.54698 11.2381C10.8778 11.2383 12.2087 11.2384 13.5395 11.2379C14.2446 11.2372 14.7881 10.8357 14.9504 10.1927C14.9803 10.0753 14.9945 9.95118 14.9945 9.83081C14.9967 7.64388 14.9967 5.45769 14.9967 3.27076V3.15114C14.9741 3.16559 14.9539 3.17835 14.9352 3.19011C14.9027 3.21059 14.875 3.22804 14.848 3.24609C14.1407 3.71747 13.4335 4.18904 12.7263 4.66064C11.4289 5.52572 10.1315 6.39087 8.83371 7.25509C7.9537 7.84126 7.03706 7.83678 6.15257 7.24687C4.12414 5.89359 2.09497 4.54031 0.0657948 3.18777C0.0532083 3.17954 0.0387411 3.17413 0.0242198 3.16871C0.0163135 3.16575 0.00839121 3.16279 0.00074765 3.15936Z" fill="black"/>
</svg>
