<svg width="195" height="65" viewBox="0 0 195 65" fill="none" xmlns="http://www.w3.org/2000/svg">
<path d="M86.2659 58.8438C85.9567 58.8438 85.6668 58.7987 85.4091 58.7085C85.145 58.6183 84.926 58.4766 84.7328 58.2962C84.546 58.1159 84.3978 57.884 84.2947 57.6134C84.1917 57.3429 84.1401 57.0272 84.1401 56.673C84.1401 56.3187 84.1917 56.0159 84.2947 55.7518C84.3978 55.4877 84.546 55.2622 84.7392 55.069C84.926 54.8822 85.1515 54.7405 85.4156 54.6374C85.6797 54.5344 85.9631 54.4893 86.2852 54.4893C86.4462 54.4893 86.5944 54.5021 86.7361 54.5215C86.8778 54.5408 87.0066 54.5666 87.1226 54.5988C87.2257 54.6245 87.3287 54.6632 87.4382 54.7018C87.5477 54.7405 87.6508 54.792 87.7539 54.8435V55.5135H87.7023C87.6444 55.4684 87.5735 55.4168 87.4898 55.3524C87.3996 55.288 87.2965 55.2236 87.1677 55.1656C87.0453 55.1077 86.9165 55.0626 86.7683 55.0239C86.6266 54.9853 86.4591 54.9659 86.2723 54.9659C86.0726 54.9659 85.8794 55.0046 85.699 55.0754C85.5186 55.1463 85.3576 55.2558 85.2223 55.3975C85.0871 55.5392 84.984 55.7196 84.9067 55.9322C84.8294 56.1512 84.7972 56.3895 84.7972 56.6601C84.7972 56.9499 84.8358 57.1947 84.9131 57.4009C84.9904 57.607 85.0999 57.7809 85.2352 57.9291C85.3705 58.0708 85.5251 58.1738 85.699 58.2447C85.8794 58.3156 86.0662 58.3478 86.2659 58.3478C86.4462 58.3478 86.6202 58.3284 86.7748 58.2898C86.9294 58.2511 87.0711 58.1996 87.187 58.1416C87.303 58.0837 87.406 58.0257 87.4898 57.9613C87.5735 57.9033 87.6444 57.8453 87.6895 57.8067H87.7345V58.4702C87.6315 58.5153 87.5349 58.5539 87.4382 58.5926C87.3481 58.6312 87.2321 58.6699 87.1033 58.7085C86.968 58.7472 86.8392 58.7794 86.7168 58.7987C86.6008 58.818 86.4462 58.8309 86.253 58.8309L86.2659 58.8438Z" fill="#AD0000"/>
<path d="M91.6961 55.0497C91.8765 55.2365 92.0182 55.4619 92.1148 55.7325C92.2179 56.003 92.263 56.3187 92.263 56.6665C92.263 57.0144 92.2115 57.3107 92.1148 57.5877C92.0182 57.8647 91.8765 58.0901 91.6897 58.2769C91.4964 58.4702 91.271 58.6183 91.0133 58.7085C90.7557 58.7987 90.4722 58.8502 90.1566 58.8502C89.841 58.8502 89.5447 58.8051 89.287 58.7085C89.0293 58.6119 88.8103 58.4702 88.6235 58.2834C88.4431 58.0965 88.3014 57.8711 88.2048 57.5941C88.1082 57.3236 88.0566 57.0144 88.0566 56.673C88.0566 56.3316 88.1082 56.0095 88.2048 55.7454C88.3014 55.4813 88.4431 55.2494 88.6299 55.0561C88.8103 54.8693 89.0358 54.7276 89.2934 54.631C89.5511 54.5343 89.841 54.4893 90.163 54.4893C90.4851 54.4893 90.7814 54.5408 91.0391 54.6374C91.2968 54.734 91.5158 54.8758 91.6961 55.0561V55.0497ZM91.6124 56.6665C91.6124 56.3895 91.5802 56.1447 91.5093 55.9257C91.4385 55.7132 91.3483 55.5328 91.2195 55.3911C91.0971 55.2494 90.9425 55.1399 90.7621 55.069C90.5817 54.9981 90.3821 54.9595 90.163 54.9595C89.944 54.9595 89.7315 54.9917 89.5575 55.0626C89.3836 55.1334 89.2355 55.2429 89.1002 55.3911C88.9714 55.5328 88.8812 55.7132 88.8103 55.9257C88.7459 56.1447 88.7072 56.3831 88.7072 56.6601C88.7072 57.2076 88.8361 57.6328 89.1002 57.9226C89.3643 58.2125 89.7121 58.3607 90.1566 58.3607C90.6011 58.3607 90.9489 58.2125 91.2066 57.9226C91.4642 57.6328 91.5995 57.2076 91.5995 56.6601L91.6124 56.6665Z" fill="#AD0000"/>
<path d="M97.0363 58.7667H96.405V55.153L95.1682 57.6137H94.7817L93.5514 55.153V58.7667H92.9587V54.5732H93.8219L95.0072 56.9051L96.1538 54.5732H97.0298V58.7667H97.0363Z" fill="#AD0000"/>
<path d="M102.08 58.7667H101.449V55.153L100.212 57.6137H99.8254L98.5951 55.153V58.7667H98.0024V54.5732H98.8656L100.051 56.9051L101.197 54.5732H102.074V58.7667H102.08Z" fill="#AD0000"/>
<path d="M103.046 58.7667V54.5732H106.022V55.0692H103.684V56.2158H105.868V56.7119H103.684V58.2707H106.022V58.7667H103.046Z" fill="#AD0000"/>
<path d="M110.396 58.7667H109.578L108.071 57.0983H107.349V58.7667H106.718V54.5732H107.942C108.212 54.5732 108.444 54.5861 108.625 54.6119C108.812 54.6377 108.985 54.7021 109.153 54.7923C109.32 54.8889 109.449 55.0048 109.546 55.153C109.642 55.3011 109.694 55.4879 109.694 55.707C109.694 56.0162 109.604 56.2738 109.43 56.48C109.256 56.6861 109.011 56.8407 108.708 56.9373L110.403 58.7603L110.396 58.7667ZM109.031 55.7521C109.031 55.6297 109.005 55.5202 108.96 55.43C108.908 55.3334 108.837 55.2561 108.734 55.1981C108.644 55.1465 108.541 55.1079 108.419 55.0886C108.303 55.0692 108.154 55.0564 107.974 55.0564H107.349V56.641H107.903C108.084 56.641 108.245 56.6281 108.393 56.5959C108.541 56.5637 108.663 56.5122 108.766 56.422C108.857 56.3447 108.927 56.2481 108.966 56.1385C109.011 56.029 109.031 55.9002 109.031 55.7585V55.7521Z" fill="#AD0000"/>
<path d="M112.438 58.7667H110.589V58.3351H111.195V54.9984H110.589V54.5732H112.438V54.9984H111.833V58.3351H112.438V58.7667Z" fill="#AD0000"/>
<path d="M115.073 58.8438C114.764 58.8438 114.474 58.7987 114.216 58.7085C113.952 58.6183 113.733 58.4766 113.54 58.2962C113.353 58.1159 113.205 57.884 113.102 57.6134C112.999 57.3429 112.947 57.0272 112.947 56.673C112.947 56.3187 112.999 56.0159 113.102 55.7518C113.205 55.4877 113.353 55.2622 113.546 55.069C113.733 54.8822 113.958 54.7405 114.222 54.6374C114.487 54.5344 114.77 54.4893 115.092 54.4893C115.253 54.4893 115.401 54.5021 115.543 54.5215C115.685 54.5408 115.814 54.5666 115.929 54.5988C116.033 54.6245 116.136 54.6632 116.245 54.7018C116.355 54.7405 116.458 54.792 116.561 54.8435V55.5135H116.509C116.451 55.4684 116.38 55.4168 116.297 55.3524C116.206 55.288 116.103 55.2236 115.975 55.1656C115.852 55.1077 115.723 55.0626 115.575 55.0239C115.433 54.9853 115.266 54.9659 115.079 54.9659C114.879 54.9659 114.686 55.0046 114.506 55.0754C114.326 55.1463 114.164 55.2558 114.029 55.3975C113.894 55.5392 113.791 55.7196 113.714 55.9322C113.636 56.1512 113.604 56.3895 113.604 56.6601C113.604 56.9499 113.643 57.1947 113.72 57.4009C113.797 57.607 113.907 57.7809 114.042 57.9291C114.177 58.0708 114.332 58.1738 114.506 58.2447C114.686 58.3156 114.873 58.3478 115.073 58.3478C115.253 58.3478 115.427 58.3284 115.582 58.2898C115.736 58.2511 115.878 58.1996 115.994 58.1416C116.11 58.0837 116.213 58.0257 116.297 57.9613C116.38 57.9033 116.451 57.8453 116.496 57.8067H116.541V58.4702C116.438 58.5153 116.342 58.5539 116.245 58.5926C116.155 58.6312 116.039 58.6699 115.91 58.7085C115.775 58.7472 115.646 58.7794 115.524 58.7987C115.408 58.818 115.253 58.8309 115.06 58.8309L115.073 58.8438Z" fill="#AD0000"/>
<path d="M116.632 58.7667L118.236 54.5732H119.015L120.619 58.7667H119.949L119.517 57.5943H117.701L117.269 58.7667H116.632ZM119.344 57.1177L118.609 55.1401L117.875 57.1177H119.344Z" fill="#AD0000"/>
<path d="M123.827 58.7667H121.07V54.5732H121.701V58.2707H123.827V58.7667Z" fill="#AD0000"/>
<path d="M128.226 58.8438C127.917 58.8438 127.627 58.7987 127.37 58.7085C127.105 58.6183 126.886 58.4766 126.693 58.2962C126.506 58.1159 126.358 57.884 126.255 57.6134C126.152 57.3429 126.101 57.0272 126.101 56.673C126.101 56.3187 126.152 56.0159 126.255 55.7518C126.358 55.4877 126.506 55.2622 126.7 55.069C126.886 54.8822 127.112 54.7405 127.376 54.6374C127.64 54.5344 127.924 54.4893 128.246 54.4893C128.407 54.4893 128.555 54.5021 128.697 54.5215C128.838 54.5408 128.967 54.5666 129.083 54.5988C129.186 54.6245 129.289 54.6632 129.399 54.7018C129.508 54.7405 129.611 54.792 129.714 54.8435V55.5135H129.663C129.605 55.4684 129.534 55.4168 129.45 55.3524C129.36 55.288 129.257 55.2236 129.128 55.1656C129.006 55.1077 128.877 55.0626 128.729 55.0239C128.587 54.9853 128.42 54.9659 128.233 54.9659C128.033 54.9659 127.84 55.0046 127.659 55.0754C127.479 55.1463 127.318 55.2558 127.183 55.3975C127.048 55.5392 126.944 55.7196 126.867 55.9322C126.79 56.1512 126.758 56.3895 126.758 56.6601C126.758 56.9499 126.796 57.1947 126.874 57.4009C126.951 57.607 127.06 57.7809 127.196 57.9291C127.331 58.0708 127.486 58.1738 127.659 58.2447C127.84 58.3156 128.027 58.3478 128.226 58.3478C128.407 58.3478 128.581 58.3284 128.735 58.2898C128.89 58.2511 129.032 58.1996 129.147 58.1416C129.263 58.0837 129.366 58.0257 129.45 57.9613C129.534 57.9033 129.605 57.8453 129.65 57.8067H129.695V58.4702C129.592 58.5153 129.495 58.5539 129.399 58.5926C129.309 58.6312 129.193 58.6699 129.064 58.7085C128.928 58.7472 128.8 58.7794 128.677 58.7987C128.561 58.818 128.407 58.8309 128.213 58.8309L128.226 58.8438Z" fill="#AD0000"/>
<path d="M133.657 55.0497C133.837 55.2365 133.979 55.4619 134.076 55.7325C134.179 56.003 134.224 56.3187 134.224 56.6665C134.224 57.0144 134.172 57.3107 134.076 57.5877C133.979 57.8647 133.837 58.0901 133.65 58.2769C133.457 58.4702 133.232 58.6183 132.974 58.7085C132.716 58.7987 132.433 58.8502 132.117 58.8502C131.802 58.8502 131.505 58.8051 131.248 58.7085C130.99 58.6119 130.771 58.4702 130.584 58.2834C130.404 58.0965 130.262 57.8711 130.165 57.5941C130.069 57.3236 130.017 57.0144 130.017 56.673C130.017 56.3316 130.069 56.0095 130.165 55.7454C130.262 55.4813 130.404 55.2494 130.591 55.0561C130.771 54.8693 130.996 54.7276 131.254 54.631C131.512 54.5343 131.802 54.4893 132.124 54.4893C132.446 54.4893 132.742 54.5408 133 54.6374C133.257 54.734 133.476 54.8758 133.657 55.0561V55.0497ZM133.573 56.6665C133.573 56.3895 133.541 56.1447 133.47 55.9257C133.399 55.7132 133.309 55.5328 133.18 55.3911C133.058 55.2494 132.903 55.1399 132.723 55.069C132.542 54.9981 132.343 54.9595 132.124 54.9595C131.905 54.9595 131.692 54.9917 131.518 55.0626C131.344 55.1334 131.196 55.2429 131.061 55.3911C130.932 55.5328 130.842 55.7132 130.771 55.9257C130.707 56.1447 130.668 56.3831 130.668 56.6601C130.668 57.2076 130.797 57.6328 131.061 57.9226C131.325 58.2125 131.673 58.3607 132.117 58.3607C132.562 58.3607 132.91 58.2125 133.167 57.9226C133.425 57.6328 133.56 57.2076 133.56 56.6601L133.573 56.6665Z" fill="#AD0000"/>
<path d="M138.327 58.7667H137.618L135.518 55.153V58.7667H134.926V54.5732H135.821L137.734 57.8971V54.5732H138.327V58.7667Z" fill="#AD0000"/>
<path d="M140.401 58.7667V55.0692H138.803V54.5732H142.63V55.0692H141.032V58.7667H140.401Z" fill="#AD0000"/>
<path d="M146.798 58.7667H145.979L144.472 57.0983H143.751V58.7667H143.119V54.5732H144.343C144.614 54.5732 144.846 54.5861 145.026 54.6119C145.213 54.6377 145.387 54.7021 145.554 54.7923C145.722 54.8889 145.851 55.0048 145.947 55.153C146.044 55.3011 146.095 55.4879 146.095 55.707C146.095 56.0162 146.005 56.2738 145.831 56.48C145.657 56.6861 145.413 56.8407 145.11 56.9373L146.804 58.7603L146.798 58.7667ZM145.432 55.7521C145.432 55.6297 145.406 55.5202 145.361 55.43C145.31 55.3334 145.239 55.2561 145.136 55.1981C145.045 55.1465 144.942 55.1079 144.82 55.0886C144.704 55.0692 144.556 55.0564 144.375 55.0564H143.751V56.641H144.305C144.485 56.641 144.646 56.6281 144.794 56.5959C144.942 56.5637 145.065 56.5122 145.168 56.422C145.258 56.3447 145.329 56.2481 145.367 56.1385C145.413 56.029 145.432 55.9002 145.432 55.7585V55.7521Z" fill="#AD0000"/>
<path d="M146.656 58.7667L148.26 54.5732H149.039L150.643 58.7667H149.973L149.542 57.5943H147.725L147.294 58.7667H146.656ZM149.368 57.1177L148.634 55.1401L147.899 57.1177H149.368Z" fill="#AD0000"/>
<path d="M152.956 58.8438C152.647 58.8438 152.357 58.7987 152.099 58.7085C151.835 58.6183 151.616 58.4766 151.423 58.2962C151.236 58.1159 151.088 57.884 150.985 57.6134C150.882 57.3429 150.83 57.0272 150.83 56.673C150.83 56.3187 150.882 56.0159 150.985 55.7518C151.088 55.4877 151.236 55.2622 151.429 55.069C151.616 54.8822 151.841 54.7405 152.106 54.6374C152.37 54.5344 152.653 54.4893 152.975 54.4893C153.136 54.4893 153.284 54.5021 153.426 54.5215C153.568 54.5408 153.697 54.5666 153.813 54.5988C153.916 54.6245 154.019 54.6632 154.128 54.7018C154.238 54.7405 154.341 54.792 154.444 54.8435V55.5135H154.392C154.334 55.4684 154.263 55.4168 154.18 55.3524C154.09 55.288 153.986 55.2236 153.858 55.1656C153.735 55.1077 153.606 55.0626 153.458 55.0239C153.317 54.9853 153.149 54.9659 152.962 54.9659C152.763 54.9659 152.569 55.0046 152.389 55.0754C152.209 55.1463 152.048 55.2558 151.912 55.3975C151.777 55.5392 151.674 55.7196 151.597 55.9322C151.519 56.1512 151.487 56.3895 151.487 56.6601C151.487 56.9499 151.526 57.1947 151.603 57.4009C151.68 57.607 151.79 57.7809 151.925 57.9291C152.06 58.0708 152.215 58.1738 152.389 58.2447C152.569 58.3156 152.756 58.3478 152.956 58.3478C153.136 58.3478 153.31 58.3284 153.465 58.2898C153.619 58.2511 153.761 58.1996 153.877 58.1416C153.993 58.0837 154.096 58.0257 154.18 57.9613C154.263 57.9033 154.334 57.8453 154.379 57.8067H154.424V58.4702C154.321 58.5153 154.225 58.5539 154.128 58.5926C154.038 58.6312 153.922 58.6699 153.793 58.7085C153.658 58.7472 153.529 58.7794 153.407 58.7987C153.291 58.818 153.136 58.8309 152.943 58.8309L152.956 58.8438Z" fill="#AD0000"/>
<path d="M156.138 58.7667V55.0692H154.54V54.5732H158.367V55.0692H156.769V58.7667H156.138Z" fill="#AD0000"/>
<path d="M163.732 55.0692H161.517V56.2544H163.636V56.7504H161.517V58.7731H160.885V54.5796H163.732V55.0756V55.0692Z" fill="#AD0000"/>
<path d="M165.961 58.8505C165.684 58.8505 165.439 58.8183 165.233 58.7539C165.027 58.6895 164.847 58.5929 164.699 58.4641C164.531 58.3159 164.415 58.142 164.351 57.9358C164.28 57.7297 164.248 57.4785 164.248 57.1822V54.5669H164.879V57.1822C164.879 57.3754 164.892 57.5365 164.918 57.6717C164.943 57.807 165.001 57.923 165.079 58.026C165.162 58.1355 165.278 58.2257 165.427 58.2837C165.575 58.3417 165.749 58.3739 165.961 58.3739C166.161 58.3739 166.335 58.3481 166.489 58.2837C166.644 58.2257 166.76 58.142 166.85 58.026C166.927 57.9165 166.985 57.8006 167.011 57.6717C167.037 57.5429 167.056 57.3819 167.056 57.1951V54.5669H167.688V57.1822C167.688 57.4721 167.655 57.7233 167.585 57.9294C167.52 58.1355 167.398 58.3159 167.23 58.4576C167.082 58.5864 166.902 58.6831 166.702 58.7475C166.502 58.8119 166.251 58.8441 165.961 58.8441V58.8505Z" fill="#AD0000"/>
<path d="M172.274 58.7667H171.456L169.949 57.0983H169.227V58.7667H168.596V54.5732H169.82C170.09 54.5732 170.322 54.5861 170.503 54.6119C170.689 54.6377 170.863 54.7021 171.031 54.7923C171.198 54.8889 171.327 55.0048 171.424 55.153C171.52 55.3011 171.572 55.4879 171.572 55.707C171.572 56.0162 171.482 56.2738 171.308 56.48C171.134 56.6861 170.889 56.8407 170.586 56.9373L172.281 58.7603L172.274 58.7667ZM170.908 55.7521C170.908 55.6297 170.883 55.5202 170.838 55.43C170.786 55.3334 170.715 55.2561 170.612 55.1981C170.522 55.1465 170.419 55.1079 170.297 55.0886C170.181 55.0692 170.032 55.0564 169.852 55.0564H169.227V56.641H169.781C169.962 56.641 170.123 56.6281 170.271 56.5959C170.419 56.5637 170.541 56.5122 170.644 56.422C170.735 56.3447 170.805 56.2481 170.844 56.1385C170.889 56.029 170.908 55.9002 170.908 55.7585V55.7521Z" fill="#AD0000"/>
<path d="M176.055 58.7667H175.347L173.247 55.153V58.7667H172.654V54.5732H173.549L175.463 57.8971V54.5732H176.055V58.7667Z" fill="#AD0000"/>
<path d="M178.677 58.7667H176.828V58.3351H177.434V54.9984H176.828V54.5732H178.677V54.9984H178.072V58.3351H178.677V58.7667Z" fill="#AD0000"/>
<path d="M180.571 58.7667V55.0692H178.973V54.5732H182.799V55.0692H181.202V58.7667H180.571Z" fill="#AD0000"/>
<path d="M184.938 58.8505C184.661 58.8505 184.417 58.8183 184.21 58.7539C184.004 58.6895 183.824 58.5929 183.676 58.4641C183.508 58.3159 183.392 58.142 183.328 57.9358C183.257 57.7297 183.225 57.4785 183.225 57.1822V54.5669H183.856V57.1822C183.856 57.3754 183.869 57.5365 183.895 57.6717C183.921 57.807 183.979 57.923 184.056 58.026C184.14 58.1355 184.255 58.2257 184.404 58.2837C184.552 58.3417 184.726 58.3739 184.938 58.3739C185.138 58.3739 185.312 58.3481 185.467 58.2837C185.621 58.2257 185.737 58.142 185.827 58.026C185.905 57.9165 185.963 57.8006 185.988 57.6717C186.014 57.5429 186.033 57.3819 186.033 57.1951V54.5669H186.665V57.1822C186.665 57.4721 186.632 57.7233 186.562 57.9294C186.497 58.1355 186.375 58.3159 186.207 58.4576C186.059 58.5864 185.879 58.6831 185.679 58.7475C185.479 58.8119 185.228 58.8441 184.938 58.8441V58.8505Z" fill="#AD0000"/>
<path d="M191.251 58.7667H190.433L188.926 57.0983H188.204V58.7667H187.573V54.5732H188.797C189.067 54.5732 189.299 54.5861 189.48 54.6119C189.667 54.6377 189.84 54.7021 190.008 54.7923C190.175 54.8889 190.304 55.0048 190.401 55.153C190.497 55.3011 190.549 55.4879 190.549 55.707C190.549 56.0162 190.459 56.2738 190.285 56.48C190.111 56.6861 189.866 56.8407 189.563 56.9373L191.258 58.7603L191.251 58.7667ZM189.886 55.7521C189.886 55.6297 189.86 55.5202 189.815 55.43C189.763 55.3334 189.692 55.2561 189.589 55.1981C189.499 55.1465 189.396 55.1079 189.274 55.0886C189.158 55.0692 189.009 55.0564 188.829 55.0564H188.204V56.641H188.758C188.939 56.641 189.1 56.6281 189.248 56.5959C189.396 56.5637 189.518 56.5122 189.621 56.422C189.712 56.3447 189.782 56.2481 189.821 56.1385C189.866 56.029 189.886 55.9002 189.886 55.7585V55.7521Z" fill="#AD0000"/>
<path d="M191.631 58.7667V54.5732H194.607V55.0692H192.269V56.2158H194.452V56.7119H192.269V58.2707H194.607V58.7667H191.631Z" fill="#AD0000"/>
<path d="M103.085 24.1496H98.5178V12.0201L95.1875 19.8466H92.0569L88.7266 12.0201V24.1431H84.4043V5.85547H89.6993L93.7511 14.8866L97.7899 5.85547H103.085V24.1496Z" fill="#CB2026"/>
<path d="M123.524 15.0092C123.524 17.9659 122.732 20.2913 121.153 21.9855C119.575 23.6796 117.404 24.5299 114.654 24.5299C111.903 24.5299 109.726 23.6732 108.154 21.9533C106.582 20.2334 105.797 17.9208 105.797 15.0028C105.797 12.0848 106.582 9.74001 108.154 8.03299C109.726 6.32597 111.89 5.46924 114.654 5.46924C117.417 5.46924 119.569 6.31953 121.153 8.02011C122.738 9.72069 123.524 12.0461 123.524 15.0028V15.0092ZM118.783 14.9964C118.783 13.9077 118.673 12.9801 118.448 12.2136C118.222 11.447 117.92 10.8158 117.546 10.3262C117.153 9.82375 116.709 9.46947 116.213 9.25045C115.717 9.03144 115.201 8.92193 114.673 8.92193C114.106 8.92193 113.597 9.025 113.14 9.22469C112.683 9.42438 112.238 9.7851 111.813 10.3004C111.439 10.7771 111.13 11.4084 110.898 12.1943C110.666 12.9801 110.551 13.9206 110.551 15.0092C110.551 16.0979 110.66 17.0641 110.879 17.8049C111.098 18.5457 111.401 19.1641 111.787 19.6665C112.18 20.1754 112.625 20.5361 113.127 20.7551C113.63 20.9741 114.145 21.0772 114.673 21.0772C115.201 21.0772 115.736 20.9613 116.245 20.7294C116.754 20.4975 117.192 20.1367 117.559 19.6407C117.952 19.1061 118.255 18.4877 118.467 17.7791C118.68 17.0705 118.789 16.143 118.789 14.9964H118.783Z" fill="#CB2026"/>
<path d="M142.585 15.0219C142.585 16.7224 142.211 18.2491 141.464 19.5954C140.717 20.9417 139.776 21.9788 138.636 22.7002C137.683 23.3122 136.652 23.7116 135.531 23.8855C134.41 24.0594 133.225 24.1496 131.962 24.1496H126.236V5.85547H131.911C133.199 5.85547 134.397 5.93921 135.525 6.10025C136.645 6.26129 137.702 6.66067 138.681 7.29194C139.886 8.06493 140.832 9.10203 141.528 10.4032C142.224 11.7109 142.572 13.2504 142.572 15.0154L142.585 15.0219ZM137.869 14.9832C137.869 13.7786 137.663 12.748 137.251 11.8912C136.839 11.0345 136.201 10.3646 135.338 9.88146C134.713 9.54006 134.062 9.34681 133.38 9.3146C132.697 9.2824 131.879 9.26307 130.932 9.26307H130.848V20.7162H130.932C131.962 20.7162 132.832 20.6969 133.541 20.6582C134.249 20.6196 134.926 20.4006 135.563 20.0012C136.317 19.5245 136.89 18.8739 137.283 18.0365C137.676 17.1991 137.876 16.1813 137.876 14.9768L137.869 14.9832Z" fill="#CB2026"/>
<path d="M145.296 24.1496V5.85547H157.671V9.34681H149.87V12.5547H157.059V16.0461H149.87V20.6647H157.671V24.156H145.296V24.1496Z" fill="#CB2026"/>
<path d="M177.698 24.1496H172.094L166.992 17.4439H165.343V24.1496H160.776V5.85547H168.132C169.15 5.85547 170.032 5.91988 170.786 6.04227C171.54 6.17111 172.235 6.43521 172.873 6.83459C173.53 7.25329 174.046 7.7815 174.432 8.42566C174.819 9.06982 175.012 9.88791 175.012 10.8735C175.012 12.2713 174.696 13.4115 174.065 14.2811C173.434 15.1507 172.59 15.8464 171.533 16.3617L177.692 24.1367L177.698 24.1496ZM170.303 11.4597C170.303 11.0023 170.213 10.6029 170.039 10.2744C169.865 9.93944 169.569 9.68822 169.163 9.50785C168.873 9.38546 168.557 9.30816 168.203 9.27595C167.849 9.24375 167.411 9.22442 166.889 9.22442H165.356V14.1522H166.67C167.308 14.1522 167.849 14.1136 168.3 14.0363C168.751 13.959 169.124 13.7915 169.433 13.5403C169.73 13.3084 169.949 13.0378 170.09 12.7158C170.232 12.3937 170.303 11.9814 170.303 11.4597Z" fill="#CB2026"/>
<path d="M194.723 24.1496H190.298L183.244 11.3952V24.1496H179.044V5.85547H184.681L190.517 16.3359V5.85547H194.717V24.1496H194.723Z" fill="#CB2026"/>
<path d="M102.524 42.6248C102.524 43.8164 102.267 44.8729 101.758 45.7876C101.249 46.7023 100.553 47.4559 99.69 48.0486C98.6658 48.7571 97.5643 49.2596 96.3919 49.5559C95.2196 49.8522 93.7058 50.0004 91.8506 50.0004H84.0305V25.9668H91.2644C93.2034 25.9668 94.6592 26.0248 95.6318 26.1343C96.6045 26.2502 97.5321 26.5143 98.421 26.933C99.4002 27.3968 100.109 28.0023 100.566 28.7496C101.023 29.4968 101.242 30.3793 101.242 31.3906C101.242 32.5179 100.901 33.5357 100.225 34.4246C99.5483 35.3135 98.6078 36.0157 97.4161 36.5246V36.6534C99.0394 37.0399 100.296 37.7485 101.191 38.7791C102.08 39.8098 102.524 41.0917 102.524 42.6312V42.6248ZM97.4741 31.8415C97.4741 31.2618 97.3646 30.7593 97.1456 30.3342C96.9266 29.909 96.5723 29.5741 96.0827 29.3229C95.4966 29.033 94.8459 28.8526 94.1245 28.7882C93.403 28.7238 92.411 28.6916 91.142 28.6916H87.6636V35.7322H91.7798C92.9135 35.7322 93.7509 35.6807 94.2855 35.5777C94.8202 35.4746 95.3806 35.262 95.9539 34.9399C96.5014 34.6307 96.8944 34.2185 97.1263 33.7096C97.3582 33.2007 97.4741 32.5823 97.4741 31.8351V31.8415ZM98.756 42.7536C98.756 41.8518 98.6078 41.1045 98.318 40.5183C98.0281 39.9322 97.4355 39.4362 96.5401 39.0239C95.9668 38.7534 95.342 38.5794 94.6656 38.5086C93.9892 38.4313 93.0294 38.3926 91.7798 38.3926H87.6636V47.2691H90.6138C92.1985 47.2691 93.4546 47.2047 94.3693 47.0759C95.284 46.9471 96.0892 46.6701 96.7849 46.2514C97.4677 45.8327 97.9701 45.356 98.2858 44.8213C98.6014 44.2867 98.7624 43.5974 98.7624 42.7471L98.756 42.7536Z" fill="#333333"/>
<path d="M106.132 50.0004V25.9668H123.176V28.8075H109.758V35.3908H122.261V38.2316H109.758V47.1596H123.176V50.0004H106.132Z" fill="#333333"/>
<path d="M146.669 50.0004H142.604L130.558 29.2713V50.0004H127.17V25.9668H132.317L143.287 45.0017V25.9668H146.675V50.0068L146.669 50.0004Z" fill="#333333"/>
<path d="M162.85 50.4381C161.066 50.4381 159.429 50.174 157.935 49.6458C156.441 49.1176 155.146 48.3317 154.064 47.2882C152.975 46.2447 152.138 44.9435 151.538 43.3782C150.939 41.8193 150.643 40.0285 150.643 37.9994C150.643 35.9703 150.933 34.2311 151.513 32.7366C152.092 31.2422 152.936 29.941 154.051 28.8266C155.139 27.7509 156.428 26.9328 157.916 26.3659C159.404 25.7991 161.072 25.5156 162.914 25.5156C163.829 25.5156 164.686 25.5736 165.484 25.696C166.283 25.8119 167.024 25.9665 167.707 26.1469C168.293 26.3079 168.892 26.5076 169.51 26.7524C170.129 26.9972 170.734 27.2613 171.333 27.5512V31.4097H171.037C170.721 31.152 170.309 30.8428 169.813 30.4757C169.311 30.1085 168.705 29.7478 167.984 29.3935C167.288 29.0585 166.534 28.788 165.716 28.5689C164.898 28.3564 163.951 28.2469 162.876 28.2469C161.716 28.2469 160.615 28.4594 159.578 28.8781C158.54 29.2968 157.632 29.9152 156.846 30.7333C156.08 31.5514 155.481 32.5821 155.049 33.8188C154.624 35.0556 154.405 36.447 154.405 37.9994C154.405 39.6485 154.63 41.0656 155.081 42.2509C155.532 43.4426 156.151 44.4475 156.93 45.2591C157.684 46.0579 158.579 46.6569 159.603 47.0563C160.628 47.4557 161.716 47.6618 162.863 47.6618C163.913 47.6618 164.885 47.5523 165.774 47.3204C166.663 47.095 167.462 46.8115 168.158 46.4637C168.828 46.1287 169.407 45.7873 169.897 45.4395C170.387 45.0916 170.767 44.7889 171.05 44.5441H171.327V48.3575C170.728 48.6023 170.168 48.8406 169.633 49.0661C169.098 49.2915 168.461 49.5106 167.7 49.7296C166.908 49.955 166.174 50.1289 165.497 50.2449C164.821 50.3608 163.939 50.4253 162.85 50.4253V50.4381Z" fill="#333333"/>
<path d="M194.51 50.0004H190.884V38.2316H178.342V50.0004H174.715V25.9668H178.342V35.3973H190.884V25.9668H194.51V50.0068V50.0004Z" fill="#333333"/>
<path d="M73.3697 0V64.4159H63.9714V18.7257L58.6507 22.5649C57.8133 28.5298 54.1158 33.5542 49.0463 36.118L52.5312 38.6624C57.6522 42.3986 59.5267 49.2653 56.7826 54.979C56.409 55.752 55.971 56.5314 55.4557 57.3044C50.8113 64.2678 41.9605 64.4095 41.9605 64.4095H16.5098V31.7635L25.9081 39.0232V55.0176H42.1344C42.2826 55.0047 42.4308 54.9919 42.5789 54.9725C47.5583 54.2962 49.0592 47.7644 45.001 44.8013L9.40472 18.8352V64.4159H0V0L8.09708 6.25479L40.4983 29.8825C45.2329 29.2319 49.7613 24.8259 49.7613 19.9754C49.7613 15.4405 46.9592 12.458 43.0878 11.4531H26.1078L16.5098 4.82475V2.05487H42.7271C43.3648 2.1064 43.9832 2.19014 44.6016 2.30609C44.6016 2.30609 44.6145 2.30609 44.6209 2.30609C50.1671 3.38184 54.7922 7.16305 57.1498 12.2777L73.3697 0Z" fill="#D4222A"/>
<path d="M57.2915 53.3819C56.8148 54.6767 56.1578 56.0037 55.2817 57.3177C50.6567 64.2618 41.8317 64.4035 41.8317 64.4035H16.4583V31.8541L25.8308 39.0945V55.0374H42.0056C42.3277 55.0116 42.6304 54.9666 42.9267 54.9086C47.6291 53.9552 48.8788 47.7842 45.0009 44.9563L25.0513 30.4048L30.9454 23.1064L52.937 39.146C57.3881 42.3926 59.2175 48.2093 57.2915 53.3819Z" fill="url(#paint0_linear_100_508)"/>
<path d="M58.6443 19.9109C58.6443 29.7923 50.8436 37.8314 41.2585 37.8314L39.1714 29.8696C44.286 29.8696 49.5939 25.1543 49.5939 19.9109C49.5939 15.3889 46.8047 12.4193 42.9462 11.4144H26.0177L16.4519 4.81178V2.04834H42.6305C43.2425 2.09987 43.848 2.18361 44.4471 2.29956C52.5119 3.84554 58.6443 11.1568 58.6443 19.9173V19.9109Z" fill="url(#paint1_linear_100_508)"/>
<defs>
<linearGradient id="paint0_linear_100_508" x1="37.2517" y1="64.4035" x2="37.2517" y2="23.1064" gradientUnits="userSpaceOnUse">
<stop stop-color="#8E1517"/>
<stop offset="0.11" stop-color="#901517" stop-opacity="0.96"/>
<stop offset="0.26" stop-color="#971619" stop-opacity="0.84"/>
<stop offset="0.43" stop-color="#A3181C" stop-opacity="0.65"/>
<stop offset="0.61" stop-color="#B31B20" stop-opacity="0.39"/>
<stop offset="0.81" stop-color="#C71F25" stop-opacity="0.05"/>
<stop offset="0.83" stop-color="#CB2026" stop-opacity="0"/>
</linearGradient>
<linearGradient id="paint1_linear_100_508" x1="32.9359" y1="-3.30462" x2="46.0768" y2="37.1357" gradientUnits="userSpaceOnUse">
<stop stop-color="#9B191D"/>
<stop offset="0.1" stop-color="#9C191D" stop-opacity="0.96"/>
<stop offset="0.22" stop-color="#A1191E" stop-opacity="0.86"/>
<stop offset="0.36" stop-color="#AA1B1F" stop-opacity="0.68"/>
<stop offset="0.52" stop-color="#B51C22" stop-opacity="0.44"/>
<stop offset="0.68" stop-color="#C41F24" stop-opacity="0.13"/>
<stop offset="0.74" stop-color="#CB2026" stop-opacity="0"/>
</linearGradient>
</defs>
</svg>
