<svg width="15" height="16" viewBox="0 0 15 16" fill="none" xmlns="http://www.w3.org/2000/svg">
<path fill-rule="evenodd" clip-rule="evenodd" d="M14.9695 8.06332C14.9797 7.94816 14.9896 7.83626 15 7.72922C14.9918 7.61986 14.985 7.51558 14.9784 7.41483L14.9784 7.41478C14.9641 7.19722 14.9509 6.99615 14.9276 6.79605C14.732 5.12319 14.0617 3.6624 12.9247 2.42405C11.7215 1.11431 10.2359 0.313569 8.4813 0.0135495C8.10473 -0.0505926 7.82126 0.11597 7.76022 0.450129C7.70022 0.778081 7.9123 1.03982 8.29198 1.105C8.94478 1.21776 9.57275 1.41123 10.1645 1.71124C12.7861 3.04064 14.1951 5.75426 13.7947 8.69135C13.7523 8.99964 13.9541 9.28725 14.2437 9.33277C14.5655 9.38243 14.85 9.18172 14.8903 8.85377C14.923 8.58569 14.947 8.31663 14.9695 8.06339L14.9695 8.06332ZM4.42587 1.66066C4.1062 1.16924 3.6272 0.941643 3.19683 0.92716L3.19786 0.928194C2.71783 0.923022 2.42092 1.02234 2.14366 1.192C1.98218 1.29041 1.82056 1.3884 1.65896 1.48638L1.65894 1.48639L1.65893 1.4864L1.65891 1.48641C1.38051 1.6552 1.10214 1.82397 0.824607 1.99481C0.270089 2.33622 -0.00510117 2.83694 7.15794e-05 3.48457C0.0135207 5.09536 0.285607 6.66166 0.86392 8.16693C2.08365 11.3378 4.21172 13.7111 7.19536 15.3229C7.73953 15.6167 8.29612 15.6343 8.83616 15.3291C9.33481 15.0477 9.82312 14.7477 10.3031 14.4363C11.0708 13.9376 11.2973 12.991 10.8411 12.1965C10.5566 11.6999 10.2587 11.2106 9.94933 10.7285C9.44344 9.94015 8.4751 9.71876 7.66712 10.1926C7.55228 10.2598 7.43901 10.3294 7.32573 10.399C7.21244 10.4685 7.09915 10.5381 6.98431 10.6054C6.71119 10.7657 6.46911 10.7326 6.24564 10.5092C5.12937 9.39287 4.33069 8.0821 3.84652 6.5789C3.73997 6.24888 3.8248 6.02542 4.12275 5.84127C4.2031 5.79161 4.28413 5.74299 4.36517 5.69437L4.36519 5.69436C4.52727 5.59711 4.68934 5.49986 4.8459 5.39434C5.56595 4.9081 5.79872 3.97391 5.37249 3.21662C5.07453 2.68796 4.75693 2.16965 4.42587 1.66066ZM12.75 7.96369L12.75 7.9639C12.7358 8.12585 12.7215 8.28765 12.7043 8.44903C12.663 8.8225 12.4023 9.04079 12.0619 8.9932C11.7464 8.94871 11.5519 8.66318 11.6015 8.31453C11.7443 7.31206 11.5725 6.36441 11.0646 5.49022C10.3787 4.3098 9.36172 3.5794 8.01577 3.3187C7.59885 3.238 7.39918 3.0404 7.4147 2.71142C7.42918 2.39071 7.72817 2.13517 8.04474 2.19414C10.3445 2.62141 11.8519 3.95908 12.5471 6.18543C12.6501 6.51492 12.6965 6.86146 12.7429 7.208C12.7641 7.36634 12.7853 7.52468 12.8119 7.68139L12.7747 7.6907V7.68967C12.7661 7.78102 12.7581 7.87238 12.75 7.96369ZM10.5336 7.86963C10.5392 7.81523 10.5447 7.76085 10.5514 7.70673C10.5494 6.70632 10.0766 5.71418 9.29032 5.08725C8.81856 4.71067 8.28887 4.46755 7.68883 4.39203C7.39192 4.35479 7.12811 4.55859 7.07948 4.83896C7.02776 5.13173 7.21191 5.40692 7.50675 5.47934C7.54265 5.48879 7.57942 5.49651 7.61547 5.50408C7.61889 5.5048 7.62231 5.50552 7.62573 5.50624C8.60027 5.70281 9.31308 6.47872 9.40825 7.46568C9.42099 7.60239 9.41375 7.74085 9.40651 7.87935C9.40258 7.95465 9.39864 8.02997 9.39791 8.10503C9.39584 8.39367 9.60172 8.62437 9.88932 8.66162C10.15 8.69472 10.4169 8.52092 10.478 8.25504C10.5071 8.12896 10.5204 7.99928 10.5336 7.86963Z" fill="black"/>
</svg>
