<svg width="215" height="65" viewBox="0 0 215 65" fill="none" xmlns="http://www.w3.org/2000/svg">
<path d="M89.2473 32.7179C88.8092 28.679 85.6013 25.3551 81.5753 24.7883C78.1097 24.2858 74.9662 25.7545 73.0531 28.2345L66.2379 37.0208C65.6066 37.826 64.576 38.1997 63.5711 37.9678L61.3616 37.4653C53.49 35.681 45.3285 35.185 37.2958 35.9773C32.2971 36.4733 26.9377 36.8856 22.4995 39.4558C17.4493 42.3867 14.9886 48.2485 14.9886 53.9365V58.6904C14.9886 60.056 16.0192 61.1639 17.3462 61.2992C17.43 61.3121 17.5137 61.3121 17.591 61.3121H18.0548C19.1563 61.3121 20.129 62.0335 20.4511 63.0835L20.5412 63.367C20.8376 64.3332 21.5848 64.9774 22.4222 64.9774H25.5335C26.3709 64.9774 27.1245 64.3332 27.4144 63.367L27.4982 63.09C27.8202 62.0271 28.7929 61.3121 29.8944 61.3121H59.3905C60.492 61.3121 61.4711 62.0335 61.7868 63.09L61.8769 63.367C62.1732 64.3332 62.9269 64.9774 63.7579 64.9774H66.8692C67.713 64.9774 68.4602 64.3332 68.7501 63.367L68.8338 63.0835C69.1559 62.0271 70.1286 61.3121 71.2301 61.3121H71.681C71.7777 61.3121 71.8678 61.3056 71.958 61.2992C73.4718 61.2026 74.7923 60.1784 75.2497 58.7097L78.8505 47.2179C79.5591 44.9698 81.1953 43.0759 83.3983 42.245C87.1537 40.8472 89.7175 37.0466 89.2344 32.7179H89.2473ZM71.52 3.09298L68.4731 2.55833C52.9489 -0.134254 36.5615 -0.134254 21.0244 2.55189L17.9131 3.09298C9.33931 4.58099 4.9075 11.1836 7.02034 18.1212L8.40528 22.6561L9.15895 24.6916H9.01723C8.59853 24.6916 8.15406 24.7174 7.72247 24.7883C3.70292 25.3551 0.495009 28.679 0.0569807 32.7179C-0.419697 37.0466 2.14406 40.8472 5.88662 42.245C8.09609 43.0759 9.73869 44.9698 10.4473 47.2179C10.4473 47.2179 12.9337 54.5806 12.9337 53.8978V51.1988C12.9337 35.6295 31.9815 33.7099 43.5184 33.5617C44.0531 33.5553 44.5748 33.5553 45.0966 33.5617C50.4946 33.5939 55.8862 34.2123 61.1941 35.4104L63.4487 35.9193C63.5195 35.9322 63.5904 35.9515 63.6677 35.9773C64.402 35.9387 65.0913 35.5715 65.5551 34.9724C66.8627 33.2718 68.2219 31.6099 69.5231 29.9093C71.2044 27.7321 72.6215 25.31 75.0758 23.8993C76.3254 23.1843 77.8005 22.8107 79.2306 22.7076C80.2934 22.6625 81.221 21.9862 81.5367 20.9684L82.3998 18.1212C84.5256 11.1836 80.1002 4.58743 71.5135 3.09942L71.52 3.09298ZM34.2167 27.1266C32.7159 23.1972 30.6803 19.4417 28.1359 16.0986C27.2663 15.0872 26.3065 13.9728 25.4755 12.9422C24.3611 11.4735 23.1179 10.153 21.9262 8.57478L22.0421 8.4073C25.8105 9.69561 28.6061 12.8649 30.3582 16.3305C32.2585 19.6801 33.6499 23.3131 34.4164 27.075L34.2167 27.1201V27.1266ZM45.4702 16.9488C45.2963 20.2985 45.0579 23.6417 44.7487 26.9848H44.5426C44.2399 23.6417 43.9951 20.2985 43.8212 16.9488C43.4733 13.5606 43.4218 10.2303 44.5426 6.91929H44.7487C45.8631 10.2303 45.818 13.5541 45.4702 16.9488ZM63.8287 12.9422C62.9978 13.9793 62.0315 15.0872 61.1619 16.0986C59.7448 17.928 58.508 19.9313 57.4129 21.9797C56.524 23.6352 55.751 25.3551 55.0811 27.1266L54.8749 27.0815C55.6415 23.3131 57.0329 19.6865 58.9396 16.3369C60.6852 12.8713 63.4873 9.70206 67.2492 8.41374L67.3716 8.58122C66.1799 10.1658 64.9431 11.4864 63.8223 12.9486L63.8287 12.9422Z" fill="url(#paint0_linear_100_339)"/>
<path d="M108.392 43.4497C107.065 43.1405 105.66 42.7347 104.198 42.2258C103.129 41.8265 102.394 41.6268 101.995 41.6268C101.261 41.6268 100.894 42.1099 100.894 43.0697H100.204V33.884H100.894C101.415 35.5974 102.279 36.6281 103.483 38.0646C104.688 39.4946 106.124 40.6283 107.793 41.4722C109.461 42.316 111.207 42.7347 113.042 42.7347C114.466 42.7347 115.986 42.535 117.307 42.039C118.498 41.5881 119.581 40.7765 120.006 39.675C121.043 36.976 118.099 34.6634 115.819 33.4846C114.582 32.8404 112.92 32.0803 110.839 31.1978C108.546 30.238 106.704 29.3813 105.313 28.6341C103.921 27.8869 102.736 26.9657 101.757 25.8642C100.778 24.7691 100.288 23.5001 100.288 22.0572C100.288 19.8671 101.351 18.1601 103.477 16.9426C105.602 15.7251 108.327 15.1196 111.664 15.1196C113.313 15.1196 115.716 15.4417 118.866 16.0794C120.425 16.3757 121.371 16.5175 121.706 16.5175C122.499 16.5175 122.898 16.1825 122.898 15.5126H123.587V22.6112H122.898C121.674 20.4984 120.115 19.3646 118.221 18.1343C116.328 16.9039 114.138 16.292 111.664 16.292C110.021 16.292 108.347 16.6398 106.994 17.5159C106.189 18.0377 105.532 18.7913 105.332 19.6738C105.094 20.7303 105.538 21.8382 106.272 22.6885C107.09 23.629 108.243 24.3633 109.396 24.9366C110.575 25.5228 112.141 26.2314 114.099 27.0623C116.579 28.0801 118.537 28.9626 119.993 29.7098C121.442 30.4571 122.692 31.3911 123.729 32.499C124.766 33.607 125.288 34.9146 125.288 36.4091C125.288 38.8182 124.167 40.667 121.919 41.9617C119.671 43.2565 116.682 43.9071 112.952 43.9071C111.239 43.9071 109.719 43.7525 108.392 43.4433V43.4497ZM133.089 42.1679C131.04 41.0019 129.468 39.34 128.367 37.1756C127.265 35.0113 126.718 32.4668 126.718 29.5552C126.718 26.6436 127.265 24.0992 128.367 21.9348C129.468 19.7705 131.04 18.1021 133.089 16.9426C135.137 15.7767 137.52 15.1969 140.245 15.1969C142.97 15.1969 145.353 15.7767 147.402 16.9426C149.45 18.1085 151.022 19.7705 152.124 21.9348C153.225 24.0992 153.773 26.6436 153.773 29.5552C153.773 32.4668 153.225 35.0113 152.124 37.1756C151.022 39.34 149.45 41.0084 147.402 42.1679C145.353 43.3338 142.97 43.9135 140.245 43.9135C137.52 43.9135 135.137 43.3338 133.089 42.1679ZM146.094 38.6508C147.421 36.2867 148.091 33.9677 148.091 29.5552C148.091 25.1427 147.428 22.8238 146.094 20.4597C144.767 18.0956 142.815 16.3757 140.245 16.3757C137.675 16.3757 135.73 18.0956 134.396 20.4597C133.069 22.8238 132.399 25.1427 132.399 29.5552C132.399 33.9677 133.063 36.2867 134.396 38.6508C135.723 41.0148 137.675 42.7347 140.245 42.7347C142.815 42.7347 144.761 41.0148 146.094 38.6508ZM177.993 15.3966V19.3518H177.304C177.304 17.8251 175.481 17.065 171.848 17.065L167.352 17.0199C165.206 17.0006 163.454 18.5723 163.454 20.5177V26.9657H168.086C169.889 26.9657 171.249 26.7854 172.17 26.4246C173.085 26.0639 173.548 25.497 173.548 24.7176H174.238V30.9209H173.548C173.548 30.1479 173.091 29.5746 172.17 29.2138C171.255 28.8531 169.889 28.6727 168.086 28.6727L163.454 28.6341V38.0453C163.454 41.2274 164.324 42.8185 166.07 42.8185V43.4626H155.248V42.8185C156.961 42.8185 157.818 41.2274 157.818 38.0453V20.8011C157.818 17.5932 156.961 15.9892 155.248 15.9892V15.3902H177.999L177.993 15.3966ZM200.326 41.3884C200.539 41.8458 200.822 42.2001 201.176 42.4513C201.524 42.7025 201.885 42.8314 202.252 42.8314V43.4755H193.723V42.8314C194.426 42.8314 194.78 42.535 194.78 41.9489C194.78 41.7363 194.735 41.4657 194.645 41.1437L192.074 34.4315H180.157L177.677 41.1437C177.587 41.4142 177.542 41.6525 177.542 41.8651C177.542 42.5093 177.89 42.8249 178.599 42.8249V43.4691H173.162V42.8249C173.587 42.8249 173.973 42.6961 174.308 42.4449C174.643 42.1936 174.953 41.7427 175.223 41.0986L183.984 15.3902H191.392L200.332 41.382L200.326 41.3884ZM186.109 17.5546L180.512 32.7696H191.746L186.103 17.5546H186.109Z" fill="white"/>
<path d="M110.614 54.3939C110.685 55.1862 110.627 55.9077 110.427 56.5454C110.227 57.1831 109.938 57.7435 109.545 58.2073C109.152 58.6711 108.681 59.0383 108.14 59.3088C107.593 59.5794 107 59.7404 106.369 59.792C106.292 59.8048 106.208 59.8113 106.124 59.8113H105.396C104.759 59.8113 104.147 59.7211 103.554 59.5472C102.961 59.3732 102.433 59.0963 101.969 58.7291C101.499 58.3619 101.113 57.8917 100.803 57.3119C100.494 56.7386 100.301 56.0494 100.23 55.2571C100.179 54.7289 100.191 54.2264 100.282 53.7626C100.365 53.2988 100.507 52.8672 100.694 52.4743C100.881 52.0814 101.119 51.7335 101.402 51.4179C101.686 51.1022 102.002 50.8317 102.349 50.6062C102.697 50.3808 103.071 50.194 103.47 50.0587C103.87 49.9234 104.275 49.8333 104.694 49.7946L105.171 49.7495H105.66C106.292 49.7495 106.891 49.8397 107.458 50.0201C108.024 50.2004 108.527 50.4839 108.971 50.8639C109.416 51.244 109.783 51.7271 110.073 52.3068C110.363 52.8866 110.55 53.5823 110.62 54.381L110.614 54.3939ZM105.854 59.4699C106.974 59.3797 107.773 58.9352 108.243 58.1365C108.72 57.3377 108.881 56.1396 108.733 54.5485C108.662 53.7497 108.54 53.0669 108.366 52.5065C108.192 51.9461 107.966 51.4887 107.683 51.128C107.4 50.7673 107.052 50.5096 106.646 50.3486C106.24 50.1875 105.757 50.1038 105.209 50.1038C104.089 50.2004 103.258 50.6578 102.717 51.4823C102.175 52.3068 101.982 53.5178 102.124 55.1154C102.259 56.6098 102.594 57.7178 103.142 58.4263C103.689 59.1349 104.462 59.4892 105.454 59.4892C105.519 59.4892 105.583 59.4892 105.647 59.4892C105.712 59.4892 105.776 59.4828 105.854 59.4763V59.4699ZM119.883 59.7984C119.883 59.7984 119.896 59.7984 119.896 59.8048C119.896 59.8113 119.896 59.8113 119.883 59.8113H118.151C118.151 59.7662 118.138 59.7018 118.112 59.6116C118.086 59.5278 118.054 59.4312 118.015 59.3346C117.977 59.238 117.932 59.1349 117.874 59.0254C117.822 58.9223 117.771 58.8257 117.713 58.742L112.978 51.2504V58.8966C112.978 59.1607 113.055 59.3604 113.216 59.5085C113.377 59.6567 113.558 59.7469 113.764 59.792C113.764 59.792 113.777 59.792 113.777 59.7984C113.777 59.8048 113.777 59.8048 113.764 59.8048H111.252C111.252 59.8048 111.232 59.8048 111.232 59.7984C111.232 59.792 111.239 59.792 111.252 59.792C111.451 59.7469 111.632 59.6502 111.793 59.5085C111.954 59.3668 112.038 59.1607 112.038 58.8966V50.6707C112.038 50.4066 111.954 50.2069 111.793 50.0587C111.632 49.9105 111.451 49.8204 111.252 49.7817C111.239 49.7817 111.232 49.7688 111.232 49.7624C111.232 49.756 111.239 49.7559 111.252 49.7559H113.925L118.151 56.4359V50.6771C118.151 50.413 118.067 50.2133 117.906 50.0651C117.745 49.917 117.564 49.8268 117.365 49.7882C117.352 49.7882 117.345 49.7753 117.352 49.7688C117.358 49.7624 117.358 49.7624 117.365 49.7624H119.877C119.877 49.7624 119.896 49.7688 119.877 49.7882C119.671 49.8268 119.49 49.917 119.329 50.0651C119.168 50.2133 119.091 50.4194 119.091 50.6771V58.903C119.091 59.1671 119.168 59.3668 119.329 59.515C119.49 59.6631 119.671 59.7533 119.877 59.7984H119.883ZM122.962 49.7624H126.422C126.454 49.7624 126.46 49.7688 126.441 49.7882C126.261 49.8268 126.138 49.917 126.074 50.0651C126.009 50.2133 126.054 50.4194 126.222 50.6771L128.348 54.0332L130.564 50.5289C130.667 50.3099 130.686 50.1424 130.615 50.0136C130.544 49.8912 130.428 49.8139 130.267 49.7817C130.248 49.7624 130.254 49.7559 130.287 49.7559H132.779C132.779 49.7559 132.786 49.7624 132.767 49.7817C132.554 49.8139 132.335 49.8912 132.103 50.0136C131.878 50.136 131.678 50.3099 131.51 50.5289L128.818 54.7804V58.8966C128.818 59.1607 128.895 59.3604 129.056 59.5085C129.217 59.6567 129.398 59.7469 129.604 59.792C129.604 59.792 129.61 59.792 129.61 59.7984C129.61 59.8048 129.604 59.8048 129.591 59.8048H126.132C126.132 59.8048 126.119 59.8048 126.119 59.7984C126.119 59.792 126.119 59.792 126.132 59.792C126.338 59.7469 126.518 59.6502 126.679 59.5085C126.84 59.3668 126.918 59.1607 126.918 58.8966V54.7804L124.315 50.6707C124.148 50.4066 123.942 50.2069 123.69 50.0587C123.439 49.9105 123.194 49.8204 122.962 49.7817C122.943 49.7624 122.937 49.7559 122.95 49.7559L122.962 49.7624ZM142.661 54.3939C142.732 55.1862 142.674 55.9077 142.474 56.5454C142.274 57.1831 141.984 57.7435 141.592 58.2073C141.199 58.6711 140.728 59.0383 140.187 59.3088C139.64 59.5794 139.047 59.7404 138.416 59.792C138.339 59.8048 138.255 59.8113 138.171 59.8113H137.443C136.805 59.8113 136.194 59.7211 135.601 59.5472C135.008 59.3732 134.48 59.0963 134.016 58.7291C133.546 58.3619 133.16 57.8917 132.85 57.3119C132.541 56.7386 132.348 56.0494 132.277 55.2571C132.225 54.7289 132.238 54.2264 132.329 53.7626C132.412 53.2988 132.554 52.8672 132.741 52.4743C132.928 52.0814 133.166 51.7335 133.449 51.4179C133.733 51.1022 134.048 50.8317 134.396 50.6062C134.744 50.3808 135.118 50.194 135.517 50.0587C135.917 49.9234 136.322 49.8333 136.741 49.7946L137.218 49.7495H137.707C138.339 49.7495 138.938 49.8397 139.504 50.0201C140.071 50.2004 140.574 50.4839 141.018 50.8639C141.463 51.244 141.83 51.7271 142.12 52.3068C142.41 52.8866 142.596 53.5823 142.667 54.381L142.661 54.3939ZM137.901 59.4699C139.021 59.3797 139.82 58.9352 140.29 58.1365C140.767 57.3377 140.928 56.1396 140.78 54.5485C140.709 53.7497 140.587 53.0669 140.413 52.5065C140.239 51.9461 140.013 51.4887 139.73 51.128C139.447 50.7673 139.099 50.5096 138.693 50.3486C138.287 50.1875 137.804 50.1038 137.256 50.1038C136.136 50.2004 135.305 50.6578 134.763 51.4823C134.222 52.3068 134.029 53.5178 134.171 55.1154C134.306 56.6098 134.641 57.7178 135.189 58.4263C135.736 59.1349 136.509 59.4892 137.501 59.4892C137.566 59.4892 137.63 59.4892 137.694 59.4892C137.759 59.4892 137.823 59.4828 137.901 59.4763V59.4699ZM143.292 49.7624H146.751C146.751 49.7624 146.771 49.7688 146.751 49.7882C146.552 49.8268 146.371 49.917 146.21 50.0651C146.049 50.2133 145.965 50.4194 145.965 50.6771V55.3279C145.965 55.9592 146.004 56.5325 146.088 57.0414C146.165 57.5503 146.3 57.9819 146.487 58.349C146.674 58.7098 146.919 58.9868 147.222 59.18C147.524 59.3732 147.898 59.4699 148.342 59.4699C148.787 59.4699 149.16 59.3732 149.463 59.18C149.766 58.9868 150.011 58.7098 150.191 58.349C150.378 57.9883 150.507 57.5503 150.59 57.0414C150.668 56.5325 150.713 55.9592 150.713 55.3279V50.6771C150.713 50.413 150.636 50.2133 150.475 50.0651C150.313 49.917 150.133 49.8268 149.927 49.7882C149.908 49.7688 149.908 49.7624 149.94 49.7624H152.446C152.446 49.7624 152.478 49.7688 152.459 49.7882C152.252 49.8268 152.072 49.917 151.911 50.0651C151.75 50.2133 151.673 50.4194 151.673 50.6771V55.3279C151.673 56.0752 151.615 56.7322 151.505 57.2926C151.396 57.853 151.235 58.3168 151.022 58.6904C150.816 59.0641 150.565 59.3475 150.268 59.5278C149.979 59.7147 149.65 59.8048 149.296 59.8048H147.408C146.932 59.8048 146.487 59.7147 146.088 59.5278C145.682 59.341 145.334 59.0641 145.038 58.6904C144.741 58.3168 144.51 57.8466 144.342 57.2926C144.175 56.7322 144.091 56.0816 144.091 55.3279V50.6771C144.091 50.413 144.007 50.2133 143.846 50.0651C143.685 49.917 143.505 49.8268 143.305 49.7882C143.292 49.7882 143.286 49.7753 143.292 49.7688C143.299 49.7624 143.299 49.7624 143.305 49.7624H143.292ZM153.064 59.8177C153.064 59.8177 153.051 59.8177 153.051 59.8113C153.051 59.8048 153.051 59.8048 153.064 59.8048C153.264 59.7597 153.444 59.6631 153.605 59.5214C153.766 59.3797 153.85 59.1736 153.85 58.9095V50.6835C153.85 50.4194 153.766 50.2197 153.605 50.0716C153.444 49.9234 153.264 49.8333 153.064 49.7946C153.051 49.7946 153.045 49.7817 153.051 49.7753C153.058 49.7688 153.058 49.7688 153.064 49.7688H157.638C158.056 49.7688 158.462 49.8204 158.861 49.9299C159.261 50.0329 159.615 50.2069 159.924 50.4388C160.234 50.6707 160.485 50.9734 160.678 51.3406C160.865 51.7078 160.961 52.1587 160.961 52.6869C160.961 53.2151 160.865 53.6596 160.678 54.0332C160.491 54.4068 160.24 54.7095 159.924 54.9414C159.615 55.1733 159.261 55.3473 158.861 55.4503C158.462 55.5534 158.056 55.6114 157.638 55.6114H156.575C157.38 55.6114 158.076 55.6887 158.668 55.8368C159.261 55.985 159.75 56.204 160.143 56.4874C160.536 56.7708 160.826 57.1187 161.019 57.531C161.213 57.9432 161.309 58.4006 161.309 58.9223C161.309 59.1864 161.393 59.3861 161.554 59.5343C161.715 59.6824 161.895 59.7726 162.095 59.8177C162.102 59.8177 162.108 59.8177 162.108 59.8242C162.108 59.8306 162.108 59.8306 162.095 59.8306H158.636C158.636 59.8306 158.623 59.8306 158.623 59.8242C158.623 59.8177 158.623 59.8177 158.636 59.8177C158.836 59.7726 159.016 59.676 159.177 59.5343C159.338 59.3926 159.422 59.1864 159.422 58.9223C159.422 57.969 159.184 57.2218 158.707 56.6871C158.23 56.1525 157.522 55.7917 156.581 55.6114H155.744V58.9223C155.744 59.1864 155.827 59.3861 155.989 59.5343C156.15 59.6824 156.33 59.7726 156.53 59.8177C156.542 59.8177 156.549 59.8177 156.542 59.8242C156.536 59.8306 156.536 59.8306 156.53 59.8306H153.07L153.064 59.8177ZM155.737 55.2506C156.304 55.2506 156.787 55.1798 157.206 55.0316C157.618 54.8835 157.966 54.6902 158.243 54.4519C158.52 54.2135 158.726 53.9365 158.861 53.6338C158.997 53.3246 159.068 53.009 159.068 52.6869C159.068 52.3648 158.997 52.0427 158.861 51.7335C158.726 51.4243 158.52 51.1473 158.243 50.909C157.966 50.6707 157.625 50.4774 157.206 50.3357C156.794 50.194 156.304 50.1167 155.737 50.1167V55.2571V55.2506ZM170.83 59.4119C171.107 59.3861 171.384 59.2959 171.661 59.1413C171.938 58.9867 172.196 58.7871 172.434 58.5487C172.672 58.3104 172.878 58.0398 173.059 57.7435C173.239 57.4472 173.368 57.1445 173.458 56.8353V58.6582C173.336 58.7806 173.188 58.903 173.007 59.0254C172.827 59.1478 172.621 59.2573 172.389 59.3604C172.163 59.4634 171.919 59.5472 171.661 59.618C171.403 59.6889 171.139 59.734 170.862 59.7597C170.823 59.7597 170.778 59.7597 170.733 59.7662C170.65 59.7662 170.527 59.7726 170.373 59.792C170.302 59.792 170.224 59.8048 170.154 59.8048C170.083 59.8048 170.005 59.8048 169.935 59.8048C169.342 59.8048 168.782 59.7082 168.24 59.5085C167.699 59.3088 167.216 59.019 166.791 58.6325C166.366 58.246 166.012 57.7628 165.735 57.196C165.458 56.6291 165.284 55.9656 165.219 55.212C165.148 54.4132 165.206 53.6789 165.406 53.0154C165.599 52.3519 165.896 51.7722 166.289 51.2891C166.682 50.8059 167.145 50.4259 167.693 50.1553C168.24 49.8848 168.833 49.7495 169.471 49.7495H169.96C170.289 49.7495 170.63 49.7946 170.972 49.8783C171.319 49.9621 171.629 50.0974 171.906 50.2777C172.183 50.4581 172.408 50.6771 172.589 50.9476C172.769 51.2182 172.853 51.5274 172.853 51.8946C172.853 52.0685 172.795 52.2166 172.672 52.3455C172.55 52.4743 172.408 52.5452 172.234 52.558C172.041 52.558 171.873 52.5065 171.725 52.4034C171.577 52.3004 171.5 52.1522 171.487 51.9525C171.474 51.7851 171.519 51.6369 171.622 51.5016C171.725 51.3663 171.861 51.2826 172.035 51.2504C171.957 51.1087 171.854 50.9734 171.725 50.8317C171.596 50.6964 171.455 50.574 171.281 50.4645C171.113 50.355 170.92 50.2713 170.708 50.2004C170.495 50.136 170.25 50.0974 169.986 50.0974C168.872 50.0974 168.079 50.5225 167.603 51.3792C167.126 52.236 166.959 53.4534 167.107 55.0509C167.242 56.5454 167.577 57.6533 168.124 58.3619C168.672 59.0705 169.445 59.4248 170.443 59.4248C170.508 59.4248 170.572 59.4248 170.637 59.4248C170.701 59.4248 170.766 59.4183 170.843 59.4119H170.83ZM174.064 49.7624H177.523C177.523 49.7624 177.536 49.7624 177.536 49.7688C177.536 49.7753 177.536 49.7817 177.523 49.7882C177.323 49.8268 177.143 49.917 176.982 50.0651C176.821 50.2133 176.737 50.4194 176.737 50.6771V54.5614H180.525V50.6771C180.525 50.413 180.447 50.2133 180.286 50.0651C180.125 49.917 179.945 49.8268 179.739 49.7882C179.719 49.7688 179.719 49.7624 179.752 49.7624H183.211C183.211 49.7624 183.23 49.7688 183.211 49.7882C183.005 49.8268 182.824 49.917 182.663 50.0651C182.502 50.2133 182.425 50.4194 182.425 50.6771V58.903C182.425 59.1671 182.502 59.3668 182.663 59.515C182.824 59.6631 183.005 59.7533 183.211 59.7984C183.217 59.7984 183.224 59.7984 183.224 59.8048C183.224 59.8113 183.224 59.8113 183.211 59.8113H179.752C179.752 59.8113 179.732 59.8113 179.732 59.8048C179.732 59.7984 179.732 59.7984 179.745 59.7984C179.951 59.7533 180.132 59.6567 180.293 59.515C180.454 59.3732 180.531 59.1671 180.531 58.903V55.4761H176.743V58.903C176.743 59.1671 176.827 59.3668 176.988 59.515C177.149 59.6631 177.329 59.7533 177.529 59.7984C177.542 59.7984 177.549 59.7984 177.542 59.8048C177.536 59.8113 177.536 59.8113 177.529 59.8113H174.07C174.07 59.8113 174.057 59.8113 174.057 59.8048C174.057 59.7984 174.057 59.7984 174.07 59.7984C174.27 59.7533 174.45 59.6567 174.611 59.515C174.772 59.3732 174.856 59.1671 174.856 58.903V50.6771C174.856 50.413 174.772 50.2133 174.611 50.0651C174.45 49.917 174.27 49.8268 174.07 49.7882C174.057 49.7882 174.051 49.7753 174.057 49.7688C174.064 49.7624 174.064 49.7624 174.07 49.7624H174.064ZM194.226 54.3939C194.297 55.1862 194.239 55.9077 194.039 56.5454C193.839 57.1831 193.549 57.7435 193.156 58.2073C192.764 58.6711 192.293 59.0383 191.752 59.3088C191.205 59.5794 190.612 59.7404 189.981 59.792C189.903 59.8048 189.82 59.8113 189.736 59.8113H189.008C188.37 59.8113 187.758 59.7211 187.166 59.5472C186.573 59.3732 186.045 59.0963 185.581 58.7291C185.111 58.3619 184.724 57.8917 184.415 57.3119C184.106 56.7386 183.913 56.0494 183.842 55.2571C183.79 54.7289 183.803 54.2264 183.893 53.7626C183.977 53.2988 184.119 52.8672 184.306 52.4743C184.493 52.0814 184.731 51.7335 185.014 51.4179C185.298 51.1022 185.613 50.8317 185.961 50.6062C186.309 50.3808 186.683 50.194 187.082 50.0587C187.481 49.9234 187.887 49.8333 188.306 49.7946L188.783 49.7495H189.272C189.903 49.7495 190.503 49.8397 191.069 50.0201C191.636 50.2004 192.139 50.4839 192.583 50.8639C193.028 51.244 193.395 51.7271 193.685 52.3068C193.975 52.8866 194.161 53.5823 194.232 54.381L194.226 54.3939ZM189.465 59.4699C190.586 59.3797 191.385 58.9352 191.855 58.1365C192.332 57.3377 192.493 56.1396 192.345 54.5485C192.274 53.7497 192.152 53.0669 191.978 52.5065C191.804 51.9461 191.578 51.4887 191.295 51.128C191.011 50.7673 190.664 50.5096 190.258 50.3486C189.852 50.1875 189.369 50.1038 188.821 50.1038C187.7 50.2004 186.869 50.6578 186.328 51.4823C185.787 52.3068 185.594 53.5178 185.736 55.1154C185.871 56.6098 186.206 57.7178 186.754 58.4263C187.301 59.1349 188.074 59.4892 189.066 59.4892C189.13 59.4892 189.195 59.4892 189.259 59.4892C189.324 59.4892 189.388 59.4828 189.465 59.4763V59.4699ZM198.316 59.7984C198.316 59.7984 198.336 59.7984 198.329 59.8048C198.323 59.8113 198.323 59.8113 198.316 59.8113H194.857C194.857 59.8113 194.844 59.8113 194.844 59.8048C194.844 59.7984 194.844 59.7984 194.857 59.7984C195.057 59.7533 195.237 59.6567 195.398 59.515C195.559 59.3732 195.643 59.1671 195.643 58.903V50.6771C195.643 50.413 195.559 50.2133 195.398 50.0651C195.237 49.917 195.057 49.8268 194.857 49.7882C194.844 49.7882 194.838 49.7753 194.844 49.7688C194.851 49.7624 194.851 49.7624 194.857 49.7624H198.316C198.316 49.7624 198.329 49.7624 198.329 49.7688C198.329 49.7753 198.329 49.7817 198.316 49.7882C198.117 49.8268 197.936 49.917 197.775 50.0651C197.614 50.2133 197.53 50.4194 197.53 50.6771V58.903C197.53 59.1671 197.614 59.3668 197.775 59.515C197.936 59.6631 198.117 59.7533 198.316 59.7984ZM204.571 59.4119C204.848 59.3861 205.125 59.2959 205.402 59.1413C205.679 58.9867 205.937 58.7871 206.175 58.5487C206.413 58.3104 206.619 58.0398 206.8 57.7435C206.98 57.4472 207.109 57.1445 207.199 56.8353V58.6582C207.077 58.7806 206.929 58.903 206.748 59.0254C206.568 59.1478 206.362 59.2573 206.13 59.3604C205.904 59.4634 205.66 59.5472 205.402 59.618C205.144 59.6889 204.88 59.734 204.603 59.7597C204.565 59.7597 204.519 59.7597 204.474 59.7662C204.391 59.7662 204.268 59.7726 204.114 59.792C204.043 59.792 203.965 59.8048 203.895 59.8048C203.824 59.8048 203.746 59.8048 203.676 59.8048C203.083 59.8048 202.523 59.7082 201.981 59.5085C201.44 59.3088 200.957 59.019 200.532 58.6325C200.107 58.246 199.753 57.7628 199.476 57.196C199.199 56.6291 199.025 55.9656 198.96 55.212C198.89 54.4132 198.947 53.6789 199.147 53.0154C199.34 52.3519 199.637 51.7722 200.03 51.2891C200.423 50.8059 200.886 50.4259 201.434 50.1553C201.981 49.8848 202.574 49.7495 203.212 49.7495H203.701C204.03 49.7495 204.371 49.7946 204.713 49.8783C205.061 49.9621 205.37 50.0974 205.647 50.2777C205.924 50.4581 206.149 50.6771 206.33 50.9476C206.51 51.2182 206.594 51.5274 206.594 51.8946C206.594 52.0685 206.536 52.2166 206.413 52.3455C206.291 52.4743 206.149 52.5452 205.975 52.558C205.782 52.558 205.615 52.5065 205.466 52.4034C205.318 52.3004 205.241 52.1522 205.228 51.9525C205.215 51.7851 205.26 51.6369 205.363 51.5016C205.466 51.3663 205.602 51.2826 205.776 51.2504C205.698 51.1087 205.595 50.9734 205.466 50.8317C205.338 50.6964 205.196 50.574 205.022 50.4645C204.854 50.355 204.661 50.2713 204.449 50.2004C204.236 50.136 203.991 50.0974 203.727 50.0974C202.613 50.0974 201.82 50.5225 201.344 51.3792C200.867 52.236 200.7 53.4534 200.848 55.0509C200.983 56.5454 201.318 57.6533 201.866 58.3619C202.413 59.0705 203.186 59.4248 204.184 59.4248C204.249 59.4248 204.313 59.4248 204.378 59.4248C204.442 59.4248 204.507 59.4183 204.584 59.4119H204.571ZM215 52.5065C214.839 52.1715 214.646 51.8623 214.42 51.5725C214.195 51.2826 213.924 51.0249 213.615 50.8124C213.306 50.5934 212.958 50.4259 212.565 50.297C212.172 50.1747 211.74 50.1102 211.264 50.1102H210.491V54.9092C210.742 54.9092 210.98 54.8963 211.212 54.877C211.438 54.8513 211.65 54.8062 211.837 54.7353C212.024 54.6644 212.185 54.5614 212.32 54.4261C212.455 54.2908 212.546 54.1105 212.61 53.8915V56.6098C212.552 56.3779 212.455 56.1975 212.32 56.0623C212.185 55.927 212.024 55.8239 211.837 55.7531C211.65 55.6822 211.438 55.6371 211.212 55.6178C210.987 55.5985 210.742 55.592 210.491 55.592V59.4763H211.264C211.74 59.4763 212.172 59.4119 212.565 59.2895C212.958 59.1671 213.306 58.9932 213.615 58.7742C213.924 58.5552 214.195 58.3039 214.42 58.0141C214.646 57.7242 214.845 57.4086 215 57.08V59.8242C214.871 59.734 214.729 59.6567 214.575 59.5858C214.414 59.515 214.22 59.4828 213.989 59.4828C213.853 59.4828 213.712 59.5021 213.563 59.5343C213.409 59.5665 213.228 59.6116 213.022 59.6567C212.816 59.7018 212.571 59.7404 212.288 59.7791C212.005 59.8113 211.67 59.8306 211.27 59.8306H207.811C207.811 59.8306 207.798 59.8306 207.798 59.8242C207.798 59.8177 207.798 59.8177 207.811 59.8177C208.017 59.7726 208.198 59.676 208.359 59.5343C208.52 59.3926 208.597 59.1864 208.597 58.9223V50.6964C208.597 50.4323 208.52 50.2326 208.359 50.0845C208.198 49.9363 208.017 49.8461 207.811 49.8075C207.792 49.7882 207.792 49.7817 207.811 49.7817H211.27C211.67 49.7817 212.005 49.801 212.288 49.8333C212.571 49.8719 212.816 49.9106 213.022 49.9556C213.228 50.0007 213.409 50.0394 213.563 50.078C213.718 50.1102 213.86 50.1296 213.989 50.1296C214.22 50.1296 214.414 50.0974 214.575 50.0265C214.736 49.9556 214.878 49.8783 215 49.7882V52.5323V52.5065Z" fill="white"/>
<defs>
<linearGradient id="paint0_linear_100_339" x1="25.9779" y1="-2.80752" x2="65.6646" y2="65.9371" gradientUnits="userSpaceOnUse">
<stop stop-color="#E8CEBA"/>
<stop offset="0.27" stop-color="#FFF1E6"/>
<stop offset="0.39" stop-color="#FAEBDF"/>
<stop offset="0.56" stop-color="#EDDCCC"/>
<stop offset="0.76" stop-color="#D8C4AE"/>
<stop offset="0.98" stop-color="#BAA283"/>
<stop offset="1" stop-color="#B89F80"/>
</linearGradient>
</defs>
</svg>
